<ttFont>
    <TTGlyph name=".notdef" xMin="90" yMin="0" xMax="558" yMax="660">
      <contour>
        <pt x="90" y="660" on="1"/>
        <pt x="558" y="660" on="1"/>
        <pt x="558" y="0" on="1"/>
        <pt x="90" y="0" on="1"/>
      </contour>
      <contour>
        <pt x="326" y="383" on="1"/>
        <pt x="376" y="477" on="1"/>
        <pt x="447" y="605" on="1"/>
        <pt x="200" y="605" on="1"/>
        <pt x="271" y="477" on="1"/>
        <pt x="322" y="383" on="1"/>
      </contour>
      <contour>
        <pt x="283" y="340" on="1"/>
        <pt x="150" y="579" on="1"/>
        <pt x="150" y="103" on="1"/>
      </contour>
      <contour>
        <pt x="496" y="579" on="1"/>
        <pt x="365" y="340" on="1"/>
        <pt x="496" y="103" on="1"/>
      </contour>
      <contour>
        <pt x="458" y="54" on="1"/>
        <pt x="380" y="194" on="1"/>
        <pt x="326" y="297" on="1"/>
        <pt x="322" y="297" on="1"/>
        <pt x="266" y="194" on="1"/>
        <pt x="187" y="54" on="1"/>
      </contour>
    </TTGlyph>
    <TTGlyph name="A" xMin="4" yMin="0" xMax="535" yMax="657">
      <contour>
        <pt x="391" y="207" on="1"/>
        <pt x="146" y="207" on="1"/>
        <pt x="79" y="0" on="1"/>
        <pt x="4" y="0" on="1"/>
        <pt x="229" y="657" on="1"/>
        <pt x="311" y="657" on="1"/>
        <pt x="535" y="0" on="1"/>
        <pt x="457" y="0" on="1"/>
      </contour>
      <contour>
        <pt x="372" y="266" on="1"/>
        <pt x="338" y="372" on="1"/>
        <pt x="298" y="497" on="0"/>
        <pt x="270" y="595" on="1"/>
        <pt x="266" y="595" on="1"/>
        <pt x="233" y="474" on="0"/>
        <pt x="199" y="372" on="1"/>
        <pt x="165" y="266" on="1"/>
      </contour>
    </TTGlyph>
    <TTGlyph name="AE" xMin="12" yMin="0" xMax="771" yMax="657">
      <contour>
        <pt x="771" y="63" on="1"/>
        <pt x="771" y="0" on="1"/>
        <pt x="404" y="0" on="1"/>
        <pt x="404" y="198" on="1"/>
        <pt x="193" y="198" on="1"/>
        <pt x="89" y="0" on="1"/>
        <pt x="12" y="0" on="1"/>
        <pt x="361" y="657" on="1"/>
        <pt x="761" y="657" on="1"/>
        <pt x="761" y="594" on="1"/>
        <pt x="478" y="594" on="1"/>
        <pt x="478" y="377" on="1"/>
        <pt x="713" y="377" on="1"/>
        <pt x="713" y="315" on="1"/>
        <pt x="478" y="315" on="1"/>
        <pt x="478" y="63" on="1"/>
      </contour>
      <contour>
        <pt x="404" y="257" on="1"/>
        <pt x="404" y="598" on="1"/>
        <pt x="400" y="598" on="1"/>
        <pt x="355" y="510" on="1"/>
        <pt x="288" y="379" on="1"/>
        <pt x="225" y="257" on="1"/>
      </contour>
    </TTGlyph>
    <TTGlyph name="Aacute" xMin="4" yMin="0" xMax="535" yMax="863">
      <component glyphName="A" x="0" y="0" flags="0x0"/>
      <component glyphName="acutecomb.cap" x="268" y="0" flags="0x0"/>
    </TTGlyph>
    <TTGlyph name="Abreve" xMin="4" yMin="0" xMax="535" yMax="842">
      <component glyphName="A" x="0" y="0" flags="0x0"/>
      <component glyphName="uni0306.cap" x="268" y="0" flags="0x0"/>
    </TTGlyph>
    <TTGlyph name="Acircumflex" xMin="4" yMin="0" xMax="535" yMax="838">
      <component glyphName="A" x="0" y="0" flags="0x0"/>
      <component glyphName="uni0302.cap" x="268" y="0" flags="0x0"/>
    </TTGlyph>
    <TTGlyph name="Adieresis" xMin="4" yMin="0" xMax="535" yMax="809">
      <component glyphName="A" x="0" y="0" flags="0x0"/>
      <component glyphName="uni0308.cap" x="268" y="0" flags="0x0"/>
    </TTGlyph>
    <TTGlyph name="Agrave" xMin="4" yMin="0" xMax="535" yMax="863">
      <component glyphName="A" x="0" y="0" flags="0x0"/>
      <component glyphName="gravecomb.cap" x="268" y="0" flags="0x0"/>
    </TTGlyph>
    <TTGlyph name="Amacron" xMin="4" yMin="0" xMax="535" yMax="789">
      <component glyphName="A" x="0" y="0" flags="0x0"/>
      <component glyphName="uni0304.cap" x="268" y="0" flags="0x0"/>
    </TTGlyph>
    <TTGlyph name="Aring" xMin="4" yMin="0" xMax="535" yMax="878">
      <component glyphName="A" x="0" y="0" flags="0x0"/>
      <component glyphName="uni030A.cap" x="268" y="0" flags="0x0"/>
    </TTGlyph>
    <TTGlyph name="Atilde" xMin="4" yMin="0" xMax="535" yMax="839">
      <component glyphName="A" x="0" y="0" flags="0x0"/>
      <component glyphName="tildecomb.cap" x="268" y="0" flags="0x0"/>
    </TTGlyph>
    <TTGlyph name="B" xMin="92" yMin="0" xMax="544" yMax="657">
      <contour>
        <pt x="92" y="657" on="1"/>
        <pt x="282" y="657" on="1"/>
        <pt x="387" y="657" on="0"/>
        <pt x="506" y="578" on="0"/>
        <pt x="506" y="496" on="1"/>
        <pt x="506" y="446" on="0"/>
        <pt x="454" y="369" on="0"/>
        <pt x="408" y="354" on="1"/>
        <pt x="408" y="350" on="1"/>
        <pt x="471" y="338" on="0"/>
        <pt x="544" y="257" on="0"/>
        <pt x="544" y="192" on="1"/>
        <pt x="544" y="98" on="0"/>
        <pt x="411" y="0" on="0"/>
        <pt x="297" y="0" on="1"/>
        <pt x="92" y="0" on="1"/>
      </contour>
      <contour>
        <pt x="267" y="375" on="1"/>
        <pt x="433" y="375" on="0"/>
        <pt x="433" y="487" on="1"/>
        <pt x="433" y="546" on="0"/>
        <pt x="353" y="598" on="0"/>
        <pt x="271" y="598" on="1"/>
        <pt x="166" y="598" on="1"/>
        <pt x="166" y="375" on="1"/>
      </contour>
      <contour>
        <pt x="285" y="59" on="1"/>
        <pt x="375" y="59" on="0"/>
        <pt x="471" y="126" on="0"/>
        <pt x="471" y="194" on="1"/>
        <pt x="471" y="318" on="0"/>
        <pt x="285" y="318" on="1"/>
        <pt x="166" y="318" on="1"/>
        <pt x="166" y="59" on="1"/>
      </contour>
    </TTGlyph>
    <TTGlyph name="C" xMin="52" yMin="-12" xMax="536" yMax="669">
      <contour>
        <pt x="254" y="-12" on="0"/>
        <pt x="125" y="70" on="0"/>
        <pt x="52" y="224" on="0"/>
        <pt x="52" y="328" on="1"/>
        <pt x="52" y="431" on="0"/>
        <pt x="126" y="586" on="0"/>
        <pt x="258" y="669" on="0"/>
        <pt x="341" y="669" on="1"/>
        <pt x="396" y="669" on="0"/>
        <pt x="488" y="623" on="0"/>
        <pt x="519" y="589" on="1"/>
        <pt x="478" y="540" on="1"/>
        <pt x="421" y="604" on="0"/>
        <pt x="342" y="604" on="1"/>
        <pt x="278" y="604" on="0"/>
        <pt x="182" y="537" on="0"/>
        <pt x="129" y="414" on="0"/>
        <pt x="129" y="330" on="1"/>
        <pt x="129" y="246" on="0"/>
        <pt x="180" y="121" on="0"/>
        <pt x="275" y="53" on="0"/>
        <pt x="339" y="53" on="1"/>
        <pt x="385" y="53" on="0"/>
        <pt x="460" y="91" on="0"/>
        <pt x="495" y="129" on="1"/>
        <pt x="536" y="83" on="1"/>
        <pt x="496" y="36" on="0"/>
        <pt x="398" y="-12" on="0"/>
        <pt x="336" y="-12" on="1"/>
      </contour>
    </TTGlyph>
    <TTGlyph name="Ccaron" xMin="52" yMin="-12" xMax="536" yMax="844">
      <component glyphName="C" x="0" y="0" flags="0x0"/>
      <component glyphName="uni030C.cap" x="327" y="0" flags="0x0"/>
    </TTGlyph>
    <TTGlyph name="Ccedilla" xMin="52" yMin="-12" xMax="536" yMax="669">
      <contour>
        <pt x="254" y="-12" on="0"/>
        <pt x="125" y="70" on="0"/>
        <pt x="52" y="224" on="0"/>
        <pt x="52" y="328" on="1"/>
        <pt x="52" y="431" on="0"/>
        <pt x="126" y="586" on="0"/>
        <pt x="258" y="669" on="0"/>
        <pt x="341" y="669" on="1"/>
        <pt x="396" y="669" on="0"/>
        <pt x="488" y="623" on="0"/>
        <pt x="519" y="589" on="1"/>
        <pt x="478" y="540" on="1"/>
        <pt x="421" y="604" on="0"/>
        <pt x="342" y="604" on="1"/>
        <pt x="278" y="604" on="0"/>
        <pt x="182" y="537" on="0"/>
        <pt x="129" y="414" on="0"/>
        <pt x="129" y="330" on="1"/>
        <pt x="129" y="246" on="0"/>
        <pt x="180" y="121" on="0"/>
        <pt x="275" y="53" on="0"/>
        <pt x="339" y="53" on="1"/>
        <pt x="385" y="53" on="0"/>
        <pt x="460" y="91" on="0"/>
        <pt x="495" y="129" on="1"/>
        <pt x="536" y="83" on="1"/>
        <pt x="496" y="36" on="0"/>
        <pt x="398" y="-12" on="0"/>
        <pt x="336" y="-12" on="1"/>
      </contour>
    </TTGlyph>
    <TTGlyph name="D" xMin="92" yMin="0" xMax="560" yMax="657">
      <contour>
        <pt x="92" y="657" on="1"/>
        <pt x="253" y="657" on="1"/>
        <pt x="403" y="657" on="0"/>
        <pt x="560" y="487" on="0"/>
        <pt x="560" y="331" on="1"/>
        <pt x="560" y="175" on="0"/>
        <pt x="403" y="0" on="0"/>
        <pt x="256" y="0" on="1"/>
        <pt x="92" y="0" on="1"/>
      </contour>
      <contour>
        <pt x="247" y="61" on="1"/>
        <pt x="365" y="61" on="0"/>
        <pt x="484" y="202" on="0"/>
        <pt x="484" y="331" on="1"/>
        <pt x="484" y="458" on="0"/>
        <pt x="365" y="596" on="0"/>
        <pt x="247" y="596" on="1"/>
        <pt x="166" y="596" on="1"/>
        <pt x="166" y="61" on="1"/>
      </contour>
    </TTGlyph>
    <TTGlyph name="E" xMin="92" yMin="0" xMax="475" yMax="657">
      <contour>
        <pt x="92" y="657" on="1"/>
        <pt x="465" y="657" on="1"/>
        <pt x="465" y="594" on="1"/>
        <pt x="166" y="594" on="1"/>
        <pt x="166" y="377" on="1"/>
        <pt x="418" y="377" on="1"/>
        <pt x="418" y="315" on="1"/>
        <pt x="166" y="315" on="1"/>
        <pt x="166" y="63" on="1"/>
        <pt x="475" y="63" on="1"/>
        <pt x="475" y="0" on="1"/>
        <pt x="92" y="0" on="1"/>
      </contour>
    </TTGlyph>
    <TTGlyph name="Eacute" xMin="92" yMin="0" xMax="475" yMax="863">
      <component glyphName="E" x="0" y="0" flags="0x0"/>
      <component glyphName="acutecomb.cap" x="284" y="0" flags="0x0"/>
    </TTGlyph>
    <TTGlyph name="Ebreve" xMin="92" yMin="0" xMax="475" yMax="842">
      <component glyphName="E" x="0" y="0" flags="0x0"/>
      <component glyphName="uni0306.cap" x="284" y="0" flags="0x0"/>
    </TTGlyph>
    <TTGlyph name="Ecircumflex" xMin="92" yMin="0" xMax="475" yMax="838">
      <component glyphName="E" x="0" y="0" flags="0x0"/>
      <component glyphName="uni0302.cap" x="284" y="0" flags="0x0"/>
    </TTGlyph>
    <TTGlyph name="Edieresis" xMin="92" yMin="0" xMax="475" yMax="809">
      <component glyphName="E" x="0" y="0" flags="0x0"/>
      <component glyphName="uni0308.cap" x="284" y="0" flags="0x0"/>
    </TTGlyph>
    <TTGlyph name="Egrave" xMin="92" yMin="0" xMax="475" yMax="863">
      <component glyphName="E" x="0" y="0" flags="0x0"/>
      <component glyphName="gravecomb.cap" x="284" y="0" flags="0x0"/>
    </TTGlyph>
    <TTGlyph name="Emacron" xMin="92" yMin="0" xMax="475" yMax="789">
      <component glyphName="E" x="0" y="0" flags="0x0"/>
      <component glyphName="uni0304.cap" x="284" y="0" flags="0x0"/>
    </TTGlyph>
    <TTGlyph name="Eogonek" xMin="92" yMin="-210" xMax="490" yMax="657">
      <contour>
        <pt x="374" y="-210" on="0"/>
        <pt x="322" y="-165" on="0"/>
        <pt x="322" y="-124" on="1"/>
        <pt x="322" y="-86" on="0"/>
        <pt x="365" y="-20" on="0"/>
        <pt x="396" y="0" on="1"/>
        <pt x="92" y="0" on="1"/>
        <pt x="92" y="657" on="1"/>
        <pt x="465" y="657" on="1"/>
        <pt x="465" y="594" on="1"/>
        <pt x="166" y="594" on="1"/>
        <pt x="166" y="377" on="1"/>
        <pt x="418" y="377" on="1"/>
        <pt x="418" y="315" on="1"/>
        <pt x="166" y="315" on="1"/>
        <pt x="166" y="63" on="1"/>
        <pt x="475" y="63" on="1"/>
        <pt x="475" y="0" on="1"/>
        <pt x="472" y="0" on="1"/>
        <pt x="437" y="-5" on="0"/>
        <pt x="380" y="-70" on="0"/>
        <pt x="380" y="-109" on="1"/>
        <pt x="380" y="-132" on="0"/>
        <pt x="408" y="-157" on="0"/>
        <pt x="428" y="-157" on="1"/>
        <pt x="450" y="-157" on="0"/>
        <pt x="469" y="-143" on="1"/>
        <pt x="490" y="-183" on="1"/>
        <pt x="476" y="-194" on="0"/>
        <pt x="433" y="-210" on="0"/>
        <pt x="414" y="-210" on="1"/>
      </contour>
    </TTGlyph>
    <TTGlyph name="Eth" xMin="34" yMin="0" xMax="582" yMax="657">
      <contour>
        <pt x="425" y="657" on="0"/>
        <pt x="582" y="487" on="0"/>
        <pt x="582" y="331" on="1"/>
        <pt x="582" y="175" on="0"/>
        <pt x="425" y="0" on="0"/>
        <pt x="278" y="0" on="1"/>
        <pt x="113" y="0" on="1"/>
        <pt x="113" y="323" on="1"/>
        <pt x="34" y="323" on="1"/>
        <pt x="34" y="364" on="1"/>
        <pt x="113" y="367" on="1"/>
        <pt x="113" y="657" on="1"/>
        <pt x="275" y="657" on="1"/>
      </contour>
      <contour>
        <pt x="387" y="61" on="0"/>
        <pt x="505" y="202" on="0"/>
        <pt x="505" y="331" on="1"/>
        <pt x="505" y="459" on="0"/>
        <pt x="387" y="596" on="0"/>
        <pt x="269" y="596" on="1"/>
        <pt x="187" y="596" on="1"/>
        <pt x="187" y="367" on="1"/>
        <pt x="340" y="367" on="1"/>
        <pt x="340" y="323" on="1"/>
        <pt x="187" y="323" on="1"/>
        <pt x="187" y="61" on="1"/>
        <pt x="269" y="61" on="1"/>
      </contour>
    </TTGlyph>
    <TTGlyph name="Euro" xMin="23" yMin="-12" xMax="487" yMax="650">
      <contour>
        <pt x="487" y="81" on="1"/>
        <pt x="416" y="-12" on="0"/>
        <pt x="316" y="-12" on="1"/>
        <pt x="226" y="-12" on="0"/>
        <pt x="103" y="120" on="0"/>
        <pt x="87" y="237" on="1"/>
        <pt x="23" y="237" on="1"/>
        <pt x="23" y="278" on="1"/>
        <pt x="83" y="282" on="1"/>
        <pt x="82" y="294" on="0"/>
        <pt x="82" y="319" on="1"/>
        <pt x="82" y="341" on="0"/>
        <pt x="83" y="351" on="1"/>
        <pt x="23" y="351" on="1"/>
        <pt x="23" y="392" on="1"/>
        <pt x="87" y="396" on="1"/>
        <pt x="103" y="515" on="0"/>
        <pt x="232" y="650" on="0"/>
        <pt x="330" y="650" on="1"/>
        <pt x="373" y="650" on="0"/>
        <pt x="451" y="607" on="0"/>
        <pt x="477" y="572" on="1"/>
        <pt x="434" y="531" on="1"/>
        <pt x="411" y="560" on="0"/>
        <pt x="359" y="591" on="0"/>
        <pt x="328" y="591" on="1"/>
        <pt x="260" y="591" on="0"/>
        <pt x="174" y="489" on="0"/>
        <pt x="162" y="396" on="1"/>
        <pt x="423" y="396" on="1"/>
        <pt x="423" y="351" on="1"/>
        <pt x="158" y="351" on="1"/>
        <pt x="157" y="341" on="0"/>
        <pt x="157" y="321" on="1"/>
        <pt x="158" y="282" on="1"/>
        <pt x="383" y="282" on="1"/>
        <pt x="383" y="237" on="1"/>
        <pt x="163" y="237" on="1"/>
        <pt x="176" y="147" on="0"/>
        <pt x="257" y="47" on="0"/>
        <pt x="320" y="47" on="1"/>
        <pt x="357" y="47" on="0"/>
        <pt x="416" y="83" on="0"/>
        <pt x="443" y="120" on="1"/>
      </contour>
    </TTGlyph>
    <TTGlyph name="Euro.001" xMin="23" yMin="-12" xMax="487" yMax="650">
      <contour>
        <pt x="487" y="81" on="1"/>
        <pt x="416" y="-12" on="0"/>
        <pt x="316" y="-12" on="1"/>
        <pt x="226" y="-12" on="0"/>
        <pt x="103" y="120" on="0"/>
        <pt x="87" y="237" on="1"/>
        <pt x="23" y="237" on="1"/>
        <pt x="23" y="278" on="1"/>
        <pt x="83" y="282" on="1"/>
        <pt x="82" y="294" on="0"/>
        <pt x="82" y="319" on="1"/>
        <pt x="82" y="341" on="0"/>
        <pt x="83" y="351" on="1"/>
        <pt x="23" y="351" on="1"/>
        <pt x="23" y="392" on="1"/>
        <pt x="87" y="396" on="1"/>
        <pt x="103" y="515" on="0"/>
        <pt x="232" y="650" on="0"/>
        <pt x="330" y="650" on="1"/>
        <pt x="373" y="650" on="0"/>
        <pt x="451" y="607" on="0"/>
        <pt x="477" y="572" on="1"/>
        <pt x="434" y="531" on="1"/>
        <pt x="411" y="560" on="0"/>
        <pt x="359" y="591" on="0"/>
        <pt x="328" y="591" on="1"/>
        <pt x="260" y="591" on="0"/>
        <pt x="174" y="489" on="0"/>
        <pt x="162" y="396" on="1"/>
        <pt x="423" y="396" on="1"/>
        <pt x="423" y="351" on="1"/>
        <pt x="158" y="351" on="1"/>
        <pt x="157" y="341" on="0"/>
        <pt x="157" y="321" on="1"/>
        <pt x="158" y="282" on="1"/>
        <pt x="383" y="282" on="1"/>
        <pt x="383" y="237" on="1"/>
        <pt x="163" y="237" on="1"/>
        <pt x="176" y="147" on="0"/>
        <pt x="257" y="47" on="0"/>
        <pt x="320" y="47" on="1"/>
        <pt x="357" y="47" on="0"/>
        <pt x="416" y="83" on="0"/>
        <pt x="443" y="120" on="1"/>
      </contour>
    </TTGlyph>
    <TTGlyph name="Euro.lat" xMin="23" yMin="-12" xMax="487" yMax="650">
      <contour>
        <pt x="487" y="81" on="1"/>
        <pt x="416" y="-12" on="0"/>
        <pt x="316" y="-12" on="1"/>
        <pt x="226" y="-12" on="0"/>
        <pt x="103" y="120" on="0"/>
        <pt x="87" y="237" on="1"/>
        <pt x="23" y="237" on="1"/>
        <pt x="23" y="278" on="1"/>
        <pt x="83" y="282" on="1"/>
        <pt x="82" y="294" on="0"/>
        <pt x="82" y="319" on="1"/>
        <pt x="82" y="341" on="0"/>
        <pt x="83" y="351" on="1"/>
        <pt x="23" y="351" on="1"/>
        <pt x="23" y="392" on="1"/>
        <pt x="87" y="396" on="1"/>
        <pt x="103" y="515" on="0"/>
        <pt x="232" y="650" on="0"/>
        <pt x="330" y="650" on="1"/>
        <pt x="373" y="650" on="0"/>
        <pt x="451" y="607" on="0"/>
        <pt x="477" y="572" on="1"/>
        <pt x="434" y="531" on="1"/>
        <pt x="411" y="560" on="0"/>
        <pt x="359" y="591" on="0"/>
        <pt x="328" y="591" on="1"/>
        <pt x="260" y="591" on="0"/>
        <pt x="174" y="489" on="0"/>
        <pt x="162" y="396" on="1"/>
        <pt x="423" y="396" on="1"/>
        <pt x="423" y="351" on="1"/>
        <pt x="158" y="351" on="1"/>
        <pt x="157" y="341" on="0"/>
        <pt x="157" y="321" on="1"/>
        <pt x="158" y="282" on="1"/>
        <pt x="383" y="282" on="1"/>
        <pt x="383" y="237" on="1"/>
        <pt x="163" y="237" on="1"/>
        <pt x="176" y="147" on="0"/>
        <pt x="257" y="47" on="0"/>
        <pt x="320" y="47" on="1"/>
        <pt x="357" y="47" on="0"/>
        <pt x="416" y="83" on="0"/>
        <pt x="443" y="120" on="1"/>
      </contour>
    </TTGlyph>
    <TTGlyph name="Euro.lat.001" xMin="23" yMin="-12" xMax="487" yMax="650">
      <contour>
        <pt x="487" y="81" on="1"/>
        <pt x="416" y="-12" on="0"/>
        <pt x="316" y="-12" on="1"/>
        <pt x="226" y="-12" on="0"/>
        <pt x="103" y="120" on="0"/>
        <pt x="87" y="237" on="1"/>
        <pt x="23" y="237" on="1"/>
        <pt x="23" y="278" on="1"/>
        <pt x="83" y="282" on="1"/>
        <pt x="82" y="294" on="0"/>
        <pt x="82" y="319" on="1"/>
        <pt x="82" y="341" on="0"/>
        <pt x="83" y="351" on="1"/>
        <pt x="23" y="351" on="1"/>
        <pt x="23" y="392" on="1"/>
        <pt x="87" y="396" on="1"/>
        <pt x="103" y="515" on="0"/>
        <pt x="232" y="650" on="0"/>
        <pt x="330" y="650" on="1"/>
        <pt x="373" y="650" on="0"/>
        <pt x="451" y="607" on="0"/>
        <pt x="477" y="572" on="1"/>
        <pt x="434" y="531" on="1"/>
        <pt x="411" y="560" on="0"/>
        <pt x="359" y="591" on="0"/>
        <pt x="328" y="591" on="1"/>
        <pt x="260" y="591" on="0"/>
        <pt x="174" y="489" on="0"/>
        <pt x="162" y="396" on="1"/>
        <pt x="423" y="396" on="1"/>
        <pt x="423" y="351" on="1"/>
        <pt x="158" y="351" on="1"/>
        <pt x="157" y="341" on="0"/>
        <pt x="157" y="321" on="1"/>
        <pt x="158" y="282" on="1"/>
        <pt x="383" y="282" on="1"/>
        <pt x="383" y="237" on="1"/>
        <pt x="163" y="237" on="1"/>
        <pt x="176" y="147" on="0"/>
        <pt x="257" y="47" on="0"/>
        <pt x="320" y="47" on="1"/>
        <pt x="357" y="47" on="0"/>
        <pt x="416" y="83" on="0"/>
        <pt x="443" y="120" on="1"/>
      </contour>
    </TTGlyph>
    <TTGlyph name="F" xMin="92" yMin="0" xMax="465" yMax="657">
      <contour>
        <pt x="92" y="657" on="1"/>
        <pt x="465" y="657" on="1"/>
        <pt x="465" y="594" on="1"/>
        <pt x="166" y="594" on="1"/>
        <pt x="166" y="362" on="1"/>
        <pt x="419" y="362" on="1"/>
        <pt x="419" y="300" on="1"/>
        <pt x="166" y="300" on="1"/>
        <pt x="166" y="0" on="1"/>
        <pt x="92" y="0" on="1"/>
      </contour>
    </TTGlyph>
    <TTGlyph name="G" xMin="52" yMin="-12" xMax="546" yMax="669">
      <contour>
        <pt x="259" y="-12" on="0"/>
        <pt x="126" y="70" on="0"/>
        <pt x="52" y="224" on="0"/>
        <pt x="52" y="328" on="1"/>
        <pt x="52" y="432" on="0"/>
        <pt x="128" y="586" on="0"/>
        <pt x="264" y="669" on="0"/>
        <pt x="351" y="669" on="1"/>
        <pt x="460" y="669" on="0"/>
        <pt x="538" y="589" on="1"/>
        <pt x="497" y="540" on="1"/>
        <pt x="437" y="604" on="0"/>
        <pt x="353" y="604" on="1"/>
        <pt x="285" y="604" on="0"/>
        <pt x="184" y="537" on="0"/>
        <pt x="129" y="414" on="0"/>
        <pt x="129" y="330" on="1"/>
        <pt x="129" y="202" on="0"/>
        <pt x="247" y="53" on="0"/>
        <pt x="352" y="53" on="1"/>
        <pt x="389" y="53" on="0"/>
        <pt x="457" y="76" on="0"/>
        <pt x="478" y="95" on="1"/>
        <pt x="478" y="274" on="1"/>
        <pt x="334" y="274" on="1"/>
        <pt x="334" y="336" on="1"/>
        <pt x="546" y="336" on="1"/>
        <pt x="546" y="64" on="1"/>
        <pt x="513" y="29" on="0"/>
        <pt x="409" y="-12" on="0"/>
        <pt x="345" y="-12" on="1"/>
      </contour>
    </TTGlyph>
    <TTGlyph name="Gcaron" xMin="52" yMin="-12" xMax="546" yMax="844">
      <component glyphName="G" x="0" y="0" flags="0x0"/>
      <component glyphName="uni030C.cap" x="351" y="0" flags="0x0"/>
    </TTGlyph>
    <TTGlyph name="Gdotaccent" xMin="52" yMin="-12" xMax="546" yMax="816">
      <component glyphName="G" x="0" y="0" flags="0x0"/>
      <component glyphName="uni0307.cap" x="351" y="0" flags="0x0"/>
    </TTGlyph>
    <TTGlyph name="H" xMin="92" yMin="0" xMax="557" yMax="657">
      <contour>
        <pt x="92" y="657" on="1"/>
        <pt x="166" y="657" on="1"/>
        <pt x="166" y="379" on="1"/>
        <pt x="483" y="379" on="1"/>
        <pt x="483" y="657" on="1"/>
        <pt x="557" y="657" on="1"/>
        <pt x="557" y="0" on="1"/>
        <pt x="483" y="0" on="1"/>
        <pt x="483" y="314" on="1"/>
        <pt x="166" y="314" on="1"/>
        <pt x="166" y="0" on="1"/>
        <pt x="92" y="0" on="1"/>
      </contour>
    </TTGlyph>
    <TTGlyph name="Hbar" xMin="33" yMin="0" xMax="650" yMax="657">
      <contour>
        <pt x="650" y="492" on="1"/>
        <pt x="577" y="492" on="1"/>
        <pt x="577" y="0" on="1"/>
        <pt x="503" y="0" on="1"/>
        <pt x="503" y="314" on="1"/>
        <pt x="186" y="314" on="1"/>
        <pt x="186" y="0" on="1"/>
        <pt x="112" y="0" on="1"/>
        <pt x="112" y="492" on="1"/>
        <pt x="33" y="492" on="1"/>
        <pt x="33" y="531" on="1"/>
        <pt x="112" y="536" on="1"/>
        <pt x="112" y="657" on="1"/>
        <pt x="186" y="657" on="1"/>
        <pt x="186" y="536" on="1"/>
        <pt x="503" y="536" on="1"/>
        <pt x="503" y="657" on="1"/>
        <pt x="577" y="657" on="1"/>
        <pt x="577" y="536" on="1"/>
        <pt x="650" y="536" on="1"/>
      </contour>
      <contour>
        <pt x="503" y="492" on="1"/>
        <pt x="186" y="492" on="1"/>
        <pt x="186" y="379" on="1"/>
        <pt x="503" y="379" on="1"/>
      </contour>
    </TTGlyph>
    <TTGlyph name="I" xMin="92" yMin="0" xMax="166" yMax="657">
      <contour>
        <pt x="92" y="657" on="1"/>
        <pt x="166" y="657" on="1"/>
        <pt x="166" y="0" on="1"/>
        <pt x="92" y="0" on="1"/>
      </contour>
    </TTGlyph>
    <TTGlyph name="Iacute" xMin="79" yMin="0" xMax="258" yMax="863">
      <component glyphName="I" x="0" y="0" flags="0x0"/>
      <component glyphName="acutecomb.cap" x="129" y="0" flags="0x0"/>
    </TTGlyph>
    <TTGlyph name="Icircumflex" xMin="-15" yMin="0" xMax="273" yMax="838">
      <component glyphName="I" x="0" y="0" flags="0x0"/>
      <component glyphName="uni0302.cap" x="129" y="0" flags="0x0"/>
    </TTGlyph>
    <TTGlyph name="Idieresis" xMin="-18" yMin="0" xMax="276" yMax="809">
      <component glyphName="I" x="0" y="0" flags="0x0"/>
      <component glyphName="uni0308.cap" x="129" y="0" flags="0x0"/>
    </TTGlyph>
    <TTGlyph name="Igrave" xMin="0" yMin="0" xMax="179" yMax="863">
      <component glyphName="I" x="0" y="0" flags="0x0"/>
      <component glyphName="gravecomb.cap" x="129" y="0" flags="0x0"/>
    </TTGlyph>
    <TTGlyph name="Imacron" xMin="-2" yMin="0" xMax="260" yMax="789">
      <component glyphName="I" x="0" y="0" flags="0x0"/>
      <component glyphName="uni0304.cap" x="129" y="0" flags="0x0"/>
    </TTGlyph>
    <TTGlyph name="J" xMin="34" yMin="-12" xMax="386" yMax="657">
      <contour>
        <pt x="91" y="-12" on="0"/>
        <pt x="34" y="91" on="1"/>
        <pt x="87" y="128" on="1"/>
        <pt x="109" y="89" on="0"/>
        <pt x="167" y="53" on="0"/>
        <pt x="204" y="53" on="1"/>
        <pt x="259" y="53" on="0"/>
        <pt x="312" y="122" on="0"/>
        <pt x="312" y="197" on="1"/>
        <pt x="312" y="657" on="1"/>
        <pt x="386" y="657" on="1"/>
        <pt x="386" y="190" on="1"/>
        <pt x="386" y="100" on="0"/>
        <pt x="300" y="-12" on="0"/>
        <pt x="210" y="-12" on="1"/>
      </contour>
    </TTGlyph>
    <TTGlyph name="K" xMin="92" yMin="0" xMax="568" yMax="657">
      <contour>
        <pt x="92" y="657" on="1"/>
        <pt x="166" y="657" on="1"/>
        <pt x="166" y="318" on="1"/>
        <pt x="168" y="318" on="1"/>
        <pt x="453" y="657" on="1"/>
        <pt x="537" y="657" on="1"/>
        <pt x="330" y="408" on="1"/>
        <pt x="568" y="0" on="1"/>
        <pt x="485" y="0" on="1"/>
        <pt x="284" y="351" on="1"/>
        <pt x="166" y="212" on="1"/>
        <pt x="166" y="0" on="1"/>
        <pt x="92" y="0" on="1"/>
      </contour>
    </TTGlyph>
    <TTGlyph name="L" xMin="92" yMin="0" xMax="456" yMax="657">
      <contour>
        <pt x="92" y="657" on="1"/>
        <pt x="166" y="657" on="1"/>
        <pt x="166" y="63" on="1"/>
        <pt x="456" y="63" on="1"/>
        <pt x="456" y="0" on="1"/>
        <pt x="92" y="0" on="1"/>
      </contour>
    </TTGlyph>
    <TTGlyph name="Lslash" xMin="-3" yMin="0" xMax="462" yMax="657">
      <contour>
        <pt x="462" y="63" on="1"/>
        <pt x="462" y="0" on="1"/>
        <pt x="97" y="0" on="1"/>
        <pt x="97" y="245" on="1"/>
        <pt x="24" y="204" on="1"/>
        <pt x="-3" y="251" on="1"/>
        <pt x="97" y="305" on="1"/>
        <pt x="97" y="657" on="1"/>
        <pt x="171" y="657" on="1"/>
        <pt x="171" y="339" on="1"/>
        <pt x="349" y="434" on="1"/>
        <pt x="376" y="386" on="1"/>
        <pt x="171" y="278" on="1"/>
        <pt x="171" y="63" on="1"/>
      </contour>
    </TTGlyph>
    <TTGlyph name="M" xMin="92" yMin="0" xMax="630" yMax="657">
      <contour>
        <pt x="92" y="657" on="1"/>
        <pt x="183" y="657" on="1"/>
        <pt x="312" y="297" on="1"/>
        <pt x="360" y="158" on="1"/>
        <pt x="364" y="158" on="1"/>
        <pt x="371" y="177" on="0"/>
        <pt x="383" y="215" on="1"/>
        <pt x="399" y="263" on="0"/>
        <pt x="411" y="297" on="1"/>
        <pt x="538" y="657" on="1"/>
        <pt x="630" y="657" on="1"/>
        <pt x="630" y="0" on="1"/>
        <pt x="561" y="0" on="1"/>
        <pt x="561" y="380" on="1"/>
        <pt x="561" y="440" on="0"/>
        <pt x="570" y="570" on="1"/>
        <pt x="566" y="570" on="1"/>
        <pt x="514" y="421" on="1"/>
        <pt x="386" y="68" on="1"/>
        <pt x="334" y="68" on="1"/>
        <pt x="205" y="421" on="1"/>
        <pt x="153" y="570" on="1"/>
        <pt x="149" y="570" on="1"/>
        <pt x="151" y="545" on="1"/>
        <pt x="159" y="439" on="0"/>
        <pt x="159" y="380" on="1"/>
        <pt x="159" y="0" on="1"/>
        <pt x="92" y="0" on="1"/>
      </contour>
    </TTGlyph>
    <TTGlyph name="N" xMin="92" yMin="0" xMax="552" yMax="657">
      <contour>
        <pt x="92" y="657" on="1"/>
        <pt x="168" y="657" on="1"/>
        <pt x="416" y="231" on="1"/>
        <pt x="488" y="96" on="1"/>
        <pt x="492" y="96" on="1"/>
        <pt x="489" y="140" on="1"/>
        <pt x="488" y="156" on="0"/>
        <pt x="482" y="259" on="0"/>
        <pt x="482" y="301" on="1"/>
        <pt x="482" y="657" on="1"/>
        <pt x="552" y="657" on="1"/>
        <pt x="552" y="0" on="1"/>
        <pt x="476" y="0" on="1"/>
        <pt x="228" y="426" on="1"/>
        <pt x="156" y="561" on="1"/>
        <pt x="152" y="561" on="1"/>
        <pt x="155" y="513" on="1"/>
        <pt x="162" y="426" on="0"/>
        <pt x="162" y="360" on="1"/>
        <pt x="162" y="0" on="1"/>
        <pt x="92" y="0" on="1"/>
      </contour>
    </TTGlyph>
    <TTGlyph name="Ntilde" xMin="92" yMin="0" xMax="552" yMax="839">
      <component glyphName="N" x="0" y="0" flags="0x0"/>
      <component glyphName="tildecomb.cap" x="326" y="0" flags="0x0"/>
    </TTGlyph>
    <TTGlyph name="O" xMin="52" yMin="-12" xMax="609" yMax="669">
      <contour>
        <pt x="249" y="-12" on="0"/>
        <pt x="123" y="72" on="0"/>
        <pt x="52" y="228" on="0"/>
        <pt x="52" y="331" on="1"/>
        <pt x="52" y="434" on="0"/>
        <pt x="123" y="587" on="0"/>
        <pt x="249" y="669" on="0"/>
        <pt x="331" y="669" on="1"/>
        <pt x="412" y="669" on="0"/>
        <pt x="538" y="587" on="0"/>
        <pt x="609" y="434" on="0"/>
        <pt x="609" y="331" on="1"/>
        <pt x="609" y="228" on="0"/>
        <pt x="538" y="72" on="0"/>
        <pt x="412" y="-12" on="0"/>
        <pt x="331" y="-12" on="1"/>
      </contour>
      <contour>
        <pt x="391" y="53" on="0"/>
        <pt x="482" y="122" on="0"/>
        <pt x="532" y="247" on="0"/>
        <pt x="532" y="331" on="1"/>
        <pt x="532" y="414" on="0"/>
        <pt x="482" y="537" on="0"/>
        <pt x="391" y="604" on="0"/>
        <pt x="331" y="604" on="1"/>
        <pt x="270" y="604" on="0"/>
        <pt x="179" y="537" on="0"/>
        <pt x="129" y="414" on="0"/>
        <pt x="129" y="331" on="1"/>
        <pt x="129" y="247" on="0"/>
        <pt x="179" y="121" on="0"/>
        <pt x="271" y="53" on="0"/>
        <pt x="331" y="53" on="1"/>
      </contour>
    </TTGlyph>
    <TTGlyph name="OE" xMin="52" yMin="0" xMax="795" yMax="657">
      <contour>
        <pt x="218" y="0" on="0"/>
        <pt x="52" y="176" on="0"/>
        <pt x="52" y="331" on="1"/>
        <pt x="52" y="486" on="0"/>
        <pt x="218" y="657" on="0"/>
        <pt x="371" y="657" on="1"/>
        <pt x="785" y="657" on="1"/>
        <pt x="785" y="594" on="1"/>
        <pt x="503" y="594" on="1"/>
        <pt x="503" y="377" on="1"/>
        <pt x="738" y="377" on="1"/>
        <pt x="738" y="315" on="1"/>
        <pt x="503" y="315" on="1"/>
        <pt x="503" y="63" on="1"/>
        <pt x="795" y="63" on="1"/>
        <pt x="795" y="0" on="1"/>
        <pt x="368" y="0" on="1"/>
      </contour>
      <contour>
        <pt x="429" y="61" on="1"/>
        <pt x="429" y="596" on="1"/>
        <pt x="377" y="596" on="1"/>
        <pt x="255" y="596" on="0"/>
        <pt x="129" y="459" on="0"/>
        <pt x="129" y="331" on="1"/>
        <pt x="129" y="203" on="0"/>
        <pt x="255" y="61" on="0"/>
        <pt x="377" y="61" on="1"/>
      </contour>
    </TTGlyph>
    <TTGlyph name="Oacute" xMin="52" yMin="-12" xMax="609" yMax="863">
      <component glyphName="O" x="0" y="0" flags="0x0"/>
      <component glyphName="acutecomb.cap" x="331" y="0" flags="0x0"/>
    </TTGlyph>
    <TTGlyph name="Obreve" xMin="52" yMin="-12" xMax="609" yMax="842">
      <component glyphName="O" x="0" y="0" flags="0x0"/>
      <component glyphName="uni0306.cap" x="331" y="0" flags="0x0"/>
    </TTGlyph>
    <TTGlyph name="Ocircumflex" xMin="52" yMin="-12" xMax="609" yMax="838">
      <component glyphName="O" x="0" y="0" flags="0x0"/>
      <component glyphName="uni0302.cap" x="331" y="0" flags="0x0"/>
    </TTGlyph>
    <TTGlyph name="Odieresis" xMin="52" yMin="-12" xMax="609" yMax="809">
      <component glyphName="O" x="0" y="0" flags="0x0"/>
      <component glyphName="uni0308.cap" x="331" y="0" flags="0x0"/>
    </TTGlyph>
    <TTGlyph name="Ograve" xMin="52" yMin="-12" xMax="609" yMax="863">
      <component glyphName="O" x="0" y="0" flags="0x0"/>
      <component glyphName="gravecomb.cap" x="331" y="0" flags="0x0"/>
    </TTGlyph>
    <TTGlyph name="Omacron" xMin="52" yMin="-12" xMax="609" yMax="789">
      <component glyphName="O" x="0" y="0" flags="0x0"/>
      <component glyphName="uni0304.cap" x="331" y="0" flags="0x0"/>
    </TTGlyph>
    <TTGlyph name="Oslash" xMin="51" yMin="-28" xMax="613" yMax="685">
      <contour>
        <pt x="545" y="564" on="1"/>
        <pt x="578" y="521" on="0"/>
        <pt x="612" y="402" on="0"/>
        <pt x="612" y="331" on="1"/>
        <pt x="612" y="228" on="0"/>
        <pt x="541" y="72" on="0"/>
        <pt x="415" y="-12" on="0"/>
        <pt x="333" y="-12" on="1"/>
        <pt x="282" y="-12" on="0"/>
        <pt x="192" y="23" on="0"/>
        <pt x="157" y="55" on="1"/>
        <pt x="93" y="-28" on="1"/>
        <pt x="51" y="4" on="1"/>
        <pt x="121" y="96" on="1"/>
        <pt x="55" y="187" on="0"/>
        <pt x="55" y="331" on="1"/>
        <pt x="55" y="434" on="0"/>
        <pt x="125" y="587" on="0"/>
        <pt x="252" y="669" on="0"/>
        <pt x="333" y="669" on="1"/>
        <pt x="385" y="669" on="0"/>
        <pt x="474" y="636" on="0"/>
        <pt x="509" y="604" on="1"/>
        <pt x="571" y="685" on="1"/>
        <pt x="613" y="653" on="1"/>
      </contour>
      <contour>
        <pt x="132" y="229" on="0"/>
        <pt x="169" y="158" on="1"/>
        <pt x="466" y="547" on="1"/>
        <pt x="414" y="604" on="0"/>
        <pt x="333" y="604" on="1"/>
        <pt x="273" y="604" on="0"/>
        <pt x="182" y="537" on="0"/>
        <pt x="132" y="414" on="0"/>
        <pt x="132" y="331" on="1"/>
      </contour>
      <contour>
        <pt x="535" y="433" on="0"/>
        <pt x="498" y="502" on="1"/>
        <pt x="200" y="112" on="1"/>
        <pt x="253" y="53" on="0"/>
        <pt x="333" y="53" on="1"/>
        <pt x="393" y="53" on="0"/>
        <pt x="485" y="121" on="0"/>
        <pt x="535" y="247" on="0"/>
        <pt x="535" y="331" on="1"/>
      </contour>
    </TTGlyph>
    <TTGlyph name="Otilde" xMin="52" yMin="-12" xMax="609" yMax="839">
      <component glyphName="O" x="0" y="0" flags="0x0"/>
      <component glyphName="tildecomb.cap" x="331" y="0" flags="0x0"/>
    </TTGlyph>
    <TTGlyph name="P" xMin="92" yMin="0" xMax="518" yMax="657">
      <contour>
        <pt x="92" y="657" on="1"/>
        <pt x="274" y="657" on="1"/>
        <pt x="391" y="657" on="0"/>
        <pt x="518" y="568" on="0"/>
        <pt x="518" y="466" on="1"/>
        <pt x="518" y="367" on="0"/>
        <pt x="390" y="266" on="0"/>
        <pt x="278" y="266" on="1"/>
        <pt x="166" y="266" on="1"/>
        <pt x="166" y="0" on="1"/>
        <pt x="92" y="0" on="1"/>
      </contour>
      <contour>
        <pt x="267" y="327" on="1"/>
        <pt x="358" y="327" on="0"/>
        <pt x="444" y="394" on="0"/>
        <pt x="444" y="466" on="1"/>
        <pt x="444" y="538" on="0"/>
        <pt x="356" y="597" on="0"/>
        <pt x="263" y="597" on="1"/>
        <pt x="166" y="597" on="1"/>
        <pt x="166" y="327" on="1"/>
      </contour>
    </TTGlyph>
    <TTGlyph name="Q" xMin="52" yMin="-163" xMax="620" yMax="669">
      <contour>
        <pt x="620" y="-149" on="1"/>
        <pt x="582" y="-163" on="0"/>
        <pt x="530" y="-163" on="1"/>
        <pt x="444" y="-163" on="0"/>
        <pt x="322" y="-79" on="0"/>
        <pt x="294" y="-10" on="1"/>
        <pt x="222" y="-1" on="0"/>
        <pt x="113" y="88" on="0"/>
        <pt x="52" y="236" on="0"/>
        <pt x="52" y="331" on="1"/>
        <pt x="52" y="434" on="0"/>
        <pt x="123" y="587" on="0"/>
        <pt x="249" y="669" on="0"/>
        <pt x="331" y="669" on="1"/>
        <pt x="412" y="669" on="0"/>
        <pt x="538" y="587" on="0"/>
        <pt x="609" y="434" on="0"/>
        <pt x="609" y="331" on="1"/>
        <pt x="609" y="237" on="0"/>
        <pt x="550" y="91" on="0"/>
        <pt x="444" y="2" on="0"/>
        <pt x="374" y="-9" on="1"/>
        <pt x="396" y="-54" on="0"/>
        <pt x="481" y="-100" on="0"/>
        <pt x="537" y="-100" on="1"/>
        <pt x="571" y="-100" on="0"/>
        <pt x="605" y="-90" on="1"/>
      </contour>
      <contour>
        <pt x="129" y="246" on="0"/>
        <pt x="179" y="119" on="0"/>
        <pt x="270" y="50" on="0"/>
        <pt x="331" y="50" on="1"/>
        <pt x="391" y="50" on="0"/>
        <pt x="482" y="119" on="0"/>
        <pt x="532" y="246" on="0"/>
        <pt x="532" y="331" on="1"/>
        <pt x="532" y="414" on="0"/>
        <pt x="482" y="537" on="0"/>
        <pt x="391" y="604" on="0"/>
        <pt x="331" y="604" on="1"/>
        <pt x="270" y="604" on="0"/>
        <pt x="179" y="537" on="0"/>
        <pt x="129" y="414" on="0"/>
        <pt x="129" y="331" on="1"/>
      </contour>
    </TTGlyph>
    <TTGlyph name="R" xMin="92" yMin="0" xMax="537" yMax="657">
      <contour>
        <pt x="453" y="0" on="1"/>
        <pt x="290" y="284" on="1"/>
        <pt x="166" y="284" on="1"/>
        <pt x="166" y="0" on="1"/>
        <pt x="92" y="0" on="1"/>
        <pt x="92" y="657" on="1"/>
        <pt x="293" y="657" on="1"/>
        <pt x="519" y="657" on="0"/>
        <pt x="519" y="475" on="1"/>
        <pt x="519" y="400" on="0"/>
        <pt x="438" y="306" on="0"/>
        <pt x="366" y="291" on="1"/>
        <pt x="537" y="0" on="1"/>
      </contour>
      <contour>
        <pt x="166" y="344" on="1"/>
        <pt x="281" y="344" on="1"/>
        <pt x="361" y="344" on="0"/>
        <pt x="445" y="410" on="0"/>
        <pt x="445" y="475" on="1"/>
        <pt x="445" y="540" on="0"/>
        <pt x="363" y="597" on="0"/>
        <pt x="281" y="597" on="1"/>
        <pt x="166" y="597" on="1"/>
      </contour>
    </TTGlyph>
    <TTGlyph name="S" xMin="43" yMin="-12" xMax="491" yMax="669">
      <contour>
        <pt x="203" y="-12" on="0"/>
        <pt x="86" y="40" on="0"/>
        <pt x="43" y="86" on="1"/>
        <pt x="88" y="137" on="1"/>
        <pt x="124" y="98" on="0"/>
        <pt x="220" y="53" on="0"/>
        <pt x="272" y="53" on="1"/>
        <pt x="339" y="53" on="0"/>
        <pt x="416" y="115" on="0"/>
        <pt x="416" y="167" on="1"/>
        <pt x="416" y="200" on="0"/>
        <pt x="388" y="244" on="0"/>
        <pt x="344" y="270" on="0"/>
        <pt x="304" y="288" on="1"/>
        <pt x="209" y="330" on="1"/>
        <pt x="151" y="355" on="0"/>
        <pt x="76" y="433" on="0"/>
        <pt x="76" y="498" on="1"/>
        <pt x="76" y="547" on="0"/>
        <pt x="128" y="625" on="0"/>
        <pt x="221" y="669" on="0"/>
        <pt x="278" y="669" on="1"/>
        <pt x="335" y="669" on="0"/>
        <pt x="434" y="625" on="0"/>
        <pt x="469" y="588" on="1"/>
        <pt x="429" y="541" on="1"/>
        <pt x="364" y="604" on="0"/>
        <pt x="278" y="604" on="1"/>
        <pt x="220" y="604" on="0"/>
        <pt x="150" y="548" on="0"/>
        <pt x="150" y="502" on="1"/>
        <pt x="150" y="471" on="0"/>
        <pt x="182" y="429" on="0"/>
        <pt x="224" y="405" on="0"/>
        <pt x="260" y="389" on="1"/>
        <pt x="355" y="347" on="1"/>
        <pt x="420" y="320" on="0"/>
        <pt x="491" y="240" on="0"/>
        <pt x="491" y="172" on="1"/>
        <pt x="491" y="120" on="0"/>
        <pt x="437" y="36" on="0"/>
        <pt x="337" y="-12" on="0"/>
        <pt x="271" y="-12" on="1"/>
      </contour>
    </TTGlyph>
    <TTGlyph name="Sacute" xMin="43" yMin="-12" xMax="491" yMax="863">
      <component glyphName="S" x="0" y="0" flags="0x0"/>
      <component glyphName="acutecomb.cap" x="276" y="0" flags="0x0"/>
    </TTGlyph>
    <TTGlyph name="Scaron" xMin="43" yMin="-12" xMax="491" yMax="844">
      <component glyphName="S" x="0" y="0" flags="0x0"/>
      <component glyphName="uni030C.cap" x="276" y="0" flags="0x0"/>
    </TTGlyph>
    <TTGlyph name="T" xMin="28" yMin="0" xMax="505" yMax="657">
      <contour>
        <pt x="230" y="594" on="1"/>
        <pt x="28" y="594" on="1"/>
        <pt x="28" y="657" on="1"/>
        <pt x="505" y="657" on="1"/>
        <pt x="505" y="594" on="1"/>
        <pt x="304" y="594" on="1"/>
        <pt x="304" y="0" on="1"/>
        <pt x="230" y="0" on="1"/>
      </contour>
    </TTGlyph>
    <TTGlyph name="Thorn" xMin="92" yMin="0" xMax="528" yMax="657">
      <contour>
        <pt x="92" y="657" on="1"/>
        <pt x="166" y="657" on="1"/>
        <pt x="166" y="545" on="1"/>
        <pt x="288" y="545" on="1"/>
        <pt x="403" y="545" on="0"/>
        <pt x="528" y="456" on="0"/>
        <pt x="528" y="354" on="1"/>
        <pt x="528" y="255" on="0"/>
        <pt x="400" y="154" on="0"/>
        <pt x="288" y="154" on="1"/>
        <pt x="166" y="154" on="1"/>
        <pt x="166" y="0" on="1"/>
        <pt x="92" y="0" on="1"/>
      </contour>
      <contour>
        <pt x="277" y="214" on="1"/>
        <pt x="368" y="214" on="0"/>
        <pt x="454" y="282" on="0"/>
        <pt x="454" y="354" on="1"/>
        <pt x="454" y="426" on="0"/>
        <pt x="369" y="484" on="0"/>
        <pt x="277" y="484" on="1"/>
        <pt x="166" y="484" on="1"/>
        <pt x="166" y="214" on="1"/>
      </contour>
    </TTGlyph>
    <TTGlyph name="U" xMin="89" yMin="-12" xMax="554" yMax="657">
      <contour>
        <pt x="215" y="-12" on="0"/>
        <pt x="89" y="119" on="0"/>
        <pt x="89" y="266" on="1"/>
        <pt x="89" y="657" on="1"/>
        <pt x="163" y="657" on="1"/>
        <pt x="163" y="266" on="1"/>
        <pt x="163" y="152" on="0"/>
        <pt x="249" y="53" on="0"/>
        <pt x="321" y="53" on="1"/>
        <pt x="395" y="53" on="0"/>
        <pt x="483" y="152" on="0"/>
        <pt x="483" y="266" on="1"/>
        <pt x="483" y="657" on="1"/>
        <pt x="554" y="657" on="1"/>
        <pt x="554" y="266" on="1"/>
        <pt x="554" y="119" on="0"/>
        <pt x="427" y="-12" on="0"/>
        <pt x="321" y="-12" on="1"/>
      </contour>
    </TTGlyph>
    <TTGlyph name="Uacute" xMin="89" yMin="-12" xMax="554" yMax="863">
      <component glyphName="U" x="0" y="0" flags="0x0"/>
      <component glyphName="acutecomb.cap" x="321" y="0" flags="0x0"/>
    </TTGlyph>
    <TTGlyph name="Ucircumflex" xMin="89" yMin="-12" xMax="554" yMax="838">
      <component glyphName="U" x="0" y="0" flags="0x0"/>
      <component glyphName="uni0302.cap" x="321" y="0" flags="0x0"/>
    </TTGlyph>
    <TTGlyph name="Udieresis" xMin="89" yMin="-12" xMax="554" yMax="809">
      <component glyphName="U" x="0" y="0" flags="0x0"/>
      <component glyphName="uni0308.cap" x="321" y="0" flags="0x0"/>
    </TTGlyph>
    <TTGlyph name="Ugrave" xMin="89" yMin="-12" xMax="554" yMax="863">
      <component glyphName="U" x="0" y="0" flags="0x0"/>
      <component glyphName="gravecomb.cap" x="321" y="0" flags="0x0"/>
    </TTGlyph>
    <TTGlyph name="Umacron" xMin="89" yMin="-12" xMax="554" yMax="789">
      <component glyphName="U" x="0" y="0" flags="0x0"/>
      <component glyphName="uni0304.cap" x="321" y="0" flags="0x0"/>
    </TTGlyph>
    <TTGlyph name="V" xMin="1" yMin="0" xMax="508" yMax="657">
      <contour>
        <pt x="1" y="657" on="1"/>
        <pt x="80" y="657" on="1"/>
        <pt x="190" y="295" on="1"/>
        <pt x="206" y="238" on="0"/>
        <pt x="213" y="217" on="1"/>
        <pt x="230" y="153" on="0"/>
        <pt x="254" y="77" on="1"/>
        <pt x="258" y="77" on="1"/>
        <pt x="269" y="110" on="0"/>
        <pt x="304" y="229" on="1"/>
        <pt x="323" y="295" on="1"/>
        <pt x="433" y="657" on="1"/>
        <pt x="508" y="657" on="1"/>
        <pt x="298" y="0" on="1"/>
        <pt x="213" y="0" on="1"/>
      </contour>
    </TTGlyph>
    <TTGlyph name="W" xMin="24" yMin="0" xMax="757" yMax="657">
      <contour>
        <pt x="24" y="657" on="1"/>
        <pt x="101" y="657" on="1"/>
        <pt x="173" y="292" on="1"/>
        <pt x="213" y="79" on="1"/>
        <pt x="217" y="79" on="1"/>
        <pt x="232" y="150" on="0"/>
        <pt x="264" y="292" on="1"/>
        <pt x="359" y="657" on="1"/>
        <pt x="427" y="657" on="1"/>
        <pt x="521" y="292" on="1"/>
        <pt x="533" y="238" on="0"/>
        <pt x="540" y="211" on="1"/>
        <pt x="570" y="79" on="1"/>
        <pt x="574" y="79" on="1"/>
        <pt x="585" y="138" on="1"/>
        <pt x="602" y="233" on="0"/>
        <pt x="613" y="292" on="1"/>
        <pt x="685" y="657" on="1"/>
        <pt x="757" y="657" on="1"/>
        <pt x="618" y="0" on="1"/>
        <pt x="530" y="0" on="1"/>
        <pt x="425" y="409" on="1"/>
        <pt x="421" y="428" on="0"/>
        <pt x="414" y="458" on="0"/>
        <pt x="412" y="469" on="1"/>
        <pt x="404" y="505" on="0"/>
        <pt x="393" y="558" on="1"/>
        <pt x="389" y="558" on="1"/>
        <pt x="385" y="539" on="0"/>
        <pt x="366" y="455" on="1"/>
        <pt x="355" y="409" on="1"/>
        <pt x="253" y="0" on="1"/>
        <pt x="166" y="0" on="1"/>
      </contour>
    </TTGlyph>
    <TTGlyph name="X" xMin="16" yMin="0" xMax="490" yMax="657">
      <contour>
        <pt x="208" y="340" on="1"/>
        <pt x="28" y="657" on="1"/>
        <pt x="110" y="657" on="1"/>
        <pt x="204" y="482" on="1"/>
        <pt x="256" y="388" on="1"/>
        <pt x="260" y="388" on="1"/>
        <pt x="285" y="441" on="0"/>
        <pt x="307" y="482" on="1"/>
        <pt x="399" y="657" on="1"/>
        <pt x="477" y="657" on="1"/>
        <pt x="297" y="336" on="1"/>
        <pt x="490" y="0" on="1"/>
        <pt x="408" y="0" on="1"/>
        <pt x="307" y="183" on="1"/>
        <pt x="293" y="211" on="0"/>
        <pt x="263" y="264" on="1"/>
        <pt x="261" y="268" on="0"/>
        <pt x="254" y="281" on="0"/>
        <pt x="250" y="288" on="1"/>
        <pt x="246" y="288" on="1"/>
        <pt x="231" y="256" on="0"/>
        <pt x="203" y="202" on="1"/>
        <pt x="193" y="183" on="1"/>
        <pt x="93" y="0" on="1"/>
        <pt x="16" y="0" on="1"/>
      </contour>
    </TTGlyph>
    <TTGlyph name="Y" xMin="0" yMin="0" xMax="469" yMax="657">
      <contour>
        <pt x="197" y="258" on="1"/>
        <pt x="0" y="657" on="1"/>
        <pt x="79" y="657" on="1"/>
        <pt x="167" y="466" on="1"/>
        <pt x="184" y="429" on="1"/>
        <pt x="224" y="342" on="0"/>
        <pt x="233" y="324" on="1"/>
        <pt x="237" y="324" on="1"/>
        <pt x="254" y="359" on="1"/>
        <pt x="296" y="447" on="0"/>
        <pt x="304" y="466" on="1"/>
        <pt x="392" y="657" on="1"/>
        <pt x="469" y="657" on="1"/>
        <pt x="271" y="258" on="1"/>
        <pt x="271" y="0" on="1"/>
        <pt x="197" y="0" on="1"/>
      </contour>
    </TTGlyph>
    <TTGlyph name="Yacute" xMin="0" yMin="0" xMax="469" yMax="863">
      <component glyphName="Y" x="0" y="0" flags="0x0"/>
      <component glyphName="acutecomb.cap" x="234" y="0" flags="0x0"/>
    </TTGlyph>
    <TTGlyph name="Ydieresis" xMin="0" yMin="0" xMax="469" yMax="809">
      <component glyphName="Y" x="0" y="0" flags="0x0"/>
      <component glyphName="uni0308.cap" x="234" y="0" flags="0x0"/>
    </TTGlyph>
    <TTGlyph name="Z" xMin="46" yMin="0" xMax="495" yMax="657">
      <contour>
        <pt x="46" y="44" on="1"/>
        <pt x="400" y="594" on="1"/>
        <pt x="78" y="594" on="1"/>
        <pt x="78" y="657" on="1"/>
        <pt x="492" y="657" on="1"/>
        <pt x="492" y="613" on="1"/>
        <pt x="138" y="63" on="1"/>
        <pt x="495" y="63" on="1"/>
        <pt x="495" y="0" on="1"/>
        <pt x="46" y="0" on="1"/>
      </contour>
    </TTGlyph>
    <TTGlyph name="ZWJ" xMin="-150" yMin="785" xMax="151" yMax="894">
      <contour>
        <pt x="-150" y="894" on="1"/>
        <pt x="151" y="894" on="1"/>
        <pt x="151" y="785" on="1"/>
        <pt x="117" y="785" on="1"/>
        <pt x="117" y="858" on="1"/>
        <pt x="-116" y="858" on="1"/>
        <pt x="-116" y="785" on="1"/>
        <pt x="-150" y="785" on="1"/>
      </contour>
    </TTGlyph>
    <TTGlyph name="ZWNJ" xMin="-104" yMin="767" xMax="103" yMax="984">
      <contour>
        <pt x="-104" y="792" on="1"/>
        <pt x="-26" y="875" on="1"/>
        <pt x="-104" y="957" on="1"/>
        <pt x="-81" y="984" on="1"/>
        <pt x="0" y="900" on="1"/>
        <pt x="79" y="982" on="1"/>
        <pt x="103" y="957" on="1"/>
        <pt x="24" y="875" on="1"/>
        <pt x="103" y="792" on="1"/>
        <pt x="79" y="768" on="1"/>
        <pt x="0" y="848" on="1"/>
        <pt x="-81" y="767" on="1"/>
      </contour>
    </TTGlyph>
    <TTGlyph name="Zcaron" xMin="46" yMin="0" xMax="495" yMax="844">
      <component glyphName="Z" x="0" y="0" flags="0x0"/>
      <component glyphName="uni030C.cap" x="280" y="0" flags="0x0"/>
    </TTGlyph>
    <TTGlyph name="a" xMin="53" yMin="-12" xMax="427" yMax="497">
      <contour>
        <pt x="133" y="-12" on="0"/>
        <pt x="53" y="60" on="0"/>
        <pt x="53" y="125" on="1"/>
        <pt x="53" y="204" on="0"/>
        <pt x="197" y="289" on="0"/>
        <pt x="355" y="306" on="1"/>
        <pt x="355" y="363" on="0"/>
        <pt x="308" y="436" on="0"/>
        <pt x="251" y="436" on="1"/>
        <pt x="182" y="436" on="0"/>
        <pt x="104" y="383" on="1"/>
        <pt x="75" y="433" on="1"/>
        <pt x="171" y="497" on="0"/>
        <pt x="263" y="497" on="1"/>
        <pt x="347" y="497" on="0"/>
        <pt x="427" y="392" on="0"/>
        <pt x="427" y="300" on="1"/>
        <pt x="427" y="0" on="1"/>
        <pt x="367" y="0" on="1"/>
        <pt x="361" y="59" on="1"/>
        <pt x="358" y="59" on="1"/>
        <pt x="272" y="-12" on="0"/>
        <pt x="195" y="-12" on="1"/>
      </contour>
      <contour>
        <pt x="249" y="47" on="0"/>
        <pt x="316" y="80" on="0"/>
        <pt x="355" y="115" on="1"/>
        <pt x="355" y="257" on="1"/>
        <pt x="230" y="242" on="0"/>
        <pt x="125" y="180" on="0"/>
        <pt x="125" y="129" on="1"/>
        <pt x="125" y="88" on="0"/>
        <pt x="175" y="47" on="0"/>
        <pt x="214" y="47" on="1"/>
      </contour>
    </TTGlyph>
    <TTGlyph name="a.sups" xMin="39" yMin="389" xMax="294" yMax="726">
      <contour>
        <pt x="92" y="389" on="0"/>
        <pt x="39" y="440" on="0"/>
        <pt x="39" y="483" on="1"/>
        <pt x="39" y="535" on="0"/>
        <pt x="134" y="591" on="0"/>
        <pt x="239" y="602" on="1"/>
        <pt x="238" y="639" on="0"/>
        <pt x="209" y="680" on="0"/>
        <pt x="175" y="680" on="1"/>
        <pt x="150" y="680" on="0"/>
        <pt x="95" y="659" on="0"/>
        <pt x="72" y="645" on="1"/>
        <pt x="51" y="684" on="1"/>
        <pt x="122" y="726" on="0"/>
        <pt x="183" y="726" on="1"/>
        <pt x="294" y="726" on="0"/>
        <pt x="294" y="595" on="1"/>
        <pt x="294" y="397" on="1"/>
        <pt x="250" y="397" on="1"/>
        <pt x="243" y="435" on="1"/>
        <pt x="239" y="435" on="1"/>
        <pt x="187" y="389" on="0"/>
        <pt x="136" y="389" on="1"/>
      </contour>
      <contour>
        <pt x="196" y="435" on="0"/>
        <pt x="239" y="477" on="1"/>
        <pt x="239" y="566" on="1"/>
        <pt x="161" y="557" on="0"/>
        <pt x="94" y="518" on="0"/>
        <pt x="94" y="487" on="1"/>
        <pt x="94" y="435" on="0"/>
        <pt x="153" y="435" on="1"/>
      </contour>
    </TTGlyph>
    <TTGlyph name="aacute" xMin="53" yMin="-12" xMax="427" yMax="774">
      <component glyphName="a" x="0" y="0" flags="0x0"/>
      <component glyphName="acutecomb" x="269" y="0" flags="0x0"/>
    </TTGlyph>
    <TTGlyph name="abreve" xMin="53" yMin="-12" xMax="427" yMax="728">
      <component glyphName="a" x="0" y="0" flags="0x0"/>
      <component glyphName="uni0306" x="269" y="0" flags="0x0"/>
    </TTGlyph>
    <TTGlyph name="acircumflex" xMin="53" yMin="-12" xMax="427" yMax="739">
      <component glyphName="a" x="0" y="0" flags="0x0"/>
      <component glyphName="uni0302" x="269" y="0" flags="0x0"/>
    </TTGlyph>
    <TTGlyph name="acute" xMin="214" yMin="573" xMax="406" yMax="774">
      <component glyphName="acutecomb" x="270" y="0" flags="0x0"/>
    </TTGlyph>
    <TTGlyph name="acutecomb" xMin="-56" yMin="573" xMax="136" yMax="774">
      <contour>
        <pt x="-56" y="610" on="1"/>
        <pt x="84" y="774" on="1"/>
        <pt x="136" y="726" on="1"/>
        <pt x="-18" y="573" on="1"/>
      </contour>
    </TTGlyph>
    <TTGlyph name="acutecomb.cap" xMin="-50" yMin="699" xMax="129" yMax="863">
      <contour>
        <pt x="-50" y="736" on="1"/>
        <pt x="87" y="863" on="1"/>
        <pt x="129" y="814" on="1"/>
        <pt x="-18" y="699" on="1"/>
      </contour>
    </TTGlyph>
    <TTGlyph name="adieresis" xMin="53" yMin="-12" xMax="427" yMax="683">
      <component glyphName="a" x="0" y="0" flags="0x0"/>
      <component glyphName="uni0308" x="269" y="0" flags="0x0"/>
    </TTGlyph>
    <TTGlyph name="ae" xMin="60" yMin="-12" xMax="747" yMax="497">
      <contour>
        <pt x="140" y="-12" on="0"/>
        <pt x="60" y="60" on="0"/>
        <pt x="60" y="124" on="1"/>
        <pt x="60" y="203" on="0"/>
        <pt x="203" y="289" on="0"/>
        <pt x="357" y="306" on="1"/>
        <pt x="357" y="436" on="0"/>
        <pt x="254" y="436" on="1"/>
        <pt x="189" y="436" on="0"/>
        <pt x="111" y="383" on="1"/>
        <pt x="82" y="433" on="1"/>
        <pt x="178" y="497" on="0"/>
        <pt x="262" y="497" on="1"/>
        <pt x="316" y="497" on="0"/>
        <pt x="386" y="440" on="0"/>
        <pt x="402" y="389" on="1"/>
        <pt x="430" y="440" on="0"/>
        <pt x="514" y="497" on="0"/>
        <pt x="563" y="497" on="1"/>
        <pt x="650" y="497" on="0"/>
        <pt x="747" y="375" on="0"/>
        <pt x="747" y="269" on="1"/>
        <pt x="747" y="244" on="0"/>
        <pt x="744" y="226" on="1"/>
        <pt x="425" y="226" on="1"/>
        <pt x="426" y="174" on="0"/>
        <pt x="467" y="93" on="0"/>
        <pt x="538" y="48" on="0"/>
        <pt x="581" y="48" on="1"/>
        <pt x="615" y="48" on="0"/>
        <pt x="671" y="69" on="0"/>
        <pt x="701" y="89" on="1"/>
        <pt x="728" y="38" on="1"/>
        <pt x="691" y="14" on="0"/>
        <pt x="619" y="-12" on="0"/>
        <pt x="572" y="-12" on="1"/>
        <pt x="516" y="-12" on="0"/>
        <pt x="433" y="39" on="0"/>
        <pt x="401" y="81" on="1"/>
        <pt x="353" y="36" on="0"/>
        <pt x="249" y="-12" on="0"/>
        <pt x="202" y="-12" on="1"/>
      </contour>
      <contour>
        <pt x="682" y="275" on="1"/>
        <pt x="682" y="354" on="0"/>
        <pt x="619" y="438" on="0"/>
        <pt x="562" y="438" on="1"/>
        <pt x="508" y="438" on="0"/>
        <pt x="432" y="348" on="0"/>
        <pt x="425" y="275" on="1"/>
      </contour>
      <contour>
        <pt x="257" y="47" on="0"/>
        <pt x="341" y="89" on="0"/>
        <pt x="376" y="126" on="1"/>
        <pt x="357" y="169" on="0"/>
        <pt x="357" y="232" on="1"/>
        <pt x="356" y="257" on="1"/>
        <pt x="237" y="242" on="0"/>
        <pt x="132" y="180" on="0"/>
        <pt x="132" y="129" on="1"/>
        <pt x="132" y="88" on="0"/>
        <pt x="182" y="47" on="0"/>
        <pt x="221" y="47" on="1"/>
      </contour>
    </TTGlyph>
    <TTGlyph name="agrave" xMin="53" yMin="-12" xMax="427" yMax="774">
      <component glyphName="a" x="0" y="0" flags="0x0"/>
      <component glyphName="gravecomb" x="269" y="0" flags="0x0"/>
    </TTGlyph>
    <TTGlyph name="alphalatin" xMin="49" yMin="-12" xMax="507" yMax="497">
      <contour>
        <pt x="156" y="-12" on="0"/>
        <pt x="49" y="122" on="0"/>
        <pt x="49" y="242" on="1"/>
        <pt x="49" y="318" on="0"/>
        <pt x="107" y="434" on="0"/>
        <pt x="204" y="497" on="0"/>
        <pt x="261" y="497" on="1"/>
        <pt x="301" y="497" on="0"/>
        <pt x="365" y="468" on="0"/>
        <pt x="399" y="437" on="1"/>
        <pt x="402" y="437" on="1"/>
        <pt x="408" y="485" on="1"/>
        <pt x="467" y="485" on="1"/>
        <pt x="467" y="80" on="1"/>
        <pt x="467" y="49" on="0"/>
        <pt x="487" y="49" on="1"/>
        <pt x="495" y="49" on="0"/>
        <pt x="504" y="51" on="1"/>
        <pt x="507" y="-6" on="1"/>
        <pt x="485" y="-12" on="0"/>
        <pt x="469" y="-12" on="1"/>
        <pt x="438" y="-12" on="0"/>
        <pt x="407" y="24" on="0"/>
        <pt x="403" y="60" on="1"/>
        <pt x="400" y="60" on="1"/>
        <pt x="369" y="29" on="0"/>
        <pt x="290" y="-12" on="0"/>
        <pt x="248" y="-12" on="1"/>
      </contour>
      <contour>
        <pt x="299" y="50" on="0"/>
        <pt x="362" y="84" on="0"/>
        <pt x="395" y="119" on="1"/>
        <pt x="395" y="382" on="1"/>
        <pt x="363" y="410" on="0"/>
        <pt x="303" y="435" on="0"/>
        <pt x="271" y="435" on="1"/>
        <pt x="230" y="435" on="0"/>
        <pt x="163" y="385" on="0"/>
        <pt x="124" y="297" on="0"/>
        <pt x="124" y="242" on="1"/>
        <pt x="124" y="152" on="0"/>
        <pt x="197" y="50" on="0"/>
        <pt x="264" y="50" on="1"/>
      </contour>
    </TTGlyph>
    <TTGlyph name="amacron" xMin="53" yMin="-12" xMax="427" yMax="654">
      <component glyphName="a" x="0" y="0" flags="0x0"/>
      <component glyphName="uni0304" x="269" y="0" flags="0x0"/>
    </TTGlyph>
    <TTGlyph name="ampersand" xMin="33" yMin="-12" xMax="586" yMax="669">
      <contour>
        <pt x="566" y="-12" on="1"/>
        <pt x="495" y="8" on="0"/>
        <pt x="418" y="65" on="1"/>
        <pt x="334" y="-12" on="0"/>
        <pt x="231" y="-12" on="1"/>
        <pt x="174" y="-12" on="0"/>
        <pt x="84" y="34" on="0"/>
        <pt x="33" y="117" on="0"/>
        <pt x="33" y="169" on="1"/>
        <pt x="33" y="229" on="0"/>
        <pt x="102" y="316" on="0"/>
        <pt x="164" y="360" on="1"/>
        <pt x="120" y="448" on="0"/>
        <pt x="120" y="515" on="1"/>
        <pt x="120" y="581" on="0"/>
        <pt x="203" y="669" on="0"/>
        <pt x="268" y="669" on="1"/>
        <pt x="326" y="669" on="0"/>
        <pt x="392" y="599" on="0"/>
        <pt x="392" y="542" on="1"/>
        <pt x="392" y="502" on="0"/>
        <pt x="351" y="434" on="0"/>
        <pt x="292" y="381" on="0"/>
        <pt x="243" y="346" on="1"/>
        <pt x="275" y="294" on="0"/>
        <pt x="364" y="194" on="0"/>
        <pt x="414" y="152" on="1"/>
        <pt x="478" y="235" on="0"/>
        <pt x="509" y="352" on="1"/>
        <pt x="577" y="352" on="1"/>
        <pt x="538" y="214" on="0"/>
        <pt x="462" y="115" on="1"/>
        <pt x="530" y="66" on="0"/>
        <pt x="586" y="49" on="1"/>
      </contour>
      <contour>
        <pt x="184" y="463" on="0"/>
        <pt x="216" y="396" on="1"/>
        <pt x="273" y="435" on="0"/>
        <pt x="332" y="499" on="0"/>
        <pt x="332" y="540" on="1"/>
        <pt x="332" y="572" on="0"/>
        <pt x="300" y="616" on="0"/>
        <pt x="268" y="616" on="1"/>
        <pt x="230" y="616" on="0"/>
        <pt x="184" y="560" on="0"/>
        <pt x="184" y="517" on="1"/>
      </contour>
      <contour>
        <pt x="104" y="117" on="0"/>
        <pt x="182" y="47" on="0"/>
        <pt x="239" y="47" on="1"/>
        <pt x="306" y="47" on="0"/>
        <pt x="370" y="104" on="1"/>
        <pt x="261" y="199" on="0"/>
        <pt x="193" y="309" on="1"/>
        <pt x="150" y="275" on="0"/>
        <pt x="104" y="211" on="0"/>
        <pt x="104" y="173" on="1"/>
      </contour>
    </TTGlyph>
    <TTGlyph name="ampersand.lat" xMin="33" yMin="-12" xMax="586" yMax="669">
      <contour>
        <pt x="566" y="-12" on="1"/>
        <pt x="495" y="8" on="0"/>
        <pt x="418" y="65" on="1"/>
        <pt x="334" y="-12" on="0"/>
        <pt x="231" y="-12" on="1"/>
        <pt x="174" y="-12" on="0"/>
        <pt x="84" y="34" on="0"/>
        <pt x="33" y="117" on="0"/>
        <pt x="33" y="169" on="1"/>
        <pt x="33" y="229" on="0"/>
        <pt x="102" y="316" on="0"/>
        <pt x="164" y="360" on="1"/>
        <pt x="120" y="448" on="0"/>
        <pt x="120" y="515" on="1"/>
        <pt x="120" y="581" on="0"/>
        <pt x="203" y="669" on="0"/>
        <pt x="268" y="669" on="1"/>
        <pt x="326" y="669" on="0"/>
        <pt x="392" y="599" on="0"/>
        <pt x="392" y="542" on="1"/>
        <pt x="392" y="502" on="0"/>
        <pt x="351" y="434" on="0"/>
        <pt x="292" y="381" on="0"/>
        <pt x="243" y="346" on="1"/>
        <pt x="275" y="294" on="0"/>
        <pt x="364" y="194" on="0"/>
        <pt x="414" y="152" on="1"/>
        <pt x="478" y="235" on="0"/>
        <pt x="509" y="352" on="1"/>
        <pt x="577" y="352" on="1"/>
        <pt x="538" y="214" on="0"/>
        <pt x="462" y="115" on="1"/>
        <pt x="530" y="66" on="0"/>
        <pt x="586" y="49" on="1"/>
      </contour>
      <contour>
        <pt x="184" y="463" on="0"/>
        <pt x="216" y="396" on="1"/>
        <pt x="273" y="435" on="0"/>
        <pt x="332" y="499" on="0"/>
        <pt x="332" y="540" on="1"/>
        <pt x="332" y="572" on="0"/>
        <pt x="300" y="616" on="0"/>
        <pt x="268" y="616" on="1"/>
        <pt x="230" y="616" on="0"/>
        <pt x="184" y="560" on="0"/>
        <pt x="184" y="517" on="1"/>
      </contour>
      <contour>
        <pt x="104" y="117" on="0"/>
        <pt x="182" y="47" on="0"/>
        <pt x="239" y="47" on="1"/>
        <pt x="306" y="47" on="0"/>
        <pt x="370" y="104" on="1"/>
        <pt x="261" y="199" on="0"/>
        <pt x="193" y="309" on="1"/>
        <pt x="150" y="275" on="0"/>
        <pt x="104" y="211" on="0"/>
        <pt x="104" y="173" on="1"/>
      </contour>
    </TTGlyph>
    <TTGlyph name="approxequal" xMin="37" yMin="153" xMax="455" yMax="507">
      <component glyphName="asciitilde" x="0" y="106" flags="0x4"/>
      <component glyphName="asciitilde" x="0" y="-106" flags="0x4"/>
    </TTGlyph>
    <TTGlyph name="aring" xMin="53" yMin="-12" xMax="427" yMax="748">
      <component glyphName="a" x="0" y="0" flags="0x0"/>
      <component glyphName="uni030A" x="269" y="0" flags="0x0"/>
    </TTGlyph>
    <TTGlyph name="asciicircum" xMin="61" yMin="285" xMax="431" yMax="670">
      <contour>
        <pt x="213" y="670" on="1"/>
        <pt x="279" y="670" on="1"/>
        <pt x="431" y="285" on="1"/>
        <pt x="367" y="285" on="1"/>
        <pt x="248" y="601" on="1"/>
        <pt x="244" y="601" on="1"/>
        <pt x="195" y="468" on="1"/>
        <pt x="126" y="285" on="1"/>
        <pt x="61" y="285" on="1"/>
      </contour>
    </TTGlyph>
    <TTGlyph name="asciicircum.lat" xMin="61" yMin="285" xMax="431" yMax="670">
      <contour>
        <pt x="213" y="670" on="1"/>
        <pt x="279" y="670" on="1"/>
        <pt x="431" y="285" on="1"/>
        <pt x="367" y="285" on="1"/>
        <pt x="248" y="601" on="1"/>
        <pt x="244" y="601" on="1"/>
        <pt x="195" y="468" on="1"/>
        <pt x="126" y="285" on="1"/>
        <pt x="61" y="285" on="1"/>
      </contour>
    </TTGlyph>
    <TTGlyph name="asciitilde" xMin="37" yMin="259" xMax="455" yMax="401">
      <contour>
        <pt x="306" y="259" on="0"/>
        <pt x="260" y="284" on="0"/>
        <pt x="231" y="307" on="1"/>
        <pt x="208" y="326" on="0"/>
        <pt x="174" y="345" on="0"/>
        <pt x="156" y="345" on="1"/>
        <pt x="112" y="345" on="0"/>
        <pt x="79" y="284" on="1"/>
        <pt x="37" y="312" on="1"/>
        <pt x="62" y="357" on="0"/>
        <pt x="125" y="401" on="0"/>
        <pt x="158" y="401" on="1"/>
        <pt x="186" y="401" on="0"/>
        <pt x="231" y="377" on="0"/>
        <pt x="262" y="353" on="1"/>
        <pt x="286" y="334" on="0"/>
        <pt x="319" y="315" on="0"/>
        <pt x="336" y="315" on="1"/>
        <pt x="382" y="315" on="0"/>
        <pt x="413" y="376" on="1"/>
        <pt x="455" y="346" on="1"/>
        <pt x="430" y="302" on="0"/>
        <pt x="367" y="259" on="0"/>
        <pt x="334" y="259" on="1"/>
      </contour>
    </TTGlyph>
    <TTGlyph name="asterisk" xMin="61" yMin="431" xMax="351" yMax="712">
      <contour>
        <pt x="100" y="457" on="1"/>
        <pt x="156" y="550" on="1"/>
        <pt x="61" y="589" on="1"/>
        <pt x="75" y="631" on="1"/>
        <pt x="175" y="605" on="1"/>
        <pt x="184" y="712" on="1"/>
        <pt x="228" y="712" on="1"/>
        <pt x="237" y="607" on="1"/>
        <pt x="337" y="631" on="1"/>
        <pt x="351" y="589" on="1"/>
        <pt x="256" y="550" on="1"/>
        <pt x="312" y="457" on="1"/>
        <pt x="275" y="431" on="1"/>
        <pt x="207" y="516" on="1"/>
        <pt x="137" y="431" on="1"/>
      </contour>
    </TTGlyph>
    <TTGlyph name="asterisk.lat" xMin="61" yMin="431" xMax="351" yMax="712">
      <contour>
        <pt x="100" y="457" on="1"/>
        <pt x="156" y="550" on="1"/>
        <pt x="61" y="589" on="1"/>
        <pt x="75" y="631" on="1"/>
        <pt x="175" y="605" on="1"/>
        <pt x="184" y="712" on="1"/>
        <pt x="228" y="712" on="1"/>
        <pt x="237" y="607" on="1"/>
        <pt x="337" y="631" on="1"/>
        <pt x="351" y="589" on="1"/>
        <pt x="256" y="550" on="1"/>
        <pt x="312" y="457" on="1"/>
        <pt x="275" y="431" on="1"/>
        <pt x="207" y="516" on="1"/>
        <pt x="137" y="431" on="1"/>
      </contour>
    </TTGlyph>
    <TTGlyph name="at" xMin="51" yMin="-153" xMax="788" yMax="643">
      <contour>
        <pt x="300" y="-153" on="0"/>
        <pt x="142" y="-70" on="0"/>
        <pt x="51" y="91" on="0"/>
        <pt x="51" y="203" on="1"/>
        <pt x="51" y="332" on="0"/>
        <pt x="164" y="533" on="0"/>
        <pt x="353" y="643" on="0"/>
        <pt x="463" y="643" on="1"/>
        <pt x="562" y="643" on="0"/>
        <pt x="709" y="561" on="0"/>
        <pt x="788" y="413" on="0"/>
        <pt x="788" y="315" on="1"/>
        <pt x="788" y="233" on="0"/>
        <pt x="729" y="113" on="0"/>
        <pt x="639" y="51" on="0"/>
        <pt x="592" y="51" on="1"/>
        <pt x="550" y="51" on="0"/>
        <pt x="494" y="90" on="0"/>
        <pt x="490" y="127" on="1"/>
        <pt x="488" y="127" on="1"/>
        <pt x="462" y="96" on="0"/>
        <pt x="399" y="58" on="0"/>
        <pt x="367" y="58" on="1"/>
        <pt x="315" y="58" on="0"/>
        <pt x="247" y="132" on="0"/>
        <pt x="247" y="198" on="1"/>
        <pt x="247" y="251" on="0"/>
        <pt x="295" y="359" on="0"/>
        <pt x="382" y="428" on="0"/>
        <pt x="438" y="428" on="1"/>
        <pt x="491" y="428" on="0"/>
        <pt x="519" y="380" on="1"/>
        <pt x="521" y="380" on="1"/>
        <pt x="531" y="420" on="1"/>
        <pt x="581" y="420" on="1"/>
        <pt x="543" y="223" on="1"/>
        <pt x="535" y="189" on="0"/>
        <pt x="535" y="168" on="1"/>
        <pt x="535" y="102" on="0"/>
        <pt x="599" y="102" on="1"/>
        <pt x="631" y="102" on="0"/>
        <pt x="694" y="153" on="0"/>
        <pt x="735" y="249" on="0"/>
        <pt x="735" y="312" on="1"/>
        <pt x="735" y="395" on="0"/>
        <pt x="670" y="522" on="0"/>
        <pt x="545" y="593" on="0"/>
        <pt x="457" y="593" on="1"/>
        <pt x="367" y="593" on="0"/>
        <pt x="205" y="496" on="0"/>
        <pt x="106" y="319" on="0"/>
        <pt x="106" y="206" on="1"/>
        <pt x="106" y="111" on="0"/>
        <pt x="182" y="-29" on="0"/>
        <pt x="318" y="-103" on="0"/>
        <pt x="404" y="-103" on="1"/>
        <pt x="490" y="-103" on="0"/>
        <pt x="568" y="-57" on="1"/>
        <pt x="588" y="-101" on="1"/>
        <pt x="503" y="-153" on="0"/>
        <pt x="399" y="-153" on="1"/>
      </contour>
      <contour>
        <pt x="424" y="109" on="0"/>
        <pt x="476" y="170" on="1"/>
        <pt x="505" y="333" on="1"/>
        <pt x="490" y="357" on="0"/>
        <pt x="459" y="376" on="0"/>
        <pt x="438" y="376" on="1"/>
        <pt x="400" y="376" on="0"/>
        <pt x="340" y="323" on="0"/>
        <pt x="307" y="242" on="0"/>
        <pt x="307" y="202" on="1"/>
        <pt x="307" y="154" on="0"/>
        <pt x="346" y="109" on="0"/>
        <pt x="379" y="109" on="1"/>
      </contour>
    </TTGlyph>
    <TTGlyph name="at.lat" xMin="51" yMin="-153" xMax="788" yMax="643">
      <contour>
        <pt x="300" y="-153" on="0"/>
        <pt x="142" y="-70" on="0"/>
        <pt x="51" y="91" on="0"/>
        <pt x="51" y="203" on="1"/>
        <pt x="51" y="332" on="0"/>
        <pt x="164" y="533" on="0"/>
        <pt x="353" y="643" on="0"/>
        <pt x="463" y="643" on="1"/>
        <pt x="562" y="643" on="0"/>
        <pt x="709" y="561" on="0"/>
        <pt x="788" y="413" on="0"/>
        <pt x="788" y="315" on="1"/>
        <pt x="788" y="233" on="0"/>
        <pt x="729" y="113" on="0"/>
        <pt x="639" y="51" on="0"/>
        <pt x="592" y="51" on="1"/>
        <pt x="550" y="51" on="0"/>
        <pt x="494" y="90" on="0"/>
        <pt x="490" y="127" on="1"/>
        <pt x="488" y="127" on="1"/>
        <pt x="462" y="96" on="0"/>
        <pt x="399" y="58" on="0"/>
        <pt x="367" y="58" on="1"/>
        <pt x="315" y="58" on="0"/>
        <pt x="247" y="132" on="0"/>
        <pt x="247" y="198" on="1"/>
        <pt x="247" y="251" on="0"/>
        <pt x="295" y="359" on="0"/>
        <pt x="382" y="428" on="0"/>
        <pt x="438" y="428" on="1"/>
        <pt x="491" y="428" on="0"/>
        <pt x="519" y="380" on="1"/>
        <pt x="521" y="380" on="1"/>
        <pt x="531" y="420" on="1"/>
        <pt x="581" y="420" on="1"/>
        <pt x="543" y="223" on="1"/>
        <pt x="535" y="189" on="0"/>
        <pt x="535" y="168" on="1"/>
        <pt x="535" y="102" on="0"/>
        <pt x="599" y="102" on="1"/>
        <pt x="631" y="102" on="0"/>
        <pt x="694" y="153" on="0"/>
        <pt x="735" y="249" on="0"/>
        <pt x="735" y="312" on="1"/>
        <pt x="735" y="395" on="0"/>
        <pt x="670" y="522" on="0"/>
        <pt x="545" y="593" on="0"/>
        <pt x="457" y="593" on="1"/>
        <pt x="367" y="593" on="0"/>
        <pt x="205" y="496" on="0"/>
        <pt x="106" y="319" on="0"/>
        <pt x="106" y="206" on="1"/>
        <pt x="106" y="111" on="0"/>
        <pt x="182" y="-29" on="0"/>
        <pt x="318" y="-103" on="0"/>
        <pt x="404" y="-103" on="1"/>
        <pt x="490" y="-103" on="0"/>
        <pt x="568" y="-57" on="1"/>
        <pt x="588" y="-101" on="1"/>
        <pt x="503" y="-153" on="0"/>
        <pt x="399" y="-153" on="1"/>
      </contour>
      <contour>
        <pt x="424" y="109" on="0"/>
        <pt x="476" y="170" on="1"/>
        <pt x="505" y="333" on="1"/>
        <pt x="490" y="357" on="0"/>
        <pt x="459" y="376" on="0"/>
        <pt x="438" y="376" on="1"/>
        <pt x="400" y="376" on="0"/>
        <pt x="340" y="323" on="0"/>
        <pt x="307" y="242" on="0"/>
        <pt x="307" y="202" on="1"/>
        <pt x="307" y="154" on="0"/>
        <pt x="346" y="109" on="0"/>
        <pt x="379" y="109" on="1"/>
      </contour>
    </TTGlyph>
    <TTGlyph name="atilde" xMin="53" yMin="-12" xMax="440" yMax="718">
      <component glyphName="a" x="0" y="0" flags="0x0"/>
      <component glyphName="tildecomb" x="269" y="0" flags="0x0"/>
    </TTGlyph>
    <TTGlyph name="b" xMin="85" yMin="-12" xMax="503" yMax="714">
      <contour>
        <pt x="259" y="-12" on="0"/>
        <pt x="185" y="21" on="0"/>
        <pt x="153" y="50" on="1"/>
        <pt x="150" y="50" on="1"/>
        <pt x="143" y="0" on="1"/>
        <pt x="85" y="0" on="1"/>
        <pt x="85" y="714" on="1"/>
        <pt x="157" y="714" on="1"/>
        <pt x="157" y="516" on="1"/>
        <pt x="155" y="427" on="1"/>
        <pt x="236" y="497" on="0"/>
        <pt x="311" y="497" on="1"/>
        <pt x="404" y="497" on="0"/>
        <pt x="503" y="364" on="0"/>
        <pt x="503" y="250" on="1"/>
        <pt x="503" y="170" on="0"/>
        <pt x="445" y="51" on="0"/>
        <pt x="349" y="-12" on="0"/>
        <pt x="293" y="-12" on="1"/>
      </contour>
      <contour>
        <pt x="323" y="50" on="0"/>
        <pt x="390" y="99" on="0"/>
        <pt x="428" y="189" on="0"/>
        <pt x="428" y="249" on="1"/>
        <pt x="428" y="336" on="0"/>
        <pt x="363" y="435" on="0"/>
        <pt x="294" y="435" on="1"/>
        <pt x="232" y="435" on="0"/>
        <pt x="157" y="365" on="1"/>
        <pt x="157" y="103" on="1"/>
        <pt x="189" y="76" on="0"/>
        <pt x="254" y="50" on="0"/>
        <pt x="281" y="50" on="1"/>
      </contour>
    </TTGlyph>
    <TTGlyph name="backslash" xMin="12" yMin="-160" xMax="342" yMax="710">
      <contour>
        <pt x="12" y="710" on="1"/>
        <pt x="66" y="710" on="1"/>
        <pt x="342" y="-160" on="1"/>
        <pt x="288" y="-160" on="1"/>
      </contour>
    </TTGlyph>
    <TTGlyph name="backslash.lat" xMin="12" yMin="-160" xMax="342" yMax="710">
      <contour>
        <pt x="12" y="710" on="1"/>
        <pt x="66" y="710" on="1"/>
        <pt x="342" y="-160" on="1"/>
        <pt x="288" y="-160" on="1"/>
      </contour>
    </TTGlyph>
    <TTGlyph name="bar" xMin="92" yMin="-250" xMax="145" yMax="750">
      <contour>
        <pt x="92" y="750" on="1"/>
        <pt x="145" y="750" on="1"/>
        <pt x="145" y="-250" on="1"/>
        <pt x="92" y="-250" on="1"/>
      </contour>
    </TTGlyph>
    <TTGlyph name="braceleft" xMin="34" yMin="-152" xMax="269" yMax="708">
      <contour>
        <pt x="166" y="-152" on="0"/>
        <pt x="112" y="-95" on="0"/>
        <pt x="112" y="-20" on="1"/>
        <pt x="112" y="18" on="0"/>
        <pt x="116" y="82" on="1"/>
        <pt x="120" y="142" on="0"/>
        <pt x="120" y="176" on="1"/>
        <pt x="120" y="210" on="0"/>
        <pt x="81" y="254" on="0"/>
        <pt x="34" y="255" on="1"/>
        <pt x="34" y="301" on="1"/>
        <pt x="81" y="302" on="0"/>
        <pt x="120" y="346" on="0"/>
        <pt x="120" y="379" on="1"/>
        <pt x="120" y="413" on="0"/>
        <pt x="116" y="475" on="1"/>
        <pt x="112" y="539" on="0"/>
        <pt x="112" y="576" on="1"/>
        <pt x="112" y="651" on="0"/>
        <pt x="166" y="708" on="0"/>
        <pt x="227" y="708" on="1"/>
        <pt x="269" y="708" on="1"/>
        <pt x="269" y="666" on="1"/>
        <pt x="242" y="666" on="1"/>
        <pt x="201" y="666" on="0"/>
        <pt x="171" y="622" on="0"/>
        <pt x="171" y="571" on="1"/>
        <pt x="171" y="529" on="0"/>
        <pt x="174" y="485" on="1"/>
        <pt x="174" y="472" on="0"/>
        <pt x="177" y="412" on="0"/>
        <pt x="177" y="387" on="1"/>
        <pt x="177" y="339" on="0"/>
        <pt x="151" y="289" on="0"/>
        <pt x="119" y="280" on="1"/>
        <pt x="119" y="276" on="1"/>
        <pt x="150" y="267" on="0"/>
        <pt x="177" y="216" on="0"/>
        <pt x="177" y="169" on="1"/>
        <pt x="177" y="144" on="0"/>
        <pt x="174" y="84" on="0"/>
        <pt x="174" y="71" on="1"/>
        <pt x="171" y="28" on="0"/>
        <pt x="171" y="-15" on="1"/>
        <pt x="171" y="-66" on="0"/>
        <pt x="201" y="-110" on="0"/>
        <pt x="242" y="-110" on="1"/>
        <pt x="269" y="-110" on="1"/>
        <pt x="269" y="-152" on="1"/>
        <pt x="227" y="-152" on="1"/>
      </contour>
    </TTGlyph>
    <TTGlyph name="braceleft.lat" xMin="34" yMin="-152" xMax="269" yMax="708">
      <contour>
        <pt x="166" y="-152" on="0"/>
        <pt x="112" y="-95" on="0"/>
        <pt x="112" y="-20" on="1"/>
        <pt x="112" y="18" on="0"/>
        <pt x="116" y="82" on="1"/>
        <pt x="120" y="142" on="0"/>
        <pt x="120" y="176" on="1"/>
        <pt x="120" y="210" on="0"/>
        <pt x="81" y="254" on="0"/>
        <pt x="34" y="255" on="1"/>
        <pt x="34" y="301" on="1"/>
        <pt x="81" y="302" on="0"/>
        <pt x="120" y="346" on="0"/>
        <pt x="120" y="379" on="1"/>
        <pt x="120" y="413" on="0"/>
        <pt x="116" y="475" on="1"/>
        <pt x="112" y="539" on="0"/>
        <pt x="112" y="576" on="1"/>
        <pt x="112" y="651" on="0"/>
        <pt x="166" y="708" on="0"/>
        <pt x="227" y="708" on="1"/>
        <pt x="269" y="708" on="1"/>
        <pt x="269" y="666" on="1"/>
        <pt x="242" y="666" on="1"/>
        <pt x="201" y="666" on="0"/>
        <pt x="171" y="622" on="0"/>
        <pt x="171" y="571" on="1"/>
        <pt x="171" y="529" on="0"/>
        <pt x="174" y="485" on="1"/>
        <pt x="174" y="472" on="0"/>
        <pt x="177" y="412" on="0"/>
        <pt x="177" y="387" on="1"/>
        <pt x="177" y="339" on="0"/>
        <pt x="151" y="289" on="0"/>
        <pt x="119" y="280" on="1"/>
        <pt x="119" y="276" on="1"/>
        <pt x="150" y="267" on="0"/>
        <pt x="177" y="216" on="0"/>
        <pt x="177" y="169" on="1"/>
        <pt x="177" y="144" on="0"/>
        <pt x="174" y="84" on="0"/>
        <pt x="174" y="71" on="1"/>
        <pt x="171" y="28" on="0"/>
        <pt x="171" y="-15" on="1"/>
        <pt x="171" y="-66" on="0"/>
        <pt x="201" y="-110" on="0"/>
        <pt x="242" y="-110" on="1"/>
        <pt x="269" y="-110" on="1"/>
        <pt x="269" y="-152" on="1"/>
        <pt x="227" y="-152" on="1"/>
      </contour>
    </TTGlyph>
    <TTGlyph name="braceright" xMin="28" yMin="-152" xMax="263" yMax="708">
      <contour>
        <pt x="28" y="-110" on="1"/>
        <pt x="55" y="-110" on="1"/>
        <pt x="96" y="-110" on="0"/>
        <pt x="126" y="-66" on="0"/>
        <pt x="126" y="-15" on="1"/>
        <pt x="126" y="28" on="0"/>
        <pt x="123" y="71" on="1"/>
        <pt x="123" y="84" on="0"/>
        <pt x="120" y="144" on="0"/>
        <pt x="120" y="169" on="1"/>
        <pt x="120" y="216" on="0"/>
        <pt x="147" y="267" on="0"/>
        <pt x="178" y="276" on="1"/>
        <pt x="178" y="280" on="1"/>
        <pt x="147" y="289" on="0"/>
        <pt x="120" y="339" on="0"/>
        <pt x="120" y="387" on="1"/>
        <pt x="120" y="412" on="0"/>
        <pt x="123" y="472" on="0"/>
        <pt x="123" y="485" on="1"/>
        <pt x="126" y="529" on="0"/>
        <pt x="126" y="571" on="1"/>
        <pt x="126" y="622" on="0"/>
        <pt x="96" y="666" on="0"/>
        <pt x="55" y="666" on="1"/>
        <pt x="28" y="666" on="1"/>
        <pt x="28" y="708" on="1"/>
        <pt x="70" y="708" on="1"/>
        <pt x="131" y="708" on="0"/>
        <pt x="185" y="651" on="0"/>
        <pt x="185" y="576" on="1"/>
        <pt x="185" y="539" on="0"/>
        <pt x="181" y="475" on="1"/>
        <pt x="177" y="413" on="0"/>
        <pt x="177" y="379" on="1"/>
        <pt x="177" y="346" on="0"/>
        <pt x="216" y="302" on="0"/>
        <pt x="263" y="301" on="1"/>
        <pt x="263" y="255" on="1"/>
        <pt x="216" y="254" on="0"/>
        <pt x="177" y="210" on="0"/>
        <pt x="177" y="176" on="1"/>
        <pt x="177" y="142" on="0"/>
        <pt x="181" y="82" on="1"/>
        <pt x="185" y="18" on="0"/>
        <pt x="185" y="-20" on="1"/>
        <pt x="185" y="-95" on="0"/>
        <pt x="131" y="-152" on="0"/>
        <pt x="70" y="-152" on="1"/>
        <pt x="28" y="-152" on="1"/>
      </contour>
    </TTGlyph>
    <TTGlyph name="braceright.lat" xMin="28" yMin="-152" xMax="263" yMax="708">
      <contour>
        <pt x="28" y="-110" on="1"/>
        <pt x="55" y="-110" on="1"/>
        <pt x="96" y="-110" on="0"/>
        <pt x="126" y="-66" on="0"/>
        <pt x="126" y="-15" on="1"/>
        <pt x="126" y="28" on="0"/>
        <pt x="123" y="71" on="1"/>
        <pt x="123" y="84" on="0"/>
        <pt x="120" y="144" on="0"/>
        <pt x="120" y="169" on="1"/>
        <pt x="120" y="216" on="0"/>
        <pt x="147" y="267" on="0"/>
        <pt x="178" y="276" on="1"/>
        <pt x="178" y="280" on="1"/>
        <pt x="147" y="289" on="0"/>
        <pt x="120" y="339" on="0"/>
        <pt x="120" y="387" on="1"/>
        <pt x="120" y="412" on="0"/>
        <pt x="123" y="472" on="0"/>
        <pt x="123" y="485" on="1"/>
        <pt x="126" y="529" on="0"/>
        <pt x="126" y="571" on="1"/>
        <pt x="126" y="622" on="0"/>
        <pt x="96" y="666" on="0"/>
        <pt x="55" y="666" on="1"/>
        <pt x="28" y="666" on="1"/>
        <pt x="28" y="708" on="1"/>
        <pt x="70" y="708" on="1"/>
        <pt x="131" y="708" on="0"/>
        <pt x="185" y="651" on="0"/>
        <pt x="185" y="576" on="1"/>
        <pt x="185" y="539" on="0"/>
        <pt x="181" y="475" on="1"/>
        <pt x="177" y="413" on="0"/>
        <pt x="177" y="379" on="1"/>
        <pt x="177" y="346" on="0"/>
        <pt x="216" y="302" on="0"/>
        <pt x="263" y="301" on="1"/>
        <pt x="263" y="255" on="1"/>
        <pt x="216" y="254" on="0"/>
        <pt x="177" y="210" on="0"/>
        <pt x="177" y="176" on="1"/>
        <pt x="177" y="142" on="0"/>
        <pt x="181" y="82" on="1"/>
        <pt x="185" y="18" on="0"/>
        <pt x="185" y="-20" on="1"/>
        <pt x="185" y="-95" on="0"/>
        <pt x="131" y="-152" on="0"/>
        <pt x="70" y="-152" on="1"/>
        <pt x="28" y="-152" on="1"/>
      </contour>
    </TTGlyph>
    <TTGlyph name="bracketleft" xMin="95" yMin="-152" xMax="269" yMax="708">
      <contour>
        <pt x="95" y="708" on="1"/>
        <pt x="269" y="708" on="1"/>
        <pt x="269" y="666" on="1"/>
        <pt x="150" y="666" on="1"/>
        <pt x="150" y="-110" on="1"/>
        <pt x="269" y="-110" on="1"/>
        <pt x="269" y="-152" on="1"/>
        <pt x="95" y="-152" on="1"/>
      </contour>
    </TTGlyph>
    <TTGlyph name="bracketleft.lat" xMin="95" yMin="-152" xMax="269" yMax="708">
      <contour>
        <pt x="95" y="708" on="1"/>
        <pt x="269" y="708" on="1"/>
        <pt x="269" y="666" on="1"/>
        <pt x="150" y="666" on="1"/>
        <pt x="150" y="-110" on="1"/>
        <pt x="269" y="-110" on="1"/>
        <pt x="269" y="-152" on="1"/>
        <pt x="95" y="-152" on="1"/>
      </contour>
    </TTGlyph>
    <TTGlyph name="bracketright" xMin="28" yMin="-152" xMax="202" yMax="708">
      <contour>
        <pt x="28" y="-110" on="1"/>
        <pt x="147" y="-110" on="1"/>
        <pt x="147" y="666" on="1"/>
        <pt x="28" y="666" on="1"/>
        <pt x="28" y="708" on="1"/>
        <pt x="202" y="708" on="1"/>
        <pt x="202" y="-152" on="1"/>
        <pt x="28" y="-152" on="1"/>
      </contour>
    </TTGlyph>
    <TTGlyph name="bracketright.lat" xMin="28" yMin="-152" xMax="202" yMax="708">
      <contour>
        <pt x="28" y="-110" on="1"/>
        <pt x="147" y="-110" on="1"/>
        <pt x="147" y="666" on="1"/>
        <pt x="28" y="666" on="1"/>
        <pt x="28" y="708" on="1"/>
        <pt x="202" y="708" on="1"/>
        <pt x="202" y="-152" on="1"/>
        <pt x="28" y="-152" on="1"/>
      </contour>
    </TTGlyph>
    <TTGlyph name="breve" xMin="116" yMin="571" xMax="424" yMax="728">
      <component glyphName="uni0306" x="270" y="0" flags="0x0"/>
    </TTGlyph>
    <TTGlyph name="brokenbar" xMin="92" yMin="-79" xMax="145" yMax="585">
      <contour>
        <pt x="145" y="585" on="1"/>
        <pt x="145" y="117" on="1"/>
        <pt x="145" y="-79" on="1"/>
        <pt x="92" y="-79" on="1"/>
        <pt x="92" y="380" on="1"/>
        <pt x="92" y="585" on="1"/>
      </contour>
    </TTGlyph>
    <TTGlyph name="bullet" xMin="40" yMin="145" xMax="258" yMax="381">
      <contour>
        <pt x="105" y="145" on="0"/>
        <pt x="40" y="212" on="0"/>
        <pt x="40" y="263" on="1"/>
        <pt x="40" y="315" on="0"/>
        <pt x="105" y="381" on="0"/>
        <pt x="149" y="381" on="1"/>
        <pt x="194" y="381" on="0"/>
        <pt x="258" y="315" on="0"/>
        <pt x="258" y="263" on="1"/>
        <pt x="258" y="212" on="0"/>
        <pt x="194" y="145" on="0"/>
        <pt x="149" y="145" on="1"/>
      </contour>
    </TTGlyph>
    <TTGlyph name="bullet.lat" xMin="40" yMin="145" xMax="258" yMax="381">
      <contour>
        <pt x="105" y="145" on="0"/>
        <pt x="40" y="212" on="0"/>
        <pt x="40" y="263" on="1"/>
        <pt x="40" y="315" on="0"/>
        <pt x="105" y="381" on="0"/>
        <pt x="149" y="381" on="1"/>
        <pt x="194" y="381" on="0"/>
        <pt x="258" y="315" on="0"/>
        <pt x="258" y="263" on="1"/>
        <pt x="258" y="212" on="0"/>
        <pt x="194" y="145" on="0"/>
        <pt x="149" y="145" on="1"/>
      </contour>
    </TTGlyph>
    <TTGlyph name="c" xMin="47" yMin="-12" xMax="429" yMax="497">
      <contour>
        <pt x="209" y="-12" on="0"/>
        <pt x="106" y="49" on="0"/>
        <pt x="47" y="163" on="0"/>
        <pt x="47" y="242" on="1"/>
        <pt x="47" y="320" on="0"/>
        <pt x="110" y="436" on="0"/>
        <pt x="216" y="497" on="0"/>
        <pt x="278" y="497" on="1"/>
        <pt x="357" y="497" on="0"/>
        <pt x="419" y="439" on="1"/>
        <pt x="381" y="391" on="1"/>
        <pt x="357" y="413" on="0"/>
        <pt x="309" y="436" on="0"/>
        <pt x="281" y="436" on="1"/>
        <pt x="236" y="436" on="0"/>
        <pt x="164" y="387" on="0"/>
        <pt x="123" y="299" on="0"/>
        <pt x="123" y="242" on="1"/>
        <pt x="123" y="155" on="0"/>
        <pt x="209" y="49" on="0"/>
        <pt x="279" y="49" on="1"/>
        <pt x="342" y="49" on="0"/>
        <pt x="397" y="99" on="1"/>
        <pt x="429" y="50" on="1"/>
        <pt x="396" y="21" on="0"/>
        <pt x="316" y="-12" on="0"/>
        <pt x="273" y="-12" on="1"/>
      </contour>
    </TTGlyph>
    <TTGlyph name="caron" xMin="119" yMin="574" xMax="421" yMax="744">
      <component glyphName="uni030C" x="270" y="0" flags="0x0"/>
    </TTGlyph>
    <TTGlyph name="ccaron" xMin="47" yMin="-12" xMax="429" yMax="744">
      <component glyphName="c" x="0" y="0" flags="0x0"/>
      <component glyphName="uni030C" x="272" y="0" flags="0x0"/>
    </TTGlyph>
    <TTGlyph name="ccedilla" xMin="47" yMin="-224" xMax="429" yMax="497">
      <contour>
        <pt x="309" y="-73" on="0"/>
        <pt x="345" y="-106" on="0"/>
        <pt x="345" y="-135" on="1"/>
        <pt x="345" y="-216" on="0"/>
        <pt x="186" y="-224" on="1"/>
        <pt x="178" y="-186" on="1"/>
        <pt x="239" y="-182" on="0"/>
        <pt x="288" y="-159" on="0"/>
        <pt x="288" y="-136" on="1"/>
        <pt x="288" y="-116" on="0"/>
        <pt x="252" y="-94" on="0"/>
        <pt x="210" y="-88" on="1"/>
        <pt x="247" y="-11" on="1"/>
        <pt x="189" y="-5" on="0"/>
        <pt x="98" y="59" on="0"/>
        <pt x="47" y="169" on="0"/>
        <pt x="47" y="242" on="1"/>
        <pt x="47" y="320" on="0"/>
        <pt x="110" y="436" on="0"/>
        <pt x="216" y="497" on="0"/>
        <pt x="278" y="497" on="1"/>
        <pt x="357" y="497" on="0"/>
        <pt x="419" y="439" on="1"/>
        <pt x="381" y="391" on="1"/>
        <pt x="357" y="413" on="0"/>
        <pt x="309" y="436" on="0"/>
        <pt x="281" y="436" on="1"/>
        <pt x="236" y="436" on="0"/>
        <pt x="164" y="387" on="0"/>
        <pt x="123" y="299" on="0"/>
        <pt x="123" y="242" on="1"/>
        <pt x="123" y="155" on="0"/>
        <pt x="209" y="49" on="0"/>
        <pt x="279" y="49" on="1"/>
        <pt x="342" y="49" on="0"/>
        <pt x="397" y="99" on="1"/>
        <pt x="429" y="50" on="1"/>
        <pt x="371" y="-2" on="0"/>
        <pt x="296" y="-11" on="1"/>
        <pt x="273" y="-64" on="1"/>
      </contour>
    </TTGlyph>
    <TTGlyph name="cedilla" xMin="178" yMin="-224" xMax="345" yMax="3">
      <component glyphName="uni0327" x="270" y="0" flags="0x0"/>
    </TTGlyph>
    <TTGlyph name="cent" xMin="61" yMin="-31" xMax="450" yMax="653">
      <contour>
        <pt x="384" y="77" on="0"/>
        <pt x="308" y="73" on="1"/>
        <pt x="308" y="-31" on="1"/>
        <pt x="260" y="-31" on="1"/>
        <pt x="260" y="74" on="1"/>
        <pt x="170" y="84" on="0"/>
        <pt x="61" y="208" on="0"/>
        <pt x="61" y="310" on="1"/>
        <pt x="61" y="410" on="0"/>
        <pt x="173" y="534" on="0"/>
        <pt x="260" y="546" on="1"/>
        <pt x="260" y="653" on="1"/>
        <pt x="308" y="653" on="1"/>
        <pt x="308" y="548" on="1"/>
        <pt x="383" y="544" on="0"/>
        <pt x="439" y="490" on="1"/>
        <pt x="403" y="444" on="1"/>
        <pt x="360" y="484" on="0"/>
        <pt x="308" y="487" on="1"/>
        <pt x="308" y="133" on="1"/>
        <pt x="365" y="137" on="0"/>
        <pt x="417" y="182" on="1"/>
        <pt x="450" y="135" on="1"/>
      </contour>
      <contour>
        <pt x="134" y="241" on="0"/>
        <pt x="201" y="148" on="0"/>
        <pt x="260" y="137" on="1"/>
        <pt x="260" y="483" on="1"/>
        <pt x="202" y="471" on="0"/>
        <pt x="134" y="378" on="0"/>
        <pt x="134" y="310" on="1"/>
      </contour>
    </TTGlyph>
    <TTGlyph name="cent.lat" xMin="61" yMin="-31" xMax="450" yMax="653">
      <contour>
        <pt x="384" y="77" on="0"/>
        <pt x="308" y="73" on="1"/>
        <pt x="308" y="-31" on="1"/>
        <pt x="260" y="-31" on="1"/>
        <pt x="260" y="74" on="1"/>
        <pt x="170" y="84" on="0"/>
        <pt x="61" y="208" on="0"/>
        <pt x="61" y="310" on="1"/>
        <pt x="61" y="410" on="0"/>
        <pt x="173" y="534" on="0"/>
        <pt x="260" y="546" on="1"/>
        <pt x="260" y="653" on="1"/>
        <pt x="308" y="653" on="1"/>
        <pt x="308" y="548" on="1"/>
        <pt x="383" y="544" on="0"/>
        <pt x="439" y="490" on="1"/>
        <pt x="403" y="444" on="1"/>
        <pt x="360" y="484" on="0"/>
        <pt x="308" y="487" on="1"/>
        <pt x="308" y="133" on="1"/>
        <pt x="365" y="137" on="0"/>
        <pt x="417" y="182" on="1"/>
        <pt x="450" y="135" on="1"/>
      </contour>
      <contour>
        <pt x="134" y="241" on="0"/>
        <pt x="201" y="148" on="0"/>
        <pt x="260" y="137" on="1"/>
        <pt x="260" y="483" on="1"/>
        <pt x="202" y="471" on="0"/>
        <pt x="134" y="378" on="0"/>
        <pt x="134" y="310" on="1"/>
      </contour>
    </TTGlyph>
    <TTGlyph name="chi" xMin="9" yMin="-191" xMax="480" yMax="497">
      <contour>
        <pt x="9" y="-179" on="1"/>
        <pt x="203" y="163" on="1"/>
        <pt x="13" y="477" on="1"/>
        <pt x="85" y="497" on="1"/>
        <pt x="237" y="229" on="1"/>
        <pt x="241" y="229" on="1"/>
        <pt x="371" y="485" on="1"/>
        <pt x="449" y="485" on="1"/>
        <pt x="276" y="164" on="1"/>
        <pt x="480" y="-172" on="1"/>
        <pt x="410" y="-191" on="1"/>
        <pt x="241" y="103" on="1"/>
        <pt x="237" y="103" on="1"/>
        <pt x="82" y="-191" on="1"/>
      </contour>
    </TTGlyph>
    <TTGlyph name="circledotted" xMin="47" yMin="-12" xMax="540" yMax="489">
      <contour>
        <pt x="339" y="489" on="0"/>
        <pt x="360" y="469" on="0"/>
        <pt x="360" y="453" on="1"/>
        <pt x="360" y="436" on="0"/>
        <pt x="340" y="416" on="0"/>
        <pt x="324" y="416" on="1"/>
        <pt x="310" y="416" on="0"/>
        <pt x="291" y="436" on="0"/>
        <pt x="291" y="453" on="1"/>
        <pt x="291" y="469" on="0"/>
        <pt x="310" y="489" on="0"/>
        <pt x="324" y="489" on="1"/>
      </contour>
      <contour>
        <pt x="202" y="470" on="0"/>
        <pt x="221" y="451" on="0"/>
        <pt x="221" y="434" on="1"/>
        <pt x="221" y="418" on="0"/>
        <pt x="202" y="399" on="0"/>
        <pt x="187" y="399" on="1"/>
        <pt x="173" y="399" on="0"/>
        <pt x="153" y="418" on="0"/>
        <pt x="153" y="434" on="1"/>
        <pt x="153" y="451" on="0"/>
        <pt x="173" y="470" on="0"/>
        <pt x="187" y="470" on="1"/>
      </contour>
      <contour>
        <pt x="409" y="348" on="0"/>
        <pt x="389" y="368" on="0"/>
        <pt x="389" y="385" on="1"/>
        <pt x="389" y="389" on="0"/>
        <pt x="391" y="397" on="1"/>
        <pt x="389" y="405" on="0"/>
        <pt x="389" y="409" on="1"/>
        <pt x="389" y="426" on="0"/>
        <pt x="408" y="445" on="0"/>
        <pt x="422" y="445" on="1"/>
        <pt x="437" y="445" on="0"/>
        <pt x="457" y="426" on="0"/>
        <pt x="457" y="409" on="1"/>
        <pt x="457" y="405" on="0"/>
        <pt x="455" y="397" on="1"/>
        <pt x="457" y="389" on="0"/>
        <pt x="457" y="385" on="1"/>
        <pt x="457" y="368" on="0"/>
        <pt x="438" y="348" on="0"/>
        <pt x="422" y="348" on="1"/>
      </contour>
      <contour>
        <pt x="124" y="389" on="0"/>
        <pt x="143" y="371" on="0"/>
        <pt x="143" y="354" on="1"/>
        <pt x="143" y="336" on="0"/>
        <pt x="125" y="317" on="0"/>
        <pt x="108" y="317" on="1"/>
        <pt x="94" y="317" on="0"/>
        <pt x="75" y="337" on="0"/>
        <pt x="75" y="354" on="1"/>
        <pt x="75" y="371" on="0"/>
        <pt x="94" y="389" on="0"/>
        <pt x="108" y="389" on="1"/>
      </contour>
      <contour>
        <pt x="116" y="226" on="0"/>
        <pt x="97" y="206" on="0"/>
        <pt x="80" y="206" on="1"/>
        <pt x="67" y="206" on="0"/>
        <pt x="47" y="226" on="0"/>
        <pt x="47" y="243" on="1"/>
        <pt x="47" y="259" on="0"/>
        <pt x="66" y="278" on="0"/>
        <pt x="80" y="278" on="1"/>
        <pt x="96" y="278" on="0"/>
        <pt x="116" y="260" on="0"/>
        <pt x="116" y="243" on="1"/>
      </contour>
      <contour>
        <pt x="519" y="278" on="0"/>
        <pt x="540" y="259" on="0"/>
        <pt x="540" y="243" on="1"/>
        <pt x="540" y="226" on="0"/>
        <pt x="520" y="206" on="0"/>
        <pt x="505" y="206" on="1"/>
        <pt x="490" y="206" on="0"/>
        <pt x="471" y="226" on="0"/>
        <pt x="471" y="243" on="1"/>
        <pt x="471" y="260" on="0"/>
        <pt x="490" y="278" on="0"/>
        <pt x="505" y="278" on="1"/>
      </contour>
      <contour>
        <pt x="124" y="169" on="0"/>
        <pt x="143" y="150" on="0"/>
        <pt x="143" y="133" on="1"/>
        <pt x="143" y="116" on="0"/>
        <pt x="124" y="97" on="0"/>
        <pt x="108" y="97" on="1"/>
        <pt x="94" y="97" on="0"/>
        <pt x="75" y="117" on="0"/>
        <pt x="75" y="133" on="1"/>
        <pt x="75" y="150" on="0"/>
        <pt x="94" y="169" on="0"/>
        <pt x="108" y="169" on="1"/>
      </contour>
      <contour>
        <pt x="493" y="169" on="0"/>
        <pt x="512" y="150" on="0"/>
        <pt x="512" y="133" on="1"/>
        <pt x="512" y="116" on="0"/>
        <pt x="494" y="97" on="0"/>
        <pt x="478" y="97" on="1"/>
        <pt x="464" y="97" on="0"/>
        <pt x="444" y="117" on="0"/>
        <pt x="444" y="133" on="1"/>
        <pt x="444" y="150" on="0"/>
        <pt x="464" y="169" on="0"/>
        <pt x="478" y="169" on="1"/>
      </contour>
      <contour>
        <pt x="202" y="86" on="0"/>
        <pt x="221" y="68" on="0"/>
        <pt x="221" y="53" on="1"/>
        <pt x="221" y="35" on="0"/>
        <pt x="202" y="15" on="0"/>
        <pt x="187" y="15" on="1"/>
        <pt x="173" y="15" on="0"/>
        <pt x="153" y="35" on="0"/>
        <pt x="153" y="53" on="1"/>
        <pt x="153" y="68" on="0"/>
        <pt x="173" y="86" on="0"/>
        <pt x="187" y="86" on="1"/>
      </contour>
      <contour>
        <pt x="413" y="86" on="0"/>
        <pt x="433" y="68" on="0"/>
        <pt x="433" y="53" on="1"/>
        <pt x="433" y="34" on="0"/>
        <pt x="415" y="15" on="0"/>
        <pt x="398" y="15" on="1"/>
        <pt x="384" y="15" on="0"/>
        <pt x="366" y="35" on="0"/>
        <pt x="366" y="53" on="1"/>
        <pt x="366" y="68" on="0"/>
        <pt x="385" y="86" on="0"/>
        <pt x="398" y="86" on="1"/>
      </contour>
      <contour>
        <pt x="309" y="59" on="0"/>
        <pt x="328" y="41" on="0"/>
        <pt x="328" y="24" on="1"/>
        <pt x="328" y="7" on="0"/>
        <pt x="308" y="-12" on="0"/>
        <pt x="293" y="-12" on="1"/>
        <pt x="279" y="-12" on="0"/>
        <pt x="259" y="7" on="0"/>
        <pt x="259" y="24" on="1"/>
        <pt x="259" y="40" on="0"/>
        <pt x="279" y="59" on="0"/>
        <pt x="293" y="59" on="1"/>
      </contour>
    </TTGlyph>
    <TTGlyph name="circumflex" xMin="119" yMin="569" xMax="421" yMax="739">
      <component glyphName="uni0302" x="270" y="0" flags="0x0"/>
    </TTGlyph>
    <TTGlyph name="colon" xMin="66" yMin="-12" xMax="176" yMax="471">
      <component glyphName="period" x="0" y="366" flags="0x4"/>
      <component glyphName="period" x="0" y="0" flags="0x0"/>
    </TTGlyph>
    <TTGlyph name="comma" xMin="47" yMin="-166" xMax="190" yMax="105">
      <contour>
        <pt x="155" y="105" on="0"/>
        <pt x="190" y="57" on="0"/>
        <pt x="190" y="15" on="1"/>
        <pt x="190" y="-46" on="0"/>
        <pt x="123" y="-141" on="0"/>
        <pt x="66" y="-166" on="1"/>
        <pt x="47" y="-122" on="1"/>
        <pt x="87" y="-104" on="0"/>
        <pt x="133" y="-41" on="0"/>
        <pt x="134" y="-1" on="1"/>
        <pt x="131" y="-2" on="0"/>
        <pt x="124" y="-2" on="1"/>
        <pt x="100" y="-2" on="0"/>
        <pt x="68" y="27" on="0"/>
        <pt x="68" y="52" on="1"/>
        <pt x="68" y="76" on="0"/>
        <pt x="102" y="105" on="0"/>
        <pt x="125" y="105" on="1"/>
      </contour>
    </TTGlyph>
    <TTGlyph name="copyright" xMin="50" yMin="-11" xMax="694" yMax="653">
      <contour>
        <pt x="285" y="-11" on="0"/>
        <pt x="137" y="72" on="0"/>
        <pt x="50" y="224" on="0"/>
        <pt x="50" y="323" on="1"/>
        <pt x="50" y="422" on="0"/>
        <pt x="137" y="572" on="0"/>
        <pt x="284" y="653" on="0"/>
        <pt x="372" y="653" on="1"/>
        <pt x="459" y="653" on="0"/>
        <pt x="607" y="571" on="0"/>
        <pt x="694" y="421" on="0"/>
        <pt x="694" y="323" on="1"/>
        <pt x="694" y="224" on="0"/>
        <pt x="607" y="72" on="0"/>
        <pt x="459" y="-11" on="0"/>
        <pt x="372" y="-11" on="1"/>
      </contour>
      <contour>
        <pt x="448" y="28" on="0"/>
        <pt x="575" y="102" on="0"/>
        <pt x="650" y="237" on="0"/>
        <pt x="650" y="323" on="1"/>
        <pt x="650" y="409" on="0"/>
        <pt x="575" y="542" on="0"/>
        <pt x="448" y="615" on="0"/>
        <pt x="372" y="615" on="1"/>
        <pt x="296" y="615" on="0"/>
        <pt x="168" y="542" on="0"/>
        <pt x="93" y="409" on="0"/>
        <pt x="93" y="323" on="1"/>
        <pt x="93" y="237" on="0"/>
        <pt x="168" y="102" on="0"/>
        <pt x="296" y="28" on="0"/>
        <pt x="372" y="28" on="1"/>
      </contour>
      <contour>
        <pt x="329" y="125" on="0"/>
        <pt x="247" y="173" on="0"/>
        <pt x="199" y="262" on="0"/>
        <pt x="199" y="323" on="1"/>
        <pt x="199" y="379" on="0"/>
        <pt x="250" y="465" on="0"/>
        <pt x="333" y="511" on="0"/>
        <pt x="382" y="511" on="1"/>
        <pt x="421" y="511" on="0"/>
        <pt x="479" y="482" on="0"/>
        <pt x="506" y="455" on="1"/>
        <pt x="474" y="419" on="1"/>
        <pt x="452" y="441" on="0"/>
        <pt x="411" y="461" on="0"/>
        <pt x="385" y="461" on="1"/>
        <pt x="329" y="461" on="0"/>
        <pt x="259" y="384" on="0"/>
        <pt x="259" y="323" on="1"/>
        <pt x="259" y="255" on="0"/>
        <pt x="326" y="176" on="0"/>
        <pt x="381" y="176" on="1"/>
        <pt x="412" y="176" on="0"/>
        <pt x="462" y="199" on="0"/>
        <pt x="487" y="221" on="1"/>
        <pt x="514" y="182" on="1"/>
        <pt x="483" y="154" on="0"/>
        <pt x="421" y="125" on="0"/>
        <pt x="379" y="125" on="1"/>
      </contour>
    </TTGlyph>
    <TTGlyph name="copyright.lat" xMin="50" yMin="-11" xMax="694" yMax="653">
      <contour>
        <pt x="285" y="-11" on="0"/>
        <pt x="137" y="72" on="0"/>
        <pt x="50" y="224" on="0"/>
        <pt x="50" y="323" on="1"/>
        <pt x="50" y="422" on="0"/>
        <pt x="137" y="572" on="0"/>
        <pt x="284" y="653" on="0"/>
        <pt x="372" y="653" on="1"/>
        <pt x="459" y="653" on="0"/>
        <pt x="607" y="571" on="0"/>
        <pt x="694" y="421" on="0"/>
        <pt x="694" y="323" on="1"/>
        <pt x="694" y="224" on="0"/>
        <pt x="607" y="72" on="0"/>
        <pt x="459" y="-11" on="0"/>
        <pt x="372" y="-11" on="1"/>
      </contour>
      <contour>
        <pt x="448" y="28" on="0"/>
        <pt x="575" y="102" on="0"/>
        <pt x="650" y="237" on="0"/>
        <pt x="650" y="323" on="1"/>
        <pt x="650" y="409" on="0"/>
        <pt x="575" y="542" on="0"/>
        <pt x="448" y="615" on="0"/>
        <pt x="372" y="615" on="1"/>
        <pt x="296" y="615" on="0"/>
        <pt x="168" y="542" on="0"/>
        <pt x="93" y="409" on="0"/>
        <pt x="93" y="323" on="1"/>
        <pt x="93" y="237" on="0"/>
        <pt x="168" y="102" on="0"/>
        <pt x="296" y="28" on="0"/>
        <pt x="372" y="28" on="1"/>
      </contour>
      <contour>
        <pt x="329" y="125" on="0"/>
        <pt x="247" y="173" on="0"/>
        <pt x="199" y="262" on="0"/>
        <pt x="199" y="323" on="1"/>
        <pt x="199" y="379" on="0"/>
        <pt x="250" y="465" on="0"/>
        <pt x="333" y="511" on="0"/>
        <pt x="382" y="511" on="1"/>
        <pt x="421" y="511" on="0"/>
        <pt x="479" y="482" on="0"/>
        <pt x="506" y="455" on="1"/>
        <pt x="474" y="419" on="1"/>
        <pt x="452" y="441" on="0"/>
        <pt x="411" y="461" on="0"/>
        <pt x="385" y="461" on="1"/>
        <pt x="329" y="461" on="0"/>
        <pt x="259" y="384" on="0"/>
        <pt x="259" y="323" on="1"/>
        <pt x="259" y="255" on="0"/>
        <pt x="326" y="176" on="0"/>
        <pt x="381" y="176" on="1"/>
        <pt x="412" y="176" on="0"/>
        <pt x="462" y="199" on="0"/>
        <pt x="487" y="221" on="1"/>
        <pt x="514" y="182" on="1"/>
        <pt x="483" y="154" on="0"/>
        <pt x="421" y="125" on="0"/>
        <pt x="379" y="125" on="1"/>
      </contour>
    </TTGlyph>
    <TTGlyph name="currency" xMin="28" yMin="105" xMax="465" yMax="554">
      <contour>
        <pt x="28" y="146" on="1"/>
        <pt x="92" y="212" on="1"/>
        <pt x="55" y="262" on="0"/>
        <pt x="55" y="329" on="1"/>
        <pt x="55" y="396" on="0"/>
        <pt x="91" y="447" on="1"/>
        <pt x="28" y="513" on="1"/>
        <pt x="67" y="554" on="1"/>
        <pt x="134" y="485" on="1"/>
        <pt x="157" y="504" on="0"/>
        <pt x="215" y="524" on="0"/>
        <pt x="246" y="524" on="1"/>
        <pt x="277" y="524" on="0"/>
        <pt x="335" y="504" on="0"/>
        <pt x="358" y="485" on="1"/>
        <pt x="425" y="554" on="1"/>
        <pt x="465" y="513" on="1"/>
        <pt x="400" y="447" on="1"/>
        <pt x="437" y="397" on="0"/>
        <pt x="437" y="329" on="1"/>
        <pt x="437" y="262" on="0"/>
        <pt x="400" y="212" on="1"/>
        <pt x="465" y="146" on="1"/>
        <pt x="425" y="105" on="1"/>
        <pt x="358" y="174" on="1"/>
        <pt x="335" y="155" on="0"/>
        <pt x="277" y="135" on="0"/>
        <pt x="246" y="135" on="1"/>
        <pt x="184" y="135" on="0"/>
        <pt x="134" y="174" on="1"/>
        <pt x="67" y="105" on="1"/>
      </contour>
      <contour>
        <pt x="297" y="190" on="0"/>
        <pt x="369" y="268" on="0"/>
        <pt x="369" y="329" on="1"/>
        <pt x="369" y="369" on="0"/>
        <pt x="336" y="433" on="0"/>
        <pt x="279" y="469" on="0"/>
        <pt x="246" y="469" on="1"/>
        <pt x="213" y="469" on="0"/>
        <pt x="156" y="433" on="0"/>
        <pt x="123" y="369" on="0"/>
        <pt x="123" y="329" on="1"/>
        <pt x="123" y="268" on="0"/>
        <pt x="195" y="190" on="0"/>
        <pt x="246" y="190" on="1"/>
      </contour>
    </TTGlyph>
    <TTGlyph name="d" xMin="49" yMin="-12" xMax="467" yMax="714">
      <contour>
        <pt x="156" y="-12" on="0"/>
        <pt x="49" y="122" on="0"/>
        <pt x="49" y="242" on="1"/>
        <pt x="49" y="318" on="0"/>
        <pt x="107" y="434" on="0"/>
        <pt x="204" y="497" on="0"/>
        <pt x="260" y="497" on="1"/>
        <pt x="299" y="497" on="0"/>
        <pt x="361" y="469" on="0"/>
        <pt x="398" y="440" on="1"/>
        <pt x="395" y="524" on="1"/>
        <pt x="395" y="714" on="1"/>
        <pt x="467" y="714" on="1"/>
        <pt x="467" y="0" on="1"/>
        <pt x="407" y="0" on="1"/>
        <pt x="401" y="59" on="1"/>
        <pt x="398" y="59" on="1"/>
        <pt x="367" y="27" on="0"/>
        <pt x="290" y="-12" on="0"/>
        <pt x="248" y="-12" on="1"/>
      </contour>
      <contour>
        <pt x="299" y="50" on="0"/>
        <pt x="362" y="84" on="0"/>
        <pt x="395" y="119" on="1"/>
        <pt x="395" y="382" on="1"/>
        <pt x="363" y="410" on="0"/>
        <pt x="303" y="435" on="0"/>
        <pt x="271" y="435" on="1"/>
        <pt x="230" y="435" on="0"/>
        <pt x="163" y="385" on="0"/>
        <pt x="124" y="297" on="0"/>
        <pt x="124" y="242" on="1"/>
        <pt x="124" y="152" on="0"/>
        <pt x="197" y="50" on="0"/>
        <pt x="264" y="50" on="1"/>
      </contour>
    </TTGlyph>
    <TTGlyph name="dagger" xMin="55" yMin="-80" xMax="390" yMax="712">
      <contour>
        <pt x="195" y="499" on="1"/>
        <pt x="55" y="495" on="1"/>
        <pt x="55" y="558" on="1"/>
        <pt x="195" y="554" on="1"/>
        <pt x="191" y="712" on="1"/>
        <pt x="254" y="712" on="1"/>
        <pt x="250" y="554" on="1"/>
        <pt x="390" y="558" on="1"/>
        <pt x="390" y="495" on="1"/>
        <pt x="250" y="499" on="1"/>
        <pt x="254" y="-80" on="1"/>
        <pt x="191" y="-80" on="1"/>
      </contour>
    </TTGlyph>
    <TTGlyph name="dagger.lat" xMin="55" yMin="-80" xMax="390" yMax="712">
      <contour>
        <pt x="195" y="499" on="1"/>
        <pt x="55" y="495" on="1"/>
        <pt x="55" y="558" on="1"/>
        <pt x="195" y="554" on="1"/>
        <pt x="191" y="712" on="1"/>
        <pt x="254" y="712" on="1"/>
        <pt x="250" y="554" on="1"/>
        <pt x="390" y="558" on="1"/>
        <pt x="390" y="495" on="1"/>
        <pt x="250" y="499" on="1"/>
        <pt x="254" y="-80" on="1"/>
        <pt x="191" y="-80" on="1"/>
      </contour>
    </TTGlyph>
    <TTGlyph name="daggerdbl" xMin="55" yMin="-80" xMax="390" yMax="712">
      <contour>
        <pt x="195" y="78" on="1"/>
        <pt x="55" y="74" on="1"/>
        <pt x="55" y="137" on="1"/>
        <pt x="195" y="132" on="1"/>
        <pt x="191" y="316" on="1"/>
        <pt x="195" y="500" on="1"/>
        <pt x="55" y="495" on="1"/>
        <pt x="55" y="558" on="1"/>
        <pt x="195" y="554" on="1"/>
        <pt x="191" y="712" on="1"/>
        <pt x="254" y="712" on="1"/>
        <pt x="250" y="554" on="1"/>
        <pt x="390" y="558" on="1"/>
        <pt x="390" y="495" on="1"/>
        <pt x="250" y="500" on="1"/>
        <pt x="254" y="316" on="1"/>
        <pt x="250" y="132" on="1"/>
        <pt x="390" y="137" on="1"/>
        <pt x="390" y="74" on="1"/>
        <pt x="250" y="78" on="1"/>
        <pt x="254" y="-80" on="1"/>
        <pt x="191" y="-80" on="1"/>
      </contour>
    </TTGlyph>
    <TTGlyph name="daggerdbl.lat" xMin="55" yMin="-80" xMax="390" yMax="712">
      <contour>
        <pt x="195" y="78" on="1"/>
        <pt x="55" y="74" on="1"/>
        <pt x="55" y="137" on="1"/>
        <pt x="195" y="132" on="1"/>
        <pt x="191" y="316" on="1"/>
        <pt x="195" y="500" on="1"/>
        <pt x="55" y="495" on="1"/>
        <pt x="55" y="558" on="1"/>
        <pt x="195" y="554" on="1"/>
        <pt x="191" y="712" on="1"/>
        <pt x="254" y="712" on="1"/>
        <pt x="250" y="554" on="1"/>
        <pt x="390" y="558" on="1"/>
        <pt x="390" y="495" on="1"/>
        <pt x="250" y="500" on="1"/>
        <pt x="254" y="316" on="1"/>
        <pt x="250" y="132" on="1"/>
        <pt x="390" y="137" on="1"/>
        <pt x="390" y="74" on="1"/>
        <pt x="250" y="78" on="1"/>
        <pt x="254" y="-80" on="1"/>
        <pt x="191" y="-80" on="1"/>
      </contour>
    </TTGlyph>
    <TTGlyph name="degree" xMin="41" yMin="434" xMax="286" yMax="685">
      <contour>
        <pt x="112" y="434" on="0"/>
        <pt x="41" y="503" on="0"/>
        <pt x="41" y="558" on="1"/>
        <pt x="41" y="615" on="0"/>
        <pt x="112" y="685" on="0"/>
        <pt x="163" y="685" on="1"/>
        <pt x="214" y="685" on="0"/>
        <pt x="286" y="615" on="0"/>
        <pt x="286" y="558" on="1"/>
        <pt x="286" y="503" on="0"/>
        <pt x="214" y="434" on="0"/>
        <pt x="163" y="434" on="1"/>
      </contour>
      <contour>
        <pt x="197" y="476" on="0"/>
        <pt x="240" y="523" on="0"/>
        <pt x="240" y="558" on="1"/>
        <pt x="240" y="595" on="0"/>
        <pt x="197" y="642" on="0"/>
        <pt x="163" y="642" on="1"/>
        <pt x="129" y="642" on="0"/>
        <pt x="87" y="595" on="0"/>
        <pt x="87" y="558" on="1"/>
        <pt x="87" y="522" on="0"/>
        <pt x="130" y="476" on="0"/>
        <pt x="163" y="476" on="1"/>
      </contour>
    </TTGlyph>
    <TTGlyph name="degree.lat" xMin="41" yMin="434" xMax="286" yMax="685">
      <contour>
        <pt x="112" y="434" on="0"/>
        <pt x="41" y="503" on="0"/>
        <pt x="41" y="558" on="1"/>
        <pt x="41" y="615" on="0"/>
        <pt x="112" y="685" on="0"/>
        <pt x="163" y="685" on="1"/>
        <pt x="214" y="685" on="0"/>
        <pt x="286" y="615" on="0"/>
        <pt x="286" y="558" on="1"/>
        <pt x="286" y="503" on="0"/>
        <pt x="214" y="434" on="0"/>
        <pt x="163" y="434" on="1"/>
      </contour>
      <contour>
        <pt x="197" y="476" on="0"/>
        <pt x="240" y="523" on="0"/>
        <pt x="240" y="558" on="1"/>
        <pt x="240" y="595" on="0"/>
        <pt x="197" y="642" on="0"/>
        <pt x="163" y="642" on="1"/>
        <pt x="129" y="642" on="0"/>
        <pt x="87" y="595" on="0"/>
        <pt x="87" y="558" on="1"/>
        <pt x="87" y="522" on="0"/>
        <pt x="130" y="476" on="0"/>
        <pt x="163" y="476" on="1"/>
      </contour>
    </TTGlyph>
    <TTGlyph name="dieresis" xMin="129" yMin="590" xMax="411" yMax="683">
      <component glyphName="uni0308" x="270" y="0" flags="0x0"/>
    </TTGlyph>
    <TTGlyph name="divide" xMin="34" yMin="99" xMax="458" yMax="560">
      <contour>
        <pt x="225" y="459" on="0"/>
        <pt x="196" y="488" on="0"/>
        <pt x="196" y="510" on="1"/>
        <pt x="196" y="532" on="0"/>
        <pt x="225" y="560" on="0"/>
        <pt x="246" y="560" on="1"/>
        <pt x="267" y="560" on="0"/>
        <pt x="296" y="532" on="0"/>
        <pt x="296" y="510" on="1"/>
        <pt x="296" y="488" on="0"/>
        <pt x="267" y="459" on="0"/>
        <pt x="246" y="459" on="1"/>
      </contour>
      <contour>
        <pt x="34" y="358" on="1"/>
        <pt x="458" y="358" on="1"/>
        <pt x="458" y="302" on="1"/>
        <pt x="34" y="302" on="1"/>
      </contour>
      <contour>
        <pt x="225" y="99" on="0"/>
        <pt x="196" y="128" on="0"/>
        <pt x="196" y="150" on="1"/>
        <pt x="196" y="172" on="0"/>
        <pt x="225" y="200" on="0"/>
        <pt x="246" y="200" on="1"/>
        <pt x="267" y="200" on="0"/>
        <pt x="296" y="172" on="0"/>
        <pt x="296" y="150" on="1"/>
        <pt x="296" y="128" on="0"/>
        <pt x="267" y="99" on="0"/>
        <pt x="246" y="99" on="1"/>
      </contour>
    </TTGlyph>
    <TTGlyph name="dollar" xMin="54" yMin="-110" xMax="432" yMax="748">
      <contour>
        <pt x="432" y="91" on="0"/>
        <pt x="348" y="-1" on="0"/>
        <pt x="278" y="-10" on="1"/>
        <pt x="278" y="-110" on="1"/>
        <pt x="223" y="-110" on="1"/>
        <pt x="223" y="-11" on="1"/>
        <pt x="176" y="-7" on="0"/>
        <pt x="86" y="36" on="0"/>
        <pt x="54" y="66" on="1"/>
        <pt x="88" y="116" on="1"/>
        <pt x="166" y="49" on="0"/>
        <pt x="245" y="49" on="1"/>
        <pt x="301" y="49" on="0"/>
        <pt x="361" y="107" on="0"/>
        <pt x="361" y="157" on="1"/>
        <pt x="361" y="196" on="0"/>
        <pt x="325" y="250" on="0"/>
        <pt x="272" y="284" on="0"/>
        <pt x="227" y="307" on="1"/>
        <pt x="179" y="331" on="0"/>
        <pt x="120" y="372" on="0"/>
        <pt x="79" y="437" on="0"/>
        <pt x="79" y="484" on="1"/>
        <pt x="79" y="550" on="0"/>
        <pt x="158" y="639" on="0"/>
        <pt x="223" y="648" on="1"/>
        <pt x="223" y="748" on="1"/>
        <pt x="278" y="748" on="1"/>
        <pt x="278" y="649" on="1"/>
        <pt x="322" y="645" on="0"/>
        <pt x="388" y="607" on="0"/>
        <pt x="418" y="575" on="1"/>
        <pt x="379" y="531" on="1"/>
        <pt x="347" y="562" on="0"/>
        <pt x="294" y="589" on="0"/>
        <pt x="255" y="589" on="1"/>
        <pt x="208" y="589" on="0"/>
        <pt x="151" y="533" on="0"/>
        <pt x="151" y="488" on="1"/>
        <pt x="151" y="455" on="0"/>
        <pt x="183" y="409" on="0"/>
        <pt x="231" y="379" on="0"/>
        <pt x="273" y="359" on="1"/>
        <pt x="325" y="333" on="0"/>
        <pt x="388" y="291" on="0"/>
        <pt x="432" y="217" on="0"/>
        <pt x="432" y="162" on="1"/>
      </contour>
    </TTGlyph>
    <TTGlyph name="dollar.lat" xMin="54" yMin="-110" xMax="432" yMax="748">
      <contour>
        <pt x="432" y="91" on="0"/>
        <pt x="348" y="-1" on="0"/>
        <pt x="278" y="-10" on="1"/>
        <pt x="278" y="-110" on="1"/>
        <pt x="223" y="-110" on="1"/>
        <pt x="223" y="-11" on="1"/>
        <pt x="176" y="-7" on="0"/>
        <pt x="86" y="36" on="0"/>
        <pt x="54" y="66" on="1"/>
        <pt x="88" y="116" on="1"/>
        <pt x="166" y="49" on="0"/>
        <pt x="245" y="49" on="1"/>
        <pt x="301" y="49" on="0"/>
        <pt x="361" y="107" on="0"/>
        <pt x="361" y="157" on="1"/>
        <pt x="361" y="196" on="0"/>
        <pt x="325" y="250" on="0"/>
        <pt x="272" y="284" on="0"/>
        <pt x="227" y="307" on="1"/>
        <pt x="179" y="331" on="0"/>
        <pt x="120" y="372" on="0"/>
        <pt x="79" y="437" on="0"/>
        <pt x="79" y="484" on="1"/>
        <pt x="79" y="550" on="0"/>
        <pt x="158" y="639" on="0"/>
        <pt x="223" y="648" on="1"/>
        <pt x="223" y="748" on="1"/>
        <pt x="278" y="748" on="1"/>
        <pt x="278" y="649" on="1"/>
        <pt x="322" y="645" on="0"/>
        <pt x="388" y="607" on="0"/>
        <pt x="418" y="575" on="1"/>
        <pt x="379" y="531" on="1"/>
        <pt x="347" y="562" on="0"/>
        <pt x="294" y="589" on="0"/>
        <pt x="255" y="589" on="1"/>
        <pt x="208" y="589" on="0"/>
        <pt x="151" y="533" on="0"/>
        <pt x="151" y="488" on="1"/>
        <pt x="151" y="455" on="0"/>
        <pt x="183" y="409" on="0"/>
        <pt x="231" y="379" on="0"/>
        <pt x="273" y="359" on="1"/>
        <pt x="325" y="333" on="0"/>
        <pt x="388" y="291" on="0"/>
        <pt x="432" y="217" on="0"/>
        <pt x="432" y="162" on="1"/>
      </contour>
    </TTGlyph>
    <TTGlyph name="dotaccent" xMin="220" yMin="589" xMax="320" yMax="689">
      <component glyphName="uni0307" x="270" y="0" flags="0x0"/>
    </TTGlyph>
    <TTGlyph name="dotbelowcomb" xMin="-50" yMin="-203" xMax="50" yMax="-103">
      <contour>
        <pt x="-22" y="-203" on="0"/>
        <pt x="-50" y="-175" on="0"/>
        <pt x="-50" y="-152" on="1"/>
        <pt x="-50" y="-130" on="0"/>
        <pt x="-22" y="-103" on="0"/>
        <pt x="0" y="-103" on="1"/>
        <pt x="22" y="-103" on="0"/>
        <pt x="50" y="-130" on="0"/>
        <pt x="50" y="-152" on="1"/>
        <pt x="50" y="-175" on="0"/>
        <pt x="22" y="-203" on="0"/>
        <pt x="0" y="-203" on="1"/>
      </contour>
    </TTGlyph>
    <TTGlyph name="dotlessi" xMin="85" yMin="0" xMax="157" yMax="485">
      <contour>
        <pt x="85" y="485" on="1"/>
        <pt x="157" y="485" on="1"/>
        <pt x="157" y="0" on="1"/>
        <pt x="85" y="0" on="1"/>
      </contour>
    </TTGlyph>
    <TTGlyph name="dotlessj" xMin="-36" yMin="-220" xMax="160" yMax="485">
      <contour>
        <pt x="-4" y="-220" on="0"/>
        <pt x="-36" y="-208" on="1"/>
        <pt x="-21" y="-152" on="1"/>
        <pt x="3" y="-160" on="0"/>
        <pt x="26" y="-160" on="1"/>
        <pt x="61" y="-160" on="0"/>
        <pt x="87" y="-112" on="0"/>
        <pt x="87" y="-63" on="1"/>
        <pt x="88" y="485" on="1"/>
        <pt x="160" y="485" on="1"/>
        <pt x="160" y="-64" on="1"/>
        <pt x="160" y="-140" on="0"/>
        <pt x="99" y="-220" on="0"/>
        <pt x="33" y="-220" on="1"/>
      </contour>
    </TTGlyph>
    <TTGlyph name="e" xMin="47" yMin="-12" xMax="455" yMax="497">
      <contour>
        <pt x="455" y="244" on="0"/>
        <pt x="452" y="226" on="1"/>
        <pt x="117" y="226" on="1"/>
        <pt x="121" y="141" on="0"/>
        <pt x="217" y="47" on="0"/>
        <pt x="286" y="47" on="1"/>
        <pt x="350" y="47" on="0"/>
        <pt x="409" y="86" on="1"/>
        <pt x="436" y="38" on="1"/>
        <pt x="400" y="15" on="0"/>
        <pt x="324" y="-12" on="0"/>
        <pt x="277" y="-12" on="1"/>
        <pt x="213" y="-12" on="0"/>
        <pt x="108" y="49" on="0"/>
        <pt x="47" y="165" on="0"/>
        <pt x="47" y="242" on="1"/>
        <pt x="47" y="318" on="0"/>
        <pt x="108" y="434" on="0"/>
        <pt x="208" y="497" on="0"/>
        <pt x="264" y="497" on="1"/>
        <pt x="354" y="497" on="0"/>
        <pt x="455" y="376" on="0"/>
        <pt x="455" y="270" on="1"/>
      </contour>
      <contour>
        <pt x="390" y="279" on="1"/>
        <pt x="390" y="356" on="0"/>
        <pt x="324" y="438" on="0"/>
        <pt x="265" y="438" on="1"/>
        <pt x="211" y="438" on="0"/>
        <pt x="127" y="357" on="0"/>
        <pt x="119" y="279" on="1"/>
      </contour>
    </TTGlyph>
    <TTGlyph name="e.sups" xMin="29" yMin="389" xMax="308" yMax="726">
      <contour>
        <pt x="117" y="389" on="0"/>
        <pt x="29" y="479" on="0"/>
        <pt x="29" y="558" on="1"/>
        <pt x="29" y="608" on="0"/>
        <pt x="69" y="684" on="0"/>
        <pt x="137" y="726" on="0"/>
        <pt x="177" y="726" on="1"/>
        <pt x="245" y="726" on="0"/>
        <pt x="308" y="636" on="0"/>
        <pt x="308" y="580" on="1"/>
        <pt x="308" y="566" on="0"/>
        <pt x="304" y="545" on="1"/>
        <pt x="84" y="545" on="1"/>
        <pt x="86" y="494" on="0"/>
        <pt x="144" y="435" on="0"/>
        <pt x="191" y="435" on="1"/>
        <pt x="236" y="435" on="0"/>
        <pt x="274" y="461" on="1"/>
        <pt x="296" y="425" on="1"/>
        <pt x="241" y="389" on="0"/>
        <pt x="185" y="389" on="1"/>
      </contour>
      <contour>
        <pt x="258" y="583" on="1"/>
        <pt x="258" y="624" on="0"/>
        <pt x="219" y="681" on="0"/>
        <pt x="177" y="681" on="1"/>
        <pt x="139" y="681" on="0"/>
        <pt x="89" y="629" on="0"/>
        <pt x="84" y="583" on="1"/>
      </contour>
    </TTGlyph>
    <TTGlyph name="eacute" xMin="47" yMin="-12" xMax="455" yMax="774">
      <component glyphName="e" x="0" y="0" flags="0x0"/>
      <component glyphName="acutecomb" x="266" y="0" flags="0x0"/>
    </TTGlyph>
    <TTGlyph name="ebreve" xMin="47" yMin="-12" xMax="455" yMax="728">
      <component glyphName="e" x="0" y="0" flags="0x0"/>
      <component glyphName="uni0306" x="266" y="0" flags="0x0"/>
    </TTGlyph>
    <TTGlyph name="ecircumflex" xMin="47" yMin="-12" xMax="455" yMax="739">
      <component glyphName="e" x="0" y="0" flags="0x0"/>
      <component glyphName="uni0302" x="266" y="0" flags="0x0"/>
    </TTGlyph>
    <TTGlyph name="edieresis" xMin="47" yMin="-12" xMax="455" yMax="683">
      <component glyphName="e" x="0" y="0" flags="0x0"/>
      <component glyphName="uni0308" x="266" y="0" flags="0x0"/>
    </TTGlyph>
    <TTGlyph name="egrave" xMin="47" yMin="-12" xMax="455" yMax="774">
      <component glyphName="e" x="0" y="0" flags="0x0"/>
      <component glyphName="gravecomb" x="266" y="0" flags="0x0"/>
    </TTGlyph>
    <TTGlyph name="eight" xMin="41" yMin="-12" xMax="451" yMax="650">
      <contour>
        <pt x="189" y="-12" on="0"/>
        <pt x="95" y="33" on="0"/>
        <pt x="41" y="113" on="0"/>
        <pt x="41" y="163" on="1"/>
        <pt x="41" y="221" on="0"/>
        <pt x="111" y="309" on="0"/>
        <pt x="163" y="337" on="1"/>
        <pt x="163" y="341" on="1"/>
        <pt x="73" y="404" on="0"/>
        <pt x="73" y="488" on="1"/>
        <pt x="73" y="536" on="0"/>
        <pt x="119" y="609" on="0"/>
        <pt x="200" y="650" on="0"/>
        <pt x="250" y="650" on="1"/>
        <pt x="332" y="650" on="0"/>
        <pt x="429" y="556" on="0"/>
        <pt x="429" y="481" on="1"/>
        <pt x="429" y="435" on="0"/>
        <pt x="375" y="352" on="0"/>
        <pt x="340" y="325" on="1"/>
        <pt x="340" y="321" on="1"/>
        <pt x="392" y="290" on="0"/>
        <pt x="451" y="216" on="0"/>
        <pt x="451" y="158" on="1"/>
        <pt x="451" y="111" on="0"/>
        <pt x="400" y="33" on="0"/>
        <pt x="308" y="-12" on="0"/>
        <pt x="248" y="-12" on="1"/>
      </contour>
      <contour>
        <pt x="365" y="407" on="0"/>
        <pt x="365" y="478" on="1"/>
        <pt x="365" y="529" on="0"/>
        <pt x="303" y="595" on="0"/>
        <pt x="249" y="595" on="1"/>
        <pt x="202" y="595" on="0"/>
        <pt x="141" y="536" on="0"/>
        <pt x="141" y="488" on="1"/>
        <pt x="141" y="435" on="0"/>
        <pt x="219" y="373" on="0"/>
        <pt x="293" y="344" on="1"/>
      </contour>
      <contour>
        <pt x="308" y="43" on="0"/>
        <pt x="381" y="108" on="0"/>
        <pt x="381" y="159" on="1"/>
        <pt x="381" y="200" on="0"/>
        <pt x="334" y="255" on="0"/>
        <pt x="266" y="289" on="0"/>
        <pt x="202" y="314" on="1"/>
        <pt x="159" y="287" on="0"/>
        <pt x="107" y="213" on="0"/>
        <pt x="107" y="169" on="1"/>
        <pt x="107" y="115" on="0"/>
        <pt x="189" y="43" on="0"/>
        <pt x="250" y="43" on="1"/>
      </contour>
    </TTGlyph>
    <TTGlyph name="eight.heb" xMin="41" yMin="-12" xMax="451" yMax="650">
      <contour>
        <pt x="189" y="-12" on="0"/>
        <pt x="95" y="33" on="0"/>
        <pt x="41" y="113" on="0"/>
        <pt x="41" y="163" on="1"/>
        <pt x="41" y="221" on="0"/>
        <pt x="111" y="309" on="0"/>
        <pt x="163" y="337" on="1"/>
        <pt x="163" y="341" on="1"/>
        <pt x="73" y="404" on="0"/>
        <pt x="73" y="488" on="1"/>
        <pt x="73" y="536" on="0"/>
        <pt x="119" y="609" on="0"/>
        <pt x="200" y="650" on="0"/>
        <pt x="250" y="650" on="1"/>
        <pt x="332" y="650" on="0"/>
        <pt x="429" y="556" on="0"/>
        <pt x="429" y="481" on="1"/>
        <pt x="429" y="435" on="0"/>
        <pt x="375" y="352" on="0"/>
        <pt x="340" y="325" on="1"/>
        <pt x="340" y="321" on="1"/>
        <pt x="392" y="290" on="0"/>
        <pt x="451" y="216" on="0"/>
        <pt x="451" y="158" on="1"/>
        <pt x="451" y="111" on="0"/>
        <pt x="400" y="33" on="0"/>
        <pt x="308" y="-12" on="0"/>
        <pt x="248" y="-12" on="1"/>
      </contour>
      <contour>
        <pt x="365" y="407" on="0"/>
        <pt x="365" y="478" on="1"/>
        <pt x="365" y="529" on="0"/>
        <pt x="303" y="595" on="0"/>
        <pt x="249" y="595" on="1"/>
        <pt x="202" y="595" on="0"/>
        <pt x="141" y="536" on="0"/>
        <pt x="141" y="488" on="1"/>
        <pt x="141" y="435" on="0"/>
        <pt x="219" y="373" on="0"/>
        <pt x="293" y="344" on="1"/>
      </contour>
      <contour>
        <pt x="308" y="43" on="0"/>
        <pt x="381" y="108" on="0"/>
        <pt x="381" y="159" on="1"/>
        <pt x="381" y="200" on="0"/>
        <pt x="334" y="255" on="0"/>
        <pt x="266" y="289" on="0"/>
        <pt x="202" y="314" on="1"/>
        <pt x="159" y="287" on="0"/>
        <pt x="107" y="213" on="0"/>
        <pt x="107" y="169" on="1"/>
        <pt x="107" y="115" on="0"/>
        <pt x="189" y="43" on="0"/>
        <pt x="250" y="43" on="1"/>
      </contour>
    </TTGlyph>
    <TTGlyph name="eight.lat" xMin="41" yMin="-12" xMax="451" yMax="650">
      <contour>
        <pt x="189" y="-12" on="0"/>
        <pt x="95" y="33" on="0"/>
        <pt x="41" y="113" on="0"/>
        <pt x="41" y="163" on="1"/>
        <pt x="41" y="221" on="0"/>
        <pt x="111" y="309" on="0"/>
        <pt x="163" y="337" on="1"/>
        <pt x="163" y="341" on="1"/>
        <pt x="73" y="404" on="0"/>
        <pt x="73" y="488" on="1"/>
        <pt x="73" y="536" on="0"/>
        <pt x="119" y="609" on="0"/>
        <pt x="200" y="650" on="0"/>
        <pt x="250" y="650" on="1"/>
        <pt x="332" y="650" on="0"/>
        <pt x="429" y="556" on="0"/>
        <pt x="429" y="481" on="1"/>
        <pt x="429" y="435" on="0"/>
        <pt x="375" y="352" on="0"/>
        <pt x="340" y="325" on="1"/>
        <pt x="340" y="321" on="1"/>
        <pt x="392" y="290" on="0"/>
        <pt x="451" y="216" on="0"/>
        <pt x="451" y="158" on="1"/>
        <pt x="451" y="111" on="0"/>
        <pt x="400" y="33" on="0"/>
        <pt x="308" y="-12" on="0"/>
        <pt x="248" y="-12" on="1"/>
      </contour>
      <contour>
        <pt x="365" y="407" on="0"/>
        <pt x="365" y="478" on="1"/>
        <pt x="365" y="529" on="0"/>
        <pt x="303" y="595" on="0"/>
        <pt x="249" y="595" on="1"/>
        <pt x="202" y="595" on="0"/>
        <pt x="141" y="536" on="0"/>
        <pt x="141" y="488" on="1"/>
        <pt x="141" y="435" on="0"/>
        <pt x="219" y="373" on="0"/>
        <pt x="293" y="344" on="1"/>
      </contour>
      <contour>
        <pt x="308" y="43" on="0"/>
        <pt x="381" y="108" on="0"/>
        <pt x="381" y="159" on="1"/>
        <pt x="381" y="200" on="0"/>
        <pt x="334" y="255" on="0"/>
        <pt x="266" y="289" on="0"/>
        <pt x="202" y="314" on="1"/>
        <pt x="159" y="287" on="0"/>
        <pt x="107" y="213" on="0"/>
        <pt x="107" y="169" on="1"/>
        <pt x="107" y="115" on="0"/>
        <pt x="189" y="43" on="0"/>
        <pt x="250" y="43" on="1"/>
      </contour>
    </TTGlyph>
    <TTGlyph name="ellipsis" xMin="111" yMin="-12" xMax="889" yMax="105">
      <component glyphName="period" x="45" y="0" flags="0x0"/>
      <component glyphName="period" x="379" y="0" flags="0x0"/>
      <component glyphName="period" x="713" y="0" flags="0x0"/>
    </TTGlyph>
    <TTGlyph name="emacron" xMin="47" yMin="-12" xMax="455" yMax="654">
      <component glyphName="e" x="0" y="0" flags="0x0"/>
      <component glyphName="uni0304" x="266" y="0" flags="0x0"/>
    </TTGlyph>
    <TTGlyph name="emdash" xMin="41" yMin="225" xMax="759" yMax="277">
      <contour>
        <pt x="41" y="277" on="1"/>
        <pt x="759" y="277" on="1"/>
        <pt x="759" y="225" on="1"/>
        <pt x="41" y="225" on="1"/>
      </contour>
    </TTGlyph>
    <TTGlyph name="emdash.lat" xMin="41" yMin="225" xMax="759" yMax="277">
      <contour>
        <pt x="41" y="277" on="1"/>
        <pt x="759" y="277" on="1"/>
        <pt x="759" y="225" on="1"/>
        <pt x="41" y="225" on="1"/>
      </contour>
    </TTGlyph>
    <TTGlyph name="endash" xMin="41" yMin="225" xMax="439" yMax="277">
      <contour>
        <pt x="41" y="277" on="1"/>
        <pt x="439" y="277" on="1"/>
        <pt x="439" y="225" on="1"/>
        <pt x="41" y="225" on="1"/>
      </contour>
    </TTGlyph>
    <TTGlyph name="endash.lat" xMin="41" yMin="225" xMax="439" yMax="277">
      <contour>
        <pt x="41" y="277" on="1"/>
        <pt x="439" y="277" on="1"/>
        <pt x="439" y="225" on="1"/>
        <pt x="41" y="225" on="1"/>
      </contour>
    </TTGlyph>
    <TTGlyph name="eogonek" xMin="47" yMin="-205" xMax="455" yMax="497">
      <contour>
        <pt x="318" y="-205" on="0"/>
        <pt x="269" y="-161" on="0"/>
        <pt x="269" y="-121" on="1"/>
        <pt x="269" y="-87" on="0"/>
        <pt x="305" y="-27" on="0"/>
        <pt x="330" y="-4" on="1"/>
        <pt x="309" y="-12" on="0"/>
        <pt x="277" y="-12" on="1"/>
        <pt x="213" y="-12" on="0"/>
        <pt x="108" y="49" on="0"/>
        <pt x="47" y="165" on="0"/>
        <pt x="47" y="242" on="1"/>
        <pt x="47" y="318" on="0"/>
        <pt x="108" y="434" on="0"/>
        <pt x="208" y="497" on="0"/>
        <pt x="264" y="497" on="1"/>
        <pt x="354" y="497" on="0"/>
        <pt x="455" y="376" on="0"/>
        <pt x="455" y="270" on="1"/>
        <pt x="455" y="244" on="0"/>
        <pt x="452" y="226" on="1"/>
        <pt x="120" y="226" on="1"/>
        <pt x="123" y="145" on="0"/>
        <pt x="213" y="47" on="0"/>
        <pt x="286" y="47" on="1"/>
        <pt x="350" y="47" on="0"/>
        <pt x="409" y="86" on="1"/>
        <pt x="436" y="38" on="1"/>
        <pt x="373" y="-7" on="0"/>
        <pt x="324" y="-74" on="0"/>
        <pt x="324" y="-107" on="1"/>
        <pt x="324" y="-130" on="0"/>
        <pt x="351" y="-155" on="0"/>
        <pt x="371" y="-155" on="1"/>
        <pt x="395" y="-155" on="0"/>
        <pt x="412" y="-142" on="1"/>
        <pt x="432" y="-179" on="1"/>
        <pt x="419" y="-190" on="0"/>
        <pt x="375" y="-205" on="0"/>
        <pt x="357" y="-205" on="1"/>
      </contour>
      <contour>
        <pt x="390" y="279" on="1"/>
        <pt x="390" y="356" on="0"/>
        <pt x="324" y="438" on="0"/>
        <pt x="265" y="438" on="1"/>
        <pt x="209" y="438" on="0"/>
        <pt x="126" y="352" on="0"/>
        <pt x="119" y="279" on="1"/>
      </contour>
    </TTGlyph>
    <TTGlyph name="eogonek.sups" xMin="29" yMin="389" xMax="308" yMax="726">
      <contour>
        <pt x="117" y="389" on="0"/>
        <pt x="29" y="479" on="0"/>
        <pt x="29" y="558" on="1"/>
        <pt x="29" y="608" on="0"/>
        <pt x="69" y="684" on="0"/>
        <pt x="137" y="726" on="0"/>
        <pt x="177" y="726" on="1"/>
        <pt x="245" y="726" on="0"/>
        <pt x="308" y="636" on="0"/>
        <pt x="308" y="580" on="1"/>
        <pt x="308" y="566" on="0"/>
        <pt x="304" y="545" on="1"/>
        <pt x="84" y="545" on="1"/>
        <pt x="86" y="494" on="0"/>
        <pt x="144" y="435" on="0"/>
        <pt x="191" y="435" on="1"/>
        <pt x="236" y="435" on="0"/>
        <pt x="274" y="461" on="1"/>
        <pt x="296" y="425" on="1"/>
        <pt x="241" y="389" on="0"/>
        <pt x="185" y="389" on="1"/>
      </contour>
      <contour>
        <pt x="258" y="583" on="1"/>
        <pt x="258" y="624" on="0"/>
        <pt x="219" y="681" on="0"/>
        <pt x="177" y="681" on="1"/>
        <pt x="139" y="681" on="0"/>
        <pt x="89" y="629" on="0"/>
        <pt x="84" y="583" on="1"/>
      </contour>
    </TTGlyph>
    <TTGlyph name="equal" xMin="34" yMin="196" xMax="458" yMax="464">
      <component glyphName="minus" x="0" y="106" flags="0x4"/>
      <component glyphName="minus" x="0" y="-106" flags="0x4"/>
    </TTGlyph>
    <TTGlyph name="estimated" xMin="46" yMin="-12" xMax="754" yMax="660">
      <contour>
        <pt x="304" y="-12" on="0"/>
        <pt x="141" y="78" on="0"/>
        <pt x="46" y="232" on="0"/>
        <pt x="46" y="324" on="1"/>
        <pt x="46" y="416" on="0"/>
        <pt x="141" y="570" on="0"/>
        <pt x="304" y="660" on="0"/>
        <pt x="400" y="660" on="1"/>
        <pt x="496" y="660" on="0"/>
        <pt x="659" y="570" on="0"/>
        <pt x="754" y="416" on="0"/>
        <pt x="754" y="324" on="1"/>
        <pt x="754" y="316" on="1"/>
        <pt x="180" y="316" on="1"/>
        <pt x="176" y="316" on="0"/>
        <pt x="176" y="312" on="1"/>
        <pt x="176" y="128" on="1"/>
        <pt x="176" y="120" on="0"/>
        <pt x="184" y="108" on="1"/>
        <pt x="225" y="61" on="0"/>
        <pt x="338" y="8" on="0"/>
        <pt x="402" y="8" on="1"/>
        <pt x="468" y="8" on="0"/>
        <pt x="587" y="68" on="0"/>
        <pt x="630" y="120" on="1"/>
        <pt x="682" y="120" on="1"/>
        <pt x="631" y="59" on="0"/>
        <pt x="484" y="-12" on="0"/>
        <pt x="400" y="-12" on="1"/>
      </contour>
      <contour>
        <pt x="620" y="334" on="1"/>
        <pt x="626" y="334" on="0"/>
        <pt x="626" y="340" on="1"/>
        <pt x="626" y="524" on="1"/>
        <pt x="626" y="536" on="0"/>
        <pt x="616" y="546" on="1"/>
        <pt x="573" y="590" on="0"/>
        <pt x="462" y="640" on="0"/>
        <pt x="402" y="640" on="1"/>
        <pt x="339" y="640" on="0"/>
        <pt x="227" y="588" on="0"/>
        <pt x="184" y="542" on="1"/>
        <pt x="176" y="530" on="0"/>
        <pt x="176" y="520" on="1"/>
        <pt x="176" y="340" on="1"/>
        <pt x="176" y="334" on="0"/>
        <pt x="180" y="334" on="1"/>
      </contour>
    </TTGlyph>
    <TTGlyph name="eth" xMin="55" yMin="-12" xMax="481" yMax="729">
      <contour>
        <pt x="481" y="467" on="0"/>
        <pt x="481" y="256" on="1"/>
        <pt x="481" y="176" on="0"/>
        <pt x="428" y="55" on="0"/>
        <pt x="331" y="-12" on="0"/>
        <pt x="268" y="-12" on="1"/>
        <pt x="212" y="-12" on="0"/>
        <pt x="114" y="45" on="0"/>
        <pt x="55" y="152" on="0"/>
        <pt x="55" y="222" on="1"/>
        <pt x="55" y="288" on="0"/>
        <pt x="108" y="389" on="0"/>
        <pt x="202" y="445" on="0"/>
        <pt x="261" y="445" on="1"/>
        <pt x="301" y="445" on="0"/>
        <pt x="372" y="412" on="0"/>
        <pt x="398" y="378" on="1"/>
        <pt x="373" y="496" on="0"/>
        <pt x="290" y="576" on="1"/>
        <pt x="148" y="504" on="1"/>
        <pt x="127" y="541" on="1"/>
        <pt x="255" y="607" on="1"/>
        <pt x="207" y="645" on="0"/>
        <pt x="140" y="682" on="1"/>
        <pt x="174" y="729" on="1"/>
        <pt x="254" y="686" on="0"/>
        <pt x="312" y="637" on="1"/>
        <pt x="454" y="710" on="1"/>
        <pt x="475" y="672" on="1"/>
        <pt x="346" y="605" on="1"/>
      </contour>
      <contour>
        <pt x="339" y="49" on="0"/>
        <pt x="410" y="160" on="0"/>
        <pt x="410" y="253" on="1"/>
        <pt x="410" y="293" on="0"/>
        <pt x="408" y="311" on="1"/>
        <pt x="377" y="354" on="0"/>
        <pt x="310" y="388" on="0"/>
        <pt x="271" y="388" on="1"/>
        <pt x="202" y="388" on="0"/>
        <pt x="124" y="295" on="0"/>
        <pt x="124" y="222" on="1"/>
        <pt x="124" y="171" on="0"/>
        <pt x="164" y="93" on="0"/>
        <pt x="230" y="49" on="0"/>
        <pt x="270" y="49" on="1"/>
      </contour>
    </TTGlyph>
    <TTGlyph name="exclam" xMin="86" yMin="-12" xMax="196" yMax="670">
      <contour>
        <pt x="106" y="582" on="1"/>
        <pt x="104" y="670" on="1"/>
        <pt x="178" y="670" on="1"/>
        <pt x="176" y="582" on="1"/>
        <pt x="166" y="194" on="1"/>
        <pt x="116" y="194" on="1"/>
      </contour>
      <contour>
        <pt x="118" y="-12" on="0"/>
        <pt x="86" y="21" on="0"/>
        <pt x="86" y="46" on="1"/>
        <pt x="86" y="72" on="0"/>
        <pt x="118" y="105" on="0"/>
        <pt x="141" y="105" on="1"/>
        <pt x="164" y="105" on="0"/>
        <pt x="196" y="72" on="0"/>
        <pt x="196" y="46" on="1"/>
        <pt x="196" y="21" on="0"/>
        <pt x="164" y="-12" on="0"/>
        <pt x="141" y="-12" on="1"/>
      </contour>
    </TTGlyph>
    <TTGlyph name="exclam.lat" xMin="86" yMin="-12" xMax="196" yMax="670">
      <contour>
        <pt x="106" y="582" on="1"/>
        <pt x="104" y="670" on="1"/>
        <pt x="178" y="670" on="1"/>
        <pt x="176" y="582" on="1"/>
        <pt x="166" y="194" on="1"/>
        <pt x="116" y="194" on="1"/>
      </contour>
      <contour>
        <pt x="118" y="-12" on="0"/>
        <pt x="86" y="21" on="0"/>
        <pt x="86" y="46" on="1"/>
        <pt x="86" y="72" on="0"/>
        <pt x="118" y="105" on="0"/>
        <pt x="141" y="105" on="1"/>
        <pt x="164" y="105" on="0"/>
        <pt x="196" y="72" on="0"/>
        <pt x="196" y="46" on="1"/>
        <pt x="196" y="21" on="0"/>
        <pt x="164" y="-12" on="0"/>
        <pt x="141" y="-12" on="1"/>
      </contour>
    </TTGlyph>
    <TTGlyph name="exclamdown" xMin="86" yMin="-185" xMax="196" yMax="497">
      <contour>
        <pt x="118" y="380" on="0"/>
        <pt x="86" y="413" on="0"/>
        <pt x="86" y="439" on="1"/>
        <pt x="86" y="464" on="0"/>
        <pt x="118" y="497" on="0"/>
        <pt x="141" y="497" on="1"/>
        <pt x="164" y="497" on="0"/>
        <pt x="196" y="464" on="0"/>
        <pt x="196" y="439" on="1"/>
        <pt x="196" y="413" on="0"/>
        <pt x="164" y="380" on="0"/>
        <pt x="141" y="380" on="1"/>
      </contour>
      <contour>
        <pt x="106" y="-98" on="1"/>
        <pt x="116" y="291" on="1"/>
        <pt x="166" y="291" on="1"/>
        <pt x="176" y="-98" on="1"/>
        <pt x="178" y="-185" on="1"/>
        <pt x="104" y="-185" on="1"/>
      </contour>
    </TTGlyph>
    <TTGlyph name="f" xMin="30" yMin="0" xMax="311" yMax="726">
      <contour>
        <pt x="169" y="666" on="0"/>
        <pt x="169" y="568" on="1"/>
        <pt x="169" y="485" on="1"/>
        <pt x="274" y="485" on="1"/>
        <pt x="274" y="425" on="1"/>
        <pt x="169" y="425" on="1"/>
        <pt x="169" y="0" on="1"/>
        <pt x="96" y="0" on="1"/>
        <pt x="96" y="425" on="1"/>
        <pt x="30" y="425" on="1"/>
        <pt x="30" y="480" on="1"/>
        <pt x="96" y="484" on="1"/>
        <pt x="96" y="569" on="1"/>
        <pt x="96" y="644" on="0"/>
        <pt x="165" y="726" on="0"/>
        <pt x="233" y="726" on="1"/>
        <pt x="272" y="726" on="0"/>
        <pt x="311" y="710" on="1"/>
        <pt x="295" y="654" on="1"/>
        <pt x="267" y="666" on="0"/>
        <pt x="239" y="666" on="1"/>
      </contour>
    </TTGlyph>
    <TTGlyph name="fi" xMin="30" yMin="0" xMax="456" yMax="726">
      <component glyphName="f" x="0" y="0" flags="0x0"/>
      <component glyphName="dotlessi" x="284" y="0" flags="0x0"/>
      <component glyphName="uni0307" x="406" y="0" flags="0x0"/>
    </TTGlyph>
    <TTGlyph name="five" xMin="25" yMin="-12" xMax="444" yMax="638">
      <contour>
        <pt x="163" y="-12" on="0"/>
        <pt x="64" y="36" on="0"/>
        <pt x="25" y="75" on="1"/>
        <pt x="62" y="123" on="1"/>
        <pt x="96" y="89" on="0"/>
        <pt x="173" y="49" on="0"/>
        <pt x="226" y="49" on="1"/>
        <pt x="266" y="49" on="0"/>
        <pt x="332" y="87" on="0"/>
        <pt x="370" y="156" on="0"/>
        <pt x="370" y="201" on="1"/>
        <pt x="370" y="269" on="0"/>
        <pt x="294" y="347" on="0"/>
        <pt x="230" y="347" on="1"/>
        <pt x="198" y="347" on="0"/>
        <pt x="149" y="329" on="0"/>
        <pt x="118" y="308" on="1"/>
        <pt x="78" y="333" on="1"/>
        <pt x="99" y="638" on="1"/>
        <pt x="412" y="638" on="1"/>
        <pt x="412" y="575" on="1"/>
        <pt x="163" y="575" on="1"/>
        <pt x="145" y="376" on="1"/>
        <pt x="170" y="390" on="0"/>
        <pt x="218" y="404" on="0"/>
        <pt x="247" y="404" on="1"/>
        <pt x="334" y="404" on="0"/>
        <pt x="444" y="303" on="0"/>
        <pt x="444" y="204" on="1"/>
        <pt x="444" y="138" on="0"/>
        <pt x="385" y="40" on="0"/>
        <pt x="288" y="-12" on="0"/>
        <pt x="232" y="-12" on="1"/>
      </contour>
    </TTGlyph>
    <TTGlyph name="five.heb" xMin="25" yMin="-12" xMax="444" yMax="638">
      <contour>
        <pt x="163" y="-12" on="0"/>
        <pt x="64" y="36" on="0"/>
        <pt x="25" y="75" on="1"/>
        <pt x="62" y="123" on="1"/>
        <pt x="96" y="89" on="0"/>
        <pt x="173" y="49" on="0"/>
        <pt x="226" y="49" on="1"/>
        <pt x="266" y="49" on="0"/>
        <pt x="332" y="87" on="0"/>
        <pt x="370" y="156" on="0"/>
        <pt x="370" y="201" on="1"/>
        <pt x="370" y="269" on="0"/>
        <pt x="294" y="347" on="0"/>
        <pt x="230" y="347" on="1"/>
        <pt x="198" y="347" on="0"/>
        <pt x="149" y="329" on="0"/>
        <pt x="118" y="308" on="1"/>
        <pt x="78" y="333" on="1"/>
        <pt x="99" y="638" on="1"/>
        <pt x="412" y="638" on="1"/>
        <pt x="412" y="575" on="1"/>
        <pt x="163" y="575" on="1"/>
        <pt x="145" y="376" on="1"/>
        <pt x="170" y="390" on="0"/>
        <pt x="218" y="404" on="0"/>
        <pt x="247" y="404" on="1"/>
        <pt x="334" y="404" on="0"/>
        <pt x="444" y="303" on="0"/>
        <pt x="444" y="204" on="1"/>
        <pt x="444" y="138" on="0"/>
        <pt x="385" y="40" on="0"/>
        <pt x="288" y="-12" on="0"/>
        <pt x="232" y="-12" on="1"/>
      </contour>
    </TTGlyph>
    <TTGlyph name="five.lat" xMin="25" yMin="-12" xMax="444" yMax="638">
      <contour>
        <pt x="163" y="-12" on="0"/>
        <pt x="64" y="36" on="0"/>
        <pt x="25" y="75" on="1"/>
        <pt x="62" y="123" on="1"/>
        <pt x="96" y="89" on="0"/>
        <pt x="173" y="49" on="0"/>
        <pt x="226" y="49" on="1"/>
        <pt x="266" y="49" on="0"/>
        <pt x="332" y="87" on="0"/>
        <pt x="370" y="156" on="0"/>
        <pt x="370" y="201" on="1"/>
        <pt x="370" y="269" on="0"/>
        <pt x="294" y="347" on="0"/>
        <pt x="230" y="347" on="1"/>
        <pt x="198" y="347" on="0"/>
        <pt x="149" y="329" on="0"/>
        <pt x="118" y="308" on="1"/>
        <pt x="78" y="333" on="1"/>
        <pt x="99" y="638" on="1"/>
        <pt x="412" y="638" on="1"/>
        <pt x="412" y="575" on="1"/>
        <pt x="163" y="575" on="1"/>
        <pt x="145" y="376" on="1"/>
        <pt x="170" y="390" on="0"/>
        <pt x="218" y="404" on="0"/>
        <pt x="247" y="404" on="1"/>
        <pt x="334" y="404" on="0"/>
        <pt x="444" y="303" on="0"/>
        <pt x="444" y="204" on="1"/>
        <pt x="444" y="138" on="0"/>
        <pt x="385" y="40" on="0"/>
        <pt x="288" y="-12" on="0"/>
        <pt x="232" y="-12" on="1"/>
      </contour>
    </TTGlyph>
    <TTGlyph name="fl" xMin="30" yMin="-12" xMax="492" yMax="726">
      <component glyphName="f" x="0" y="0" flags="0x0"/>
      <component glyphName="l" x="284" y="0" flags="0x0"/>
    </TTGlyph>
    <TTGlyph name="florin" xMin="16" yMin="-97" xMax="457" yMax="669">
      <contour>
        <pt x="304" y="609" on="0"/>
        <pt x="289" y="471" on="1"/>
        <pt x="282" y="408" on="1"/>
        <pt x="411" y="408" on="1"/>
        <pt x="411" y="351" on="1"/>
        <pt x="276" y="351" on="1"/>
        <pt x="248" y="107" on="1"/>
        <pt x="237" y="8" on="0"/>
        <pt x="164" y="-97" on="0"/>
        <pt x="87" y="-97" on="1"/>
        <pt x="44" y="-97" on="0"/>
        <pt x="16" y="-82" on="1"/>
        <pt x="31" y="-27" on="1"/>
        <pt x="51" y="-36" on="0"/>
        <pt x="81" y="-38" on="1"/>
        <pt x="127" y="-37" on="0"/>
        <pt x="172" y="41" on="0"/>
        <pt x="181" y="121" on="1"/>
        <pt x="206" y="351" on="1"/>
        <pt x="116" y="351" on="1"/>
        <pt x="116" y="403" on="1"/>
        <pt x="185" y="408" on="1"/>
        <pt x="212" y="408" on="1"/>
        <pt x="218" y="465" on="1"/>
        <pt x="229" y="567" on="0"/>
        <pt x="305" y="669" on="0"/>
        <pt x="380" y="669" on="1"/>
        <pt x="419" y="669" on="0"/>
        <pt x="457" y="651" on="1"/>
        <pt x="441" y="594" on="1"/>
        <pt x="425" y="601" on="0"/>
        <pt x="400" y="609" on="0"/>
        <pt x="383" y="609" on="1"/>
      </contour>
    </TTGlyph>
    <TTGlyph name="florin.lat" xMin="16" yMin="-97" xMax="457" yMax="669">
      <contour>
        <pt x="304" y="609" on="0"/>
        <pt x="289" y="471" on="1"/>
        <pt x="282" y="408" on="1"/>
        <pt x="411" y="408" on="1"/>
        <pt x="411" y="351" on="1"/>
        <pt x="276" y="351" on="1"/>
        <pt x="248" y="107" on="1"/>
        <pt x="237" y="8" on="0"/>
        <pt x="164" y="-97" on="0"/>
        <pt x="87" y="-97" on="1"/>
        <pt x="44" y="-97" on="0"/>
        <pt x="16" y="-82" on="1"/>
        <pt x="31" y="-27" on="1"/>
        <pt x="51" y="-36" on="0"/>
        <pt x="81" y="-38" on="1"/>
        <pt x="127" y="-37" on="0"/>
        <pt x="172" y="41" on="0"/>
        <pt x="181" y="121" on="1"/>
        <pt x="206" y="351" on="1"/>
        <pt x="116" y="351" on="1"/>
        <pt x="116" y="403" on="1"/>
        <pt x="185" y="408" on="1"/>
        <pt x="212" y="408" on="1"/>
        <pt x="218" y="465" on="1"/>
        <pt x="229" y="567" on="0"/>
        <pt x="305" y="669" on="0"/>
        <pt x="380" y="669" on="1"/>
        <pt x="419" y="669" on="0"/>
        <pt x="457" y="651" on="1"/>
        <pt x="441" y="594" on="1"/>
        <pt x="425" y="601" on="0"/>
        <pt x="400" y="609" on="0"/>
        <pt x="383" y="609" on="1"/>
      </contour>
    </TTGlyph>
    <TTGlyph name="four" xMin="17" yMin="0" xMax="463" yMax="638">
      <contour>
        <pt x="463" y="180" on="1"/>
        <pt x="374" y="180" on="1"/>
        <pt x="374" y="0" on="1"/>
        <pt x="305" y="0" on="1"/>
        <pt x="305" y="180" on="1"/>
        <pt x="17" y="180" on="1"/>
        <pt x="17" y="227" on="1"/>
        <pt x="296" y="638" on="1"/>
        <pt x="374" y="638" on="1"/>
        <pt x="374" y="238" on="1"/>
        <pt x="463" y="238" on="1"/>
      </contour>
      <contour>
        <pt x="305" y="238" on="1"/>
        <pt x="305" y="436" on="1"/>
        <pt x="305" y="474" on="0"/>
        <pt x="310" y="556" on="1"/>
        <pt x="306" y="556" on="1"/>
        <pt x="286" y="520" on="0"/>
        <pt x="275" y="503" on="1"/>
        <pt x="254" y="468" on="1"/>
        <pt x="95" y="238" on="1"/>
      </contour>
    </TTGlyph>
    <TTGlyph name="four.heb" xMin="17" yMin="0" xMax="463" yMax="638">
      <contour>
        <pt x="463" y="180" on="1"/>
        <pt x="374" y="180" on="1"/>
        <pt x="374" y="0" on="1"/>
        <pt x="305" y="0" on="1"/>
        <pt x="305" y="180" on="1"/>
        <pt x="17" y="180" on="1"/>
        <pt x="17" y="227" on="1"/>
        <pt x="296" y="638" on="1"/>
        <pt x="374" y="638" on="1"/>
        <pt x="374" y="238" on="1"/>
        <pt x="463" y="238" on="1"/>
      </contour>
      <contour>
        <pt x="305" y="238" on="1"/>
        <pt x="305" y="436" on="1"/>
        <pt x="305" y="474" on="0"/>
        <pt x="310" y="556" on="1"/>
        <pt x="306" y="556" on="1"/>
        <pt x="286" y="520" on="0"/>
        <pt x="275" y="503" on="1"/>
        <pt x="254" y="468" on="1"/>
        <pt x="95" y="238" on="1"/>
      </contour>
    </TTGlyph>
    <TTGlyph name="four.lat" xMin="17" yMin="0" xMax="463" yMax="638">
      <contour>
        <pt x="463" y="180" on="1"/>
        <pt x="374" y="180" on="1"/>
        <pt x="374" y="0" on="1"/>
        <pt x="305" y="0" on="1"/>
        <pt x="305" y="180" on="1"/>
        <pt x="17" y="180" on="1"/>
        <pt x="17" y="227" on="1"/>
        <pt x="296" y="638" on="1"/>
        <pt x="374" y="638" on="1"/>
        <pt x="374" y="238" on="1"/>
        <pt x="463" y="238" on="1"/>
      </contour>
      <contour>
        <pt x="305" y="238" on="1"/>
        <pt x="305" y="436" on="1"/>
        <pt x="305" y="474" on="0"/>
        <pt x="310" y="556" on="1"/>
        <pt x="306" y="556" on="1"/>
        <pt x="286" y="520" on="0"/>
        <pt x="275" y="503" on="1"/>
        <pt x="254" y="468" on="1"/>
        <pt x="95" y="238" on="1"/>
      </contour>
    </TTGlyph>
    <TTGlyph name="fraction" xMin="-166" yMin="-12" xMax="248" yMax="669">
      <contour>
        <pt x="197" y="669" on="1"/>
        <pt x="248" y="669" on="1"/>
        <pt x="-115" y="-12" on="1"/>
        <pt x="-166" y="-12" on="1"/>
      </contour>
    </TTGlyph>
    <TTGlyph name="fraction.lat" xMin="-166" yMin="-12" xMax="248" yMax="669">
      <contour>
        <pt x="197" y="669" on="1"/>
        <pt x="248" y="669" on="1"/>
        <pt x="-115" y="-12" on="1"/>
        <pt x="-166" y="-12" on="1"/>
      </contour>
    </TTGlyph>
    <TTGlyph name="g" xMin="47" yMin="-226" xMax="488" yMax="497">
      <contour>
        <pt x="156" y="-226" on="0"/>
        <pt x="47" y="-156" on="0"/>
        <pt x="47" y="-95" on="1"/>
        <pt x="47" y="-64" on="0"/>
        <pt x="84" y="-6" on="0"/>
        <pt x="118" y="17" on="1"/>
        <pt x="118" y="21" on="1"/>
        <pt x="99" y="33" on="0"/>
        <pt x="75" y="73" on="0"/>
        <pt x="75" y="100" on="1"/>
        <pt x="75" y="128" on="0"/>
        <pt x="106" y="175" on="0"/>
        <pt x="128" y="190" on="1"/>
        <pt x="128" y="194" on="1"/>
        <pt x="102" y="215" on="0"/>
        <pt x="66" y="283" on="0"/>
        <pt x="66" y="324" on="1"/>
        <pt x="66" y="375" on="0"/>
        <pt x="114" y="454" on="0"/>
        <pt x="196" y="497" on="0"/>
        <pt x="245" y="497" on="1"/>
        <pt x="278" y="497" on="0"/>
        <pt x="312" y="485" on="1"/>
        <pt x="480" y="485" on="1"/>
        <pt x="480" y="428" on="1"/>
        <pt x="377" y="428" on="1"/>
        <pt x="396" y="410" on="0"/>
        <pt x="420" y="354" on="0"/>
        <pt x="420" y="323" on="1"/>
        <pt x="420" y="273" on="0"/>
        <pt x="374" y="196" on="0"/>
        <pt x="294" y="154" on="0"/>
        <pt x="245" y="154" on="1"/>
        <pt x="205" y="154" on="0"/>
        <pt x="171" y="171" on="1"/>
        <pt x="155" y="158" on="0"/>
        <pt x="138" y="131" on="0"/>
        <pt x="138" y="111" on="1"/>
        <pt x="138" y="85" on="0"/>
        <pt x="177" y="56" on="0"/>
        <pt x="224" y="56" on="1"/>
        <pt x="321" y="56" on="1"/>
        <pt x="406" y="56" on="0"/>
        <pt x="488" y="0" on="0"/>
        <pt x="488" y="-59" on="1"/>
        <pt x="488" y="-103" on="0"/>
        <pt x="428" y="-180" on="0"/>
        <pt x="318" y="-226" on="0"/>
        <pt x="247" y="-226" on="1"/>
      </contour>
      <contour>
        <pt x="290" y="204" on="0"/>
        <pt x="353" y="271" on="0"/>
        <pt x="353" y="324" on="1"/>
        <pt x="353" y="378" on="0"/>
        <pt x="291" y="443" on="0"/>
        <pt x="245" y="443" on="1"/>
        <pt x="199" y="443" on="0"/>
        <pt x="136" y="378" on="0"/>
        <pt x="136" y="324" on="1"/>
        <pt x="136" y="271" on="0"/>
        <pt x="199" y="204" on="0"/>
        <pt x="245" y="204" on="1"/>
      </contour>
      <contour>
        <pt x="303" y="-174" on="0"/>
        <pt x="376" y="-145" on="0"/>
        <pt x="416" y="-96" on="0"/>
        <pt x="416" y="-69" on="1"/>
        <pt x="416" y="-35" on="0"/>
        <pt x="366" y="-6" on="0"/>
        <pt x="315" y="-6" on="1"/>
        <pt x="226" y="-6" on="1"/>
        <pt x="195" y="-6" on="0"/>
        <pt x="164" y="2" on="1"/>
        <pt x="111" y="-35" on="0"/>
        <pt x="111" y="-85" on="1"/>
        <pt x="111" y="-126" on="0"/>
        <pt x="189" y="-174" on="0"/>
        <pt x="257" y="-174" on="1"/>
      </contour>
    </TTGlyph>
    <TTGlyph name="gammalatin" xMin="12" yMin="-206" xMax="447" yMax="485">
      <contour>
        <pt x="254" y="-10" on="1"/>
        <pt x="265" y="-53" on="0"/>
        <pt x="275" y="-98" on="0"/>
        <pt x="275" y="-118" on="1"/>
        <pt x="275" y="-185" on="0"/>
        <pt x="241" y="-193" on="1"/>
        <pt x="235" y="-206" on="0"/>
        <pt x="231" y="-206" on="1"/>
        <pt x="227" y="-206" on="0"/>
        <pt x="222" y="-193" on="1"/>
        <pt x="188" y="-185" on="0"/>
        <pt x="188" y="-118" on="1"/>
        <pt x="188" y="-97" on="0"/>
        <pt x="198" y="-51" on="0"/>
        <pt x="209" y="-7" on="1"/>
        <pt x="208" y="6" on="0"/>
        <pt x="208" y="35" on="1"/>
        <pt x="189" y="35" on="1"/>
        <pt x="12" y="485" on="1"/>
        <pt x="87" y="485" on="1"/>
        <pt x="183" y="218" on="1"/>
        <pt x="187" y="207" on="0"/>
        <pt x="208" y="151" on="1"/>
        <pt x="229" y="95" on="1"/>
        <pt x="233" y="95" on="1"/>
        <pt x="254" y="151" on="1"/>
        <pt x="275" y="207" on="0"/>
        <pt x="279" y="218" on="1"/>
        <pt x="375" y="485" on="1"/>
        <pt x="447" y="485" on="1"/>
        <pt x="273" y="35" on="1"/>
        <pt x="254" y="35" on="1"/>
      </contour>
    </TTGlyph>
    <TTGlyph name="gcaron" xMin="47" yMin="-226" xMax="488" yMax="744">
      <component glyphName="g" x="0" y="0" flags="0x0"/>
      <component glyphName="uni030C" x="258" y="0" flags="0x0"/>
    </TTGlyph>
    <TTGlyph name="gdotaccent" xMin="47" yMin="-226" xMax="488" yMax="689">
      <component glyphName="g" x="0" y="0" flags="0x0"/>
      <component glyphName="uni0307" x="258" y="0" flags="0x0"/>
    </TTGlyph>
    <TTGlyph name="germandbls" xMin="85" yMin="-12" xMax="538" yMax="724">
      <contour>
        <pt x="307" y="-12" on="0"/>
        <pt x="242" y="38" on="1"/>
        <pt x="272" y="89" on="1"/>
        <pt x="300" y="67" on="0"/>
        <pt x="351" y="45" on="0"/>
        <pt x="380" y="45" on="1"/>
        <pt x="422" y="45" on="0"/>
        <pt x="469" y="95" on="0"/>
        <pt x="469" y="130" on="1"/>
        <pt x="469" y="158" on="0"/>
        <pt x="443" y="196" on="0"/>
        <pt x="407" y="221" on="0"/>
        <pt x="374" y="239" on="1"/>
        <pt x="340" y="257" on="0"/>
        <pt x="298" y="286" on="0"/>
        <pt x="269" y="332" on="0"/>
        <pt x="269" y="366" on="1"/>
        <pt x="269" y="397" on="0"/>
        <pt x="293" y="444" on="0"/>
        <pt x="316" y="474" on="1"/>
        <pt x="338" y="503" on="0"/>
        <pt x="360" y="546" on="0"/>
        <pt x="360" y="574" on="1"/>
        <pt x="360" y="614" on="0"/>
        <pt x="315" y="664" on="0"/>
        <pt x="273" y="664" on="1"/>
        <pt x="218" y="664" on="0"/>
        <pt x="157" y="583" on="0"/>
        <pt x="157" y="504" on="1"/>
        <pt x="157" y="0" on="1"/>
        <pt x="85" y="0" on="1"/>
        <pt x="85" y="519" on="1"/>
        <pt x="85" y="613" on="0"/>
        <pt x="185" y="724" on="0"/>
        <pt x="274" y="724" on="1"/>
        <pt x="347" y="724" on="0"/>
        <pt x="431" y="642" on="0"/>
        <pt x="431" y="581" on="1"/>
        <pt x="431" y="544" on="0"/>
        <pt x="404" y="491" on="0"/>
        <pt x="379" y="459" on="1"/>
        <pt x="358" y="434" on="0"/>
        <pt x="338" y="396" on="0"/>
        <pt x="338" y="374" on="1"/>
        <pt x="338" y="345" on="0"/>
        <pt x="377" y="310" on="0"/>
        <pt x="420" y="287" on="1"/>
        <pt x="458" y="267" on="0"/>
        <pt x="505" y="234" on="0"/>
        <pt x="538" y="177" on="0"/>
        <pt x="538" y="134" on="1"/>
        <pt x="538" y="71" on="0"/>
        <pt x="452" y="-12" on="0"/>
        <pt x="382" y="-12" on="1"/>
      </contour>
    </TTGlyph>
    <TTGlyph name="glottalstopreversedsupmod" xMin="21" yMin="397" xMax="288" yMax="876">
      <contour>
        <pt x="134" y="587" on="1"/>
        <pt x="77" y="625" on="0"/>
        <pt x="21" y="696" on="0"/>
        <pt x="21" y="748" on="1"/>
        <pt x="21" y="809" on="0"/>
        <pt x="101" y="876" on="0"/>
        <pt x="163" y="876" on="1"/>
        <pt x="236" y="876" on="0"/>
        <pt x="288" y="818" on="1"/>
        <pt x="258" y="782" on="1"/>
        <pt x="220" y="830" on="0"/>
        <pt x="167" y="830" on="1"/>
        <pt x="125" y="830" on="0"/>
        <pt x="77" y="786" on="0"/>
        <pt x="77" y="747" on="1"/>
        <pt x="77" y="707" on="0"/>
        <pt x="129" y="646" on="0"/>
        <pt x="189" y="611" on="1"/>
        <pt x="189" y="397" on="1"/>
        <pt x="134" y="397" on="1"/>
      </contour>
    </TTGlyph>
    <TTGlyph name="grave" xMin="134" yMin="573" xMax="326" yMax="774">
      <component glyphName="gravecomb" x="270" y="0" flags="0x0"/>
    </TTGlyph>
    <TTGlyph name="gravecomb" xMin="-136" yMin="573" xMax="56" yMax="774">
      <contour>
        <pt x="-136" y="726" on="1"/>
        <pt x="-84" y="774" on="1"/>
        <pt x="56" y="610" on="1"/>
        <pt x="18" y="573" on="1"/>
      </contour>
    </TTGlyph>
    <TTGlyph name="gravecomb.cap" xMin="-129" yMin="699" xMax="50" yMax="863">
      <contour>
        <pt x="-129" y="814" on="1"/>
        <pt x="-87" y="863" on="1"/>
        <pt x="50" y="736" on="1"/>
        <pt x="18" y="699" on="1"/>
      </contour>
    </TTGlyph>
    <TTGlyph name="greater" xMin="34" yMin="135" xMax="458" yMax="529">
      <contour>
        <pt x="34" y="199" on="1"/>
        <pt x="384" y="330" on="1"/>
        <pt x="384" y="334" on="1"/>
        <pt x="34" y="465" on="1"/>
        <pt x="34" y="529" on="1"/>
        <pt x="458" y="362" on="1"/>
        <pt x="458" y="302" on="1"/>
        <pt x="34" y="135" on="1"/>
      </contour>
    </TTGlyph>
    <TTGlyph name="greaterequal" xMin="34" yMin="0" xMax="458" yMax="529">
      <contour>
        <pt x="34" y="217" on="1"/>
        <pt x="249" y="294" on="1"/>
        <pt x="384" y="339" on="1"/>
        <pt x="384" y="343" on="1"/>
        <pt x="249" y="388" on="1"/>
        <pt x="34" y="465" on="1"/>
        <pt x="34" y="529" on="1"/>
        <pt x="458" y="375" on="1"/>
        <pt x="458" y="307" on="1"/>
        <pt x="34" y="153" on="1"/>
      </contour>
      <contour>
        <pt x="34" y="56" on="1"/>
        <pt x="458" y="56" on="1"/>
        <pt x="458" y="0" on="1"/>
        <pt x="34" y="0" on="1"/>
      </contour>
    </TTGlyph>
    <TTGlyph name="guillemotleft" xMin="44" yMin="67" xMax="368" yMax="437">
      <component glyphName="guilsinglleft" x="0" y="0" flags="0x0"/>
      <component glyphName="guilsinglleft" x="154" y="0" flags="0x0"/>
    </TTGlyph>
    <TTGlyph name="guillemotleft.lat" xMin="44" yMin="67" xMax="368" yMax="437">
      <contour>
        <pt x="44" y="224" on="1"/>
        <pt x="44" y="280" on="1"/>
        <pt x="181" y="437" on="1"/>
        <pt x="214" y="409" on="1"/>
        <pt x="95" y="252" on="1"/>
        <pt x="214" y="94" on="1"/>
        <pt x="181" y="67" on="1"/>
      </contour>
      <contour>
        <pt x="198" y="224" on="1"/>
        <pt x="198" y="280" on="1"/>
        <pt x="335" y="437" on="1"/>
        <pt x="368" y="409" on="1"/>
        <pt x="248" y="252" on="1"/>
        <pt x="368" y="94" on="1"/>
        <pt x="335" y="67" on="1"/>
      </contour>
    </TTGlyph>
    <TTGlyph name="guillemotright" xMin="54" yMin="67" xMax="377" yMax="437">
      <component glyphName="guilsinglright" x="0" y="0" flags="0x0"/>
      <component glyphName="guilsinglright" x="154" y="0" flags="0x0"/>
    </TTGlyph>
    <TTGlyph name="guillemotright.lat" xMin="54" yMin="67" xMax="377" yMax="437">
      <contour>
        <pt x="54" y="94" on="1"/>
        <pt x="173" y="252" on="1"/>
        <pt x="54" y="409" on="1"/>
        <pt x="87" y="437" on="1"/>
        <pt x="223" y="280" on="1"/>
        <pt x="223" y="224" on="1"/>
        <pt x="87" y="67" on="1"/>
      </contour>
      <contour>
        <pt x="208" y="94" on="1"/>
        <pt x="327" y="252" on="1"/>
        <pt x="208" y="409" on="1"/>
        <pt x="240" y="437" on="1"/>
        <pt x="377" y="280" on="1"/>
        <pt x="377" y="224" on="1"/>
        <pt x="240" y="67" on="1"/>
      </contour>
    </TTGlyph>
    <TTGlyph name="guilsinglleft" xMin="44" yMin="67" xMax="214" yMax="437">
      <contour>
        <pt x="44" y="224" on="1"/>
        <pt x="44" y="280" on="1"/>
        <pt x="181" y="437" on="1"/>
        <pt x="214" y="409" on="1"/>
        <pt x="95" y="252" on="1"/>
        <pt x="214" y="94" on="1"/>
        <pt x="181" y="67" on="1"/>
      </contour>
    </TTGlyph>
    <TTGlyph name="guilsinglleft.lat" xMin="44" yMin="67" xMax="214" yMax="437">
      <contour>
        <pt x="44" y="224" on="1"/>
        <pt x="44" y="280" on="1"/>
        <pt x="181" y="437" on="1"/>
        <pt x="214" y="409" on="1"/>
        <pt x="95" y="252" on="1"/>
        <pt x="214" y="94" on="1"/>
        <pt x="181" y="67" on="1"/>
      </contour>
    </TTGlyph>
    <TTGlyph name="guilsinglright" xMin="54" yMin="67" xMax="223" yMax="437">
      <contour>
        <pt x="54" y="94" on="1"/>
        <pt x="173" y="252" on="1"/>
        <pt x="54" y="409" on="1"/>
        <pt x="87" y="437" on="1"/>
        <pt x="223" y="280" on="1"/>
        <pt x="223" y="224" on="1"/>
        <pt x="87" y="67" on="1"/>
      </contour>
    </TTGlyph>
    <TTGlyph name="guilsinglright.lat" xMin="54" yMin="67" xMax="223" yMax="437">
      <contour>
        <pt x="54" y="94" on="1"/>
        <pt x="173" y="252" on="1"/>
        <pt x="54" y="409" on="1"/>
        <pt x="87" y="437" on="1"/>
        <pt x="223" y="280" on="1"/>
        <pt x="223" y="224" on="1"/>
        <pt x="87" y="67" on="1"/>
      </contour>
    </TTGlyph>
    <TTGlyph name="h" xMin="85" yMin="0" xMax="465" yMax="714">
      <contour>
        <pt x="85" y="714" on="1"/>
        <pt x="157" y="714" on="1"/>
        <pt x="157" y="516" on="1"/>
        <pt x="155" y="414" on="1"/>
        <pt x="195" y="454" on="0"/>
        <pt x="271" y="497" on="0"/>
        <pt x="317" y="497" on="1"/>
        <pt x="393" y="497" on="0"/>
        <pt x="465" y="402" on="0"/>
        <pt x="465" y="308" on="1"/>
        <pt x="465" y="0" on="1"/>
        <pt x="392" y="0" on="1"/>
        <pt x="392" y="299" on="1"/>
        <pt x="392" y="369" on="0"/>
        <pt x="347" y="433" on="0"/>
        <pt x="296" y="433" on="1"/>
        <pt x="260" y="433" on="0"/>
        <pt x="198" y="396" on="0"/>
        <pt x="157" y="355" on="1"/>
        <pt x="157" y="0" on="1"/>
        <pt x="85" y="0" on="1"/>
      </contour>
    </TTGlyph>
    <TTGlyph name="hbar" xMin="10" yMin="0" xMax="465" yMax="714">
      <contour>
        <pt x="393" y="459" on="0"/>
        <pt x="465" y="364" on="0"/>
        <pt x="465" y="270" on="1"/>
        <pt x="465" y="0" on="1"/>
        <pt x="392" y="0" on="1"/>
        <pt x="392" y="261" on="1"/>
        <pt x="392" y="331" on="0"/>
        <pt x="347" y="395" on="0"/>
        <pt x="296" y="395" on="1"/>
        <pt x="260" y="395" on="0"/>
        <pt x="198" y="358" on="0"/>
        <pt x="157" y="317" on="1"/>
        <pt x="157" y="0" on="1"/>
        <pt x="85" y="0" on="1"/>
        <pt x="85" y="574" on="1"/>
        <pt x="10" y="574" on="1"/>
        <pt x="10" y="613" on="1"/>
        <pt x="85" y="617" on="1"/>
        <pt x="85" y="714" on="1"/>
        <pt x="157" y="714" on="1"/>
        <pt x="157" y="617" on="1"/>
        <pt x="341" y="617" on="1"/>
        <pt x="341" y="574" on="1"/>
        <pt x="157" y="574" on="1"/>
        <pt x="157" y="478" on="1"/>
        <pt x="155" y="376" on="1"/>
        <pt x="195" y="416" on="0"/>
        <pt x="271" y="459" on="0"/>
        <pt x="317" y="459" on="1"/>
      </contour>
    </TTGlyph>
    <TTGlyph name="hungarumlaut" xMin="178" yMin="568" xMax="464" yMax="759">
      <component glyphName="uni030B" x="270" y="0" flags="0x0"/>
    </TTGlyph>
    <TTGlyph name="hyphen" xMin="41" yMin="222" xMax="268" yMax="279">
      <contour>
        <pt x="41" y="279" on="1"/>
        <pt x="268" y="279" on="1"/>
        <pt x="268" y="222" on="1"/>
        <pt x="41" y="222" on="1"/>
      </contour>
    </TTGlyph>
    <TTGlyph name="i" xMin="72" yMin="0" xMax="172" yMax="689">
      <component glyphName="dotlessi" x="0" y="0" flags="0x0"/>
      <component glyphName="uni0307" x="122" y="0" flags="0x0"/>
    </TTGlyph>
    <TTGlyph name="iacute" xMin="66" yMin="0" xMax="258" yMax="774">
      <component glyphName="dotlessi" x="0" y="0" flags="0x0"/>
      <component glyphName="acutecomb" x="122" y="0" flags="0x0"/>
    </TTGlyph>
    <TTGlyph name="icircumflex" xMin="-29" yMin="0" xMax="273" yMax="739">
      <component glyphName="dotlessi" x="0" y="0" flags="0x0"/>
      <component glyphName="uni0302" x="122" y="0" flags="0x0"/>
    </TTGlyph>
    <TTGlyph name="idieresis" xMin="-19" yMin="0" xMax="263" yMax="683">
      <component glyphName="dotlessi" x="0" y="0" flags="0x0"/>
      <component glyphName="uni0308" x="122" y="0" flags="0x0"/>
    </TTGlyph>
    <TTGlyph name="igrave" xMin="-14" yMin="0" xMax="178" yMax="774">
      <component glyphName="dotlessi" x="0" y="0" flags="0x0"/>
      <component glyphName="gravecomb" x="122" y="0" flags="0x0"/>
    </TTGlyph>
    <TTGlyph name="imacron" xMin="-8" yMin="0" xMax="252" yMax="654">
      <component glyphName="dotlessi" x="0" y="0" flags="0x0"/>
      <component glyphName="uni0304" x="122" y="0" flags="0x0"/>
    </TTGlyph>
    <TTGlyph name="infinity" xMin="40" yMin="152" xMax="737" yMax="507">
      <contour>
        <pt x="509" y="152" on="0"/>
        <pt x="417" y="213" on="0"/>
        <pt x="367" y="275" on="1"/>
        <pt x="363" y="275" on="1"/>
        <pt x="322" y="228" on="0"/>
        <pt x="244" y="170" on="0"/>
        <pt x="189" y="170" on="1"/>
        <pt x="149" y="170" on="0"/>
        <pt x="81" y="212" on="0"/>
        <pt x="40" y="283" on="0"/>
        <pt x="40" y="325" on="1"/>
        <pt x="40" y="400" on="0"/>
        <pt x="130" y="491" on="0"/>
        <pt x="200" y="491" on="1"/>
        <pt x="254" y="491" on="0"/>
        <pt x="335" y="431" on="0"/>
        <pt x="370" y="384" on="1"/>
        <pt x="374" y="384" on="1"/>
        <pt x="416" y="440" on="0"/>
        <pt x="510" y="507" on="0"/>
        <pt x="569" y="507" on="1"/>
        <pt x="617" y="507" on="0"/>
        <pt x="694" y="463" on="0"/>
        <pt x="737" y="384" on="0"/>
        <pt x="737" y="335" on="1"/>
        <pt x="737" y="281" on="0"/>
        <pt x="694" y="198" on="0"/>
        <pt x="617" y="152" on="0"/>
        <pt x="568" y="152" on="1"/>
      </contour>
      <contour>
        <pt x="619" y="222" on="0"/>
        <pt x="679" y="285" on="0"/>
        <pt x="679" y="332" on="1"/>
        <pt x="679" y="384" on="0"/>
        <pt x="616" y="450" on="0"/>
        <pt x="562" y="450" on="1"/>
        <pt x="518" y="450" on="0"/>
        <pt x="441" y="394" on="0"/>
        <pt x="402" y="339" on="1"/>
        <pt x="448" y="278" on="0"/>
        <pt x="524" y="222" on="0"/>
        <pt x="569" y="222" on="1"/>
      </contour>
      <contour>
        <pt x="271" y="227" on="0"/>
        <pt x="335" y="322" on="1"/>
        <pt x="299" y="370" on="0"/>
        <pt x="231" y="421" on="0"/>
        <pt x="194" y="421" on="1"/>
        <pt x="152" y="421" on="0"/>
        <pt x="98" y="371" on="0"/>
        <pt x="98" y="328" on="1"/>
        <pt x="98" y="284" on="0"/>
        <pt x="155" y="227" on="0"/>
        <pt x="196" y="227" on="1"/>
      </contour>
    </TTGlyph>
    <TTGlyph name="integral" xMin="53" yMin="-158" xMax="299" yMax="789">
      <contour>
        <pt x="70" y="-158" on="0"/>
        <pt x="53" y="-151" on="1"/>
        <pt x="62" y="-96" on="1"/>
        <pt x="80" y="-100" on="0"/>
        <pt x="97" y="-100" on="1"/>
        <pt x="137" y="-100" on="0"/>
        <pt x="165" y="-22" on="0"/>
        <pt x="165" y="64" on="1"/>
        <pt x="165" y="108" on="0"/>
        <pt x="156" y="207" on="0"/>
        <pt x="146" y="300" on="0"/>
        <pt x="144" y="314" on="1"/>
        <pt x="133" y="401" on="0"/>
        <pt x="122" y="515" on="0"/>
        <pt x="122" y="563" on="1"/>
        <pt x="122" y="672" on="0"/>
        <pt x="178" y="789" on="0"/>
        <pt x="254" y="789" on="1"/>
        <pt x="283" y="789" on="0"/>
        <pt x="299" y="783" on="1"/>
        <pt x="290" y="727" on="1"/>
        <pt x="278" y="731" on="0"/>
        <pt x="255" y="731" on="1"/>
        <pt x="216" y="731" on="0"/>
        <pt x="189" y="652" on="0"/>
        <pt x="189" y="566" on="1"/>
        <pt x="189" y="485" on="0"/>
        <pt x="210" y="317" on="1"/>
        <pt x="220" y="229" on="0"/>
        <pt x="230" y="117" on="0"/>
        <pt x="230" y="68" on="1"/>
        <pt x="230" y="-41" on="0"/>
        <pt x="175" y="-158" on="0"/>
        <pt x="100" y="-158" on="1"/>
      </contour>
    </TTGlyph>
    <TTGlyph name="ismall" xMin="46" yMin="0" xMax="288" yMax="485">
      <contour>
        <pt x="46" y="60" on="1"/>
        <pt x="130" y="60" on="1"/>
        <pt x="130" y="425" on="1"/>
        <pt x="46" y="425" on="1"/>
        <pt x="46" y="485" on="1"/>
        <pt x="288" y="485" on="1"/>
        <pt x="288" y="425" on="1"/>
        <pt x="203" y="425" on="1"/>
        <pt x="203" y="60" on="1"/>
        <pt x="288" y="60" on="1"/>
        <pt x="288" y="0" on="1"/>
        <pt x="46" y="0" on="1"/>
      </contour>
    </TTGlyph>
    <TTGlyph name="j" xMin="-36" yMin="-220" xMax="172" yMax="689">
      <contour>
        <pt x="100" y="589" on="0"/>
        <pt x="72" y="617" on="0"/>
        <pt x="72" y="640" on="1"/>
        <pt x="72" y="662" on="0"/>
        <pt x="100" y="689" on="0"/>
        <pt x="122" y="689" on="1"/>
        <pt x="144" y="689" on="0"/>
        <pt x="172" y="662" on="0"/>
        <pt x="172" y="640" on="1"/>
        <pt x="172" y="617" on="0"/>
        <pt x="144" y="589" on="0"/>
        <pt x="122" y="589" on="1"/>
      </contour>
      <contour>
        <pt x="88" y="485" on="1"/>
        <pt x="160" y="485" on="1"/>
        <pt x="160" y="-64" on="1"/>
        <pt x="160" y="-140" on="0"/>
        <pt x="99" y="-220" on="0"/>
        <pt x="33" y="-220" on="1"/>
        <pt x="-4" y="-220" on="0"/>
        <pt x="-36" y="-208" on="1"/>
        <pt x="-21" y="-152" on="1"/>
        <pt x="3" y="-160" on="0"/>
        <pt x="26" y="-160" on="1"/>
        <pt x="61" y="-160" on="0"/>
        <pt x="87" y="-112" on="0"/>
        <pt x="87" y="-63" on="1"/>
      </contour>
    </TTGlyph>
    <TTGlyph name="j.sups" xMin="-25" yMin="251" xMax="124" yMax="857">
      <contour>
        <pt x="68" y="783" on="0"/>
        <pt x="45" y="804" on="0"/>
        <pt x="45" y="820" on="1"/>
        <pt x="45" y="836" on="0"/>
        <pt x="68" y="857" on="0"/>
        <pt x="85" y="857" on="1"/>
        <pt x="102" y="857" on="0"/>
        <pt x="124" y="836" on="0"/>
        <pt x="124" y="820" on="1"/>
        <pt x="124" y="804" on="0"/>
        <pt x="102" y="783" on="0"/>
        <pt x="85" y="783" on="1"/>
      </contour>
      <contour>
        <pt x="1" y="251" on="0"/>
        <pt x="-25" y="259" on="1"/>
        <pt x="-13" y="304" on="1"/>
        <pt x="2" y="299" on="0"/>
        <pt x="16" y="299" on="1"/>
        <pt x="39" y="299" on="0"/>
        <pt x="55" y="328" on="0"/>
        <pt x="55" y="359" on="1"/>
        <pt x="55" y="718" on="1"/>
        <pt x="111" y="718" on="1"/>
        <pt x="111" y="363" on="1"/>
        <pt x="111" y="251" on="0"/>
        <pt x="22" y="251" on="1"/>
      </contour>
    </TTGlyph>
    <TTGlyph name="k" xMin="85" yMin="0" xMax="477" yMax="714">
      <contour>
        <pt x="85" y="714" on="1"/>
        <pt x="156" y="714" on="1"/>
        <pt x="156" y="220" on="1"/>
        <pt x="159" y="220" on="1"/>
        <pt x="374" y="485" on="1"/>
        <pt x="455" y="485" on="1"/>
        <pt x="293" y="291" on="1"/>
        <pt x="477" y="0" on="1"/>
        <pt x="398" y="0" on="1"/>
        <pt x="251" y="240" on="1"/>
        <pt x="156" y="128" on="1"/>
        <pt x="156" y="0" on="1"/>
        <pt x="85" y="0" on="1"/>
      </contour>
    </TTGlyph>
    <TTGlyph name="l" xMin="85" yMin="-12" xMax="208" yMax="714">
      <contour>
        <pt x="123" y="-12" on="0"/>
        <pt x="85" y="39" on="0"/>
        <pt x="85" y="89" on="1"/>
        <pt x="85" y="714" on="1"/>
        <pt x="157" y="714" on="1"/>
        <pt x="157" y="83" on="1"/>
        <pt x="157" y="66" on="0"/>
        <pt x="170" y="49" on="0"/>
        <pt x="180" y="49" on="1"/>
        <pt x="188" y="49" on="0"/>
        <pt x="198" y="51" on="1"/>
        <pt x="208" y="-5" on="1"/>
        <pt x="189" y="-12" on="0"/>
        <pt x="164" y="-12" on="1"/>
      </contour>
    </TTGlyph>
    <TTGlyph name="lefttorightembed" xMin="-129" yMin="767" xMax="144" yMax="984">
      <contour>
        <pt x="14" y="792" on="1"/>
        <pt x="77" y="858" on="1"/>
        <pt x="1" y="858" on="1"/>
        <pt x="1" y="894" on="1"/>
        <pt x="77" y="894" on="1"/>
        <pt x="14" y="957" on="1"/>
        <pt x="39" y="984" on="1"/>
        <pt x="144" y="875" on="1"/>
        <pt x="39" y="767" on="1"/>
      </contour>
      <contour>
        <pt x="-129" y="894" on="1"/>
        <pt x="-41" y="894" on="1"/>
        <pt x="-41" y="858" on="1"/>
        <pt x="-129" y="858" on="1"/>
      </contour>
    </TTGlyph>
    <TTGlyph name="less" xMin="34" yMin="135" xMax="458" yMax="529">
      <contour>
        <pt x="34" y="302" on="1"/>
        <pt x="34" y="362" on="1"/>
        <pt x="458" y="529" on="1"/>
        <pt x="458" y="465" on="1"/>
        <pt x="109" y="334" on="1"/>
        <pt x="109" y="330" on="1"/>
        <pt x="458" y="199" on="1"/>
        <pt x="458" y="135" on="1"/>
      </contour>
    </TTGlyph>
    <TTGlyph name="lessequal" xMin="34" yMin="0" xMax="458" yMax="529">
      <contour>
        <pt x="34" y="307" on="1"/>
        <pt x="34" y="375" on="1"/>
        <pt x="458" y="529" on="1"/>
        <pt x="458" y="465" on="1"/>
        <pt x="243" y="388" on="1"/>
        <pt x="109" y="343" on="1"/>
        <pt x="109" y="339" on="1"/>
        <pt x="243" y="294" on="1"/>
        <pt x="458" y="217" on="1"/>
        <pt x="458" y="153" on="1"/>
      </contour>
      <contour>
        <pt x="34" y="56" on="1"/>
        <pt x="458" y="56" on="1"/>
        <pt x="458" y="0" on="1"/>
        <pt x="34" y="0" on="1"/>
      </contour>
    </TTGlyph>
    <TTGlyph name="litre" xMin="23" yMin="-12" xMax="391" yMax="726">
      <contour>
        <pt x="391" y="49" on="1"/>
        <pt x="361" y="22" on="0"/>
        <pt x="298" y="-12" on="0"/>
        <pt x="260" y="-12" on="1"/>
        <pt x="196" y="-12" on="0"/>
        <pt x="109" y="80" on="0"/>
        <pt x="107" y="162" on="1"/>
        <pt x="53" y="125" on="1"/>
        <pt x="23" y="172" on="1"/>
        <pt x="58" y="195" on="0"/>
        <pt x="107" y="233" on="1"/>
        <pt x="107" y="513" on="1"/>
        <pt x="107" y="622" on="0"/>
        <pt x="183" y="726" on="0"/>
        <pt x="246" y="726" on="1"/>
        <pt x="303" y="726" on="0"/>
        <pt x="373" y="647" on="0"/>
        <pt x="373" y="575" on="1"/>
        <pt x="373" y="483" on="0"/>
        <pt x="270" y="302" on="0"/>
        <pt x="178" y="220" on="1"/>
        <pt x="178" y="183" on="1"/>
        <pt x="178" y="115" on="0"/>
        <pt x="229" y="50" on="0"/>
        <pt x="270" y="50" on="1"/>
        <pt x="297" y="50" on="0"/>
        <pt x="339" y="73" on="0"/>
        <pt x="361" y="94" on="1"/>
      </contour>
      <contour>
        <pt x="218" y="669" on="0"/>
        <pt x="178" y="597" on="0"/>
        <pt x="178" y="527" on="1"/>
        <pt x="178" y="298" on="1"/>
        <pt x="309" y="436" on="0"/>
        <pt x="309" y="573" on="1"/>
        <pt x="309" y="623" on="0"/>
        <pt x="276" y="669" on="0"/>
        <pt x="248" y="669" on="1"/>
      </contour>
    </TTGlyph>
    <TTGlyph name="logicalnot" xMin="34" yMin="105" xMax="458" yMax="358">
      <contour>
        <pt x="399" y="302" on="1"/>
        <pt x="34" y="302" on="1"/>
        <pt x="34" y="358" on="1"/>
        <pt x="458" y="358" on="1"/>
        <pt x="458" y="105" on="1"/>
        <pt x="399" y="105" on="1"/>
      </contour>
    </TTGlyph>
    <TTGlyph name="lozenge" xMin="57" yMin="-10" xMax="455" yMax="670">
      <contour>
        <pt x="57" y="330" on="1"/>
        <pt x="222" y="670" on="1"/>
        <pt x="291" y="670" on="1"/>
        <pt x="455" y="330" on="1"/>
        <pt x="291" y="-10" on="1"/>
        <pt x="222" y="-10" on="1"/>
      </contour>
      <contour>
        <pt x="258" y="51" on="1"/>
        <pt x="390" y="330" on="1"/>
        <pt x="322" y="473" on="1"/>
        <pt x="258" y="609" on="1"/>
        <pt x="254" y="609" on="1"/>
        <pt x="123" y="330" on="1"/>
        <pt x="190" y="186" on="1"/>
        <pt x="254" y="51" on="1"/>
      </contour>
    </TTGlyph>
    <TTGlyph name="lslash" xMin="1" yMin="-12" xMax="242" yMax="714">
      <contour>
        <pt x="192" y="49" on="0"/>
        <pt x="201" y="51" on="1"/>
        <pt x="211" y="-5" on="1"/>
        <pt x="192" y="-12" on="0"/>
        <pt x="168" y="-12" on="1"/>
        <pt x="127" y="-12" on="0"/>
        <pt x="88" y="39" on="0"/>
        <pt x="88" y="89" on="1"/>
        <pt x="88" y="340" on="1"/>
        <pt x="29" y="302" on="1"/>
        <pt x="1" y="349" on="1"/>
        <pt x="88" y="403" on="1"/>
        <pt x="88" y="714" on="1"/>
        <pt x="161" y="714" on="1"/>
        <pt x="161" y="441" on="1"/>
        <pt x="215" y="476" on="1"/>
        <pt x="242" y="429" on="1"/>
        <pt x="161" y="378" on="1"/>
        <pt x="161" y="83" on="1"/>
        <pt x="161" y="66" on="0"/>
        <pt x="173" y="49" on="0"/>
        <pt x="183" y="49" on="1"/>
      </contour>
    </TTGlyph>
    <TTGlyph name="m" xMin="85" yMin="0" xMax="747" yMax="497">
      <contour>
        <pt x="85" y="485" on="1"/>
        <pt x="145" y="485" on="1"/>
        <pt x="151" y="413" on="1"/>
        <pt x="154" y="413" on="1"/>
        <pt x="231" y="497" on="0"/>
        <pt x="305" y="497" on="1"/>
        <pt x="408" y="497" on="0"/>
        <pt x="439" y="403" on="1"/>
        <pt x="481" y="449" on="0"/>
        <pt x="559" y="497" on="0"/>
        <pt x="600" y="497" on="1"/>
        <pt x="747" y="497" on="0"/>
        <pt x="747" y="308" on="1"/>
        <pt x="747" y="0" on="1"/>
        <pt x="674" y="0" on="1"/>
        <pt x="674" y="299" on="1"/>
        <pt x="674" y="369" on="0"/>
        <pt x="628" y="433" on="0"/>
        <pt x="579" y="433" on="1"/>
        <pt x="522" y="433" on="0"/>
        <pt x="452" y="355" on="1"/>
        <pt x="452" y="0" on="1"/>
        <pt x="379" y="0" on="1"/>
        <pt x="379" y="299" on="1"/>
        <pt x="379" y="368" on="0"/>
        <pt x="333" y="433" on="0"/>
        <pt x="285" y="433" on="1"/>
        <pt x="228" y="433" on="0"/>
        <pt x="157" y="355" on="1"/>
        <pt x="157" y="0" on="1"/>
        <pt x="85" y="0" on="1"/>
      </contour>
    </TTGlyph>
    <TTGlyph name="macron" xMin="140" yMin="602" xMax="400" yMax="654">
      <component glyphName="uni0304" x="270" y="0" flags="0x0"/>
    </TTGlyph>
    <TTGlyph name="minus" xMin="34" yMin="302" xMax="458" yMax="358">
      <contour>
        <pt x="34" y="358" on="1"/>
        <pt x="458" y="358" on="1"/>
        <pt x="458" y="302" on="1"/>
        <pt x="34" y="302" on="1"/>
      </contour>
    </TTGlyph>
    <TTGlyph name="multiply" xMin="51" yMin="128" xMax="442" yMax="531">
      <contour>
        <pt x="51" y="169" on="1"/>
        <pt x="207" y="330" on="1"/>
        <pt x="51" y="490" on="1"/>
        <pt x="90" y="531" on="1"/>
        <pt x="246" y="369" on="1"/>
        <pt x="402" y="531" on="1"/>
        <pt x="442" y="490" on="1"/>
        <pt x="286" y="330" on="1"/>
        <pt x="442" y="169" on="1"/>
        <pt x="402" y="128" on="1"/>
        <pt x="246" y="290" on="1"/>
        <pt x="90" y="128" on="1"/>
      </contour>
    </TTGlyph>
    <TTGlyph name="n" xMin="85" yMin="0" xMax="465" yMax="497">
      <contour>
        <pt x="85" y="485" on="1"/>
        <pt x="145" y="485" on="1"/>
        <pt x="151" y="413" on="1"/>
        <pt x="154" y="413" on="1"/>
        <pt x="194" y="453" on="0"/>
        <pt x="271" y="497" on="0"/>
        <pt x="317" y="497" on="1"/>
        <pt x="393" y="497" on="0"/>
        <pt x="465" y="402" on="0"/>
        <pt x="465" y="308" on="1"/>
        <pt x="465" y="0" on="1"/>
        <pt x="392" y="0" on="1"/>
        <pt x="392" y="299" on="1"/>
        <pt x="392" y="369" on="0"/>
        <pt x="347" y="433" on="0"/>
        <pt x="296" y="433" on="1"/>
        <pt x="260" y="433" on="0"/>
        <pt x="198" y="396" on="0"/>
        <pt x="157" y="355" on="1"/>
        <pt x="157" y="0" on="1"/>
        <pt x="85" y="0" on="1"/>
      </contour>
    </TTGlyph>
    <TTGlyph name="nine" xMin="40" yMin="-12" xMax="443" yMax="650">
      <contour>
        <pt x="289" y="650" on="0"/>
        <pt x="388" y="581" on="0"/>
        <pt x="443" y="444" on="0"/>
        <pt x="443" y="345" on="1"/>
        <pt x="443" y="221" on="0"/>
        <pt x="377" y="61" on="0"/>
        <pt x="269" y="-12" on="0"/>
        <pt x="202" y="-12" on="1"/>
        <pt x="112" y="-12" on="0"/>
        <pt x="53" y="54" on="1"/>
        <pt x="94" y="100" on="1"/>
        <pt x="114" y="76" on="0"/>
        <pt x="169" y="49" on="0"/>
        <pt x="199" y="49" on="1"/>
        <pt x="275" y="49" on="0"/>
        <pt x="371" y="183" on="0"/>
        <pt x="373" y="332" on="1"/>
        <pt x="342" y="293" on="0"/>
        <pt x="261" y="249" on="0"/>
        <pt x="221" y="249" on="1"/>
        <pt x="136" y="249" on="0"/>
        <pt x="40" y="350" on="0"/>
        <pt x="40" y="447" on="1"/>
        <pt x="40" y="505" on="0"/>
        <pt x="90" y="598" on="0"/>
        <pt x="175" y="650" on="0"/>
        <pt x="225" y="650" on="1"/>
      </contour>
      <contour>
        <pt x="267" y="305" on="0"/>
        <pt x="340" y="348" on="0"/>
        <pt x="372" y="393" on="1"/>
        <pt x="364" y="489" on="0"/>
        <pt x="290" y="592" on="0"/>
        <pt x="225" y="592" on="1"/>
        <pt x="176" y="592" on="0"/>
        <pt x="110" y="511" on="0"/>
        <pt x="110" y="447" on="1"/>
        <pt x="110" y="380" on="0"/>
        <pt x="172" y="305" on="0"/>
        <pt x="233" y="305" on="1"/>
      </contour>
    </TTGlyph>
    <TTGlyph name="nine.heb" xMin="40" yMin="-12" xMax="443" yMax="650">
      <contour>
        <pt x="289" y="650" on="0"/>
        <pt x="388" y="581" on="0"/>
        <pt x="443" y="444" on="0"/>
        <pt x="443" y="345" on="1"/>
        <pt x="443" y="221" on="0"/>
        <pt x="377" y="61" on="0"/>
        <pt x="269" y="-12" on="0"/>
        <pt x="202" y="-12" on="1"/>
        <pt x="112" y="-12" on="0"/>
        <pt x="53" y="54" on="1"/>
        <pt x="94" y="100" on="1"/>
        <pt x="114" y="76" on="0"/>
        <pt x="169" y="49" on="0"/>
        <pt x="199" y="49" on="1"/>
        <pt x="275" y="49" on="0"/>
        <pt x="371" y="183" on="0"/>
        <pt x="373" y="332" on="1"/>
        <pt x="342" y="293" on="0"/>
        <pt x="261" y="249" on="0"/>
        <pt x="221" y="249" on="1"/>
        <pt x="136" y="249" on="0"/>
        <pt x="40" y="350" on="0"/>
        <pt x="40" y="447" on="1"/>
        <pt x="40" y="505" on="0"/>
        <pt x="90" y="598" on="0"/>
        <pt x="175" y="650" on="0"/>
        <pt x="225" y="650" on="1"/>
      </contour>
      <contour>
        <pt x="267" y="305" on="0"/>
        <pt x="340" y="348" on="0"/>
        <pt x="372" y="393" on="1"/>
        <pt x="364" y="489" on="0"/>
        <pt x="290" y="592" on="0"/>
        <pt x="225" y="592" on="1"/>
        <pt x="176" y="592" on="0"/>
        <pt x="110" y="511" on="0"/>
        <pt x="110" y="447" on="1"/>
        <pt x="110" y="380" on="0"/>
        <pt x="172" y="305" on="0"/>
        <pt x="233" y="305" on="1"/>
      </contour>
    </TTGlyph>
    <TTGlyph name="nine.lat" xMin="40" yMin="-12" xMax="443" yMax="650">
      <contour>
        <pt x="289" y="650" on="0"/>
        <pt x="388" y="581" on="0"/>
        <pt x="443" y="444" on="0"/>
        <pt x="443" y="345" on="1"/>
        <pt x="443" y="221" on="0"/>
        <pt x="377" y="61" on="0"/>
        <pt x="269" y="-12" on="0"/>
        <pt x="202" y="-12" on="1"/>
        <pt x="112" y="-12" on="0"/>
        <pt x="53" y="54" on="1"/>
        <pt x="94" y="100" on="1"/>
        <pt x="114" y="76" on="0"/>
        <pt x="169" y="49" on="0"/>
        <pt x="199" y="49" on="1"/>
        <pt x="275" y="49" on="0"/>
        <pt x="371" y="183" on="0"/>
        <pt x="373" y="332" on="1"/>
        <pt x="342" y="293" on="0"/>
        <pt x="261" y="249" on="0"/>
        <pt x="221" y="249" on="1"/>
        <pt x="136" y="249" on="0"/>
        <pt x="40" y="350" on="0"/>
        <pt x="40" y="447" on="1"/>
        <pt x="40" y="505" on="0"/>
        <pt x="90" y="598" on="0"/>
        <pt x="175" y="650" on="0"/>
        <pt x="225" y="650" on="1"/>
      </contour>
      <contour>
        <pt x="267" y="305" on="0"/>
        <pt x="340" y="348" on="0"/>
        <pt x="372" y="393" on="1"/>
        <pt x="364" y="489" on="0"/>
        <pt x="290" y="592" on="0"/>
        <pt x="225" y="592" on="1"/>
        <pt x="176" y="592" on="0"/>
        <pt x="110" y="511" on="0"/>
        <pt x="110" y="447" on="1"/>
        <pt x="110" y="380" on="0"/>
        <pt x="172" y="305" on="0"/>
        <pt x="233" y="305" on="1"/>
      </contour>
    </TTGlyph>
    <TTGlyph name="notequal" xMin="34" yMin="69" xMax="458" yMax="591">
      <contour>
        <pt x="139" y="196" on="1"/>
        <pt x="34" y="196" on="1"/>
        <pt x="34" y="252" on="1"/>
        <pt x="171" y="252" on="1"/>
        <pt x="265" y="408" on="1"/>
        <pt x="34" y="408" on="1"/>
        <pt x="34" y="464" on="1"/>
        <pt x="298" y="464" on="1"/>
        <pt x="375" y="591" on="1"/>
        <pt x="430" y="591" on="1"/>
        <pt x="353" y="464" on="1"/>
        <pt x="458" y="464" on="1"/>
        <pt x="458" y="408" on="1"/>
        <pt x="321" y="408" on="1"/>
        <pt x="227" y="252" on="1"/>
        <pt x="458" y="252" on="1"/>
        <pt x="458" y="196" on="1"/>
        <pt x="195" y="196" on="1"/>
        <pt x="118" y="69" on="1"/>
        <pt x="62" y="69" on="1"/>
      </contour>
    </TTGlyph>
    <TTGlyph name="ntilde" xMin="85" yMin="0" xMax="465" yMax="718">
      <component glyphName="n" x="0" y="0" flags="0x0"/>
      <component glyphName="tildecomb" x="291" y="0" flags="0x0"/>
    </TTGlyph>
    <TTGlyph name="numbersign" xMin="35" yMin="0" xMax="462" yMax="650">
      <contour>
        <pt x="116" y="207" on="1"/>
        <pt x="35" y="207" on="1"/>
        <pt x="35" y="259" on="1"/>
        <pt x="122" y="259" on="1"/>
        <pt x="141" y="412" on="1"/>
        <pt x="55" y="412" on="1"/>
        <pt x="55" y="464" on="1"/>
        <pt x="147" y="464" on="1"/>
        <pt x="171" y="650" on="1"/>
        <pt x="219" y="650" on="1"/>
        <pt x="196" y="464" on="1"/>
        <pt x="333" y="464" on="1"/>
        <pt x="357" y="650" on="1"/>
        <pt x="405" y="650" on="1"/>
        <pt x="382" y="464" on="1"/>
        <pt x="462" y="464" on="1"/>
        <pt x="462" y="412" on="1"/>
        <pt x="376" y="412" on="1"/>
        <pt x="357" y="259" on="1"/>
        <pt x="442" y="259" on="1"/>
        <pt x="442" y="207" on="1"/>
        <pt x="351" y="207" on="1"/>
        <pt x="326" y="0" on="1"/>
        <pt x="277" y="0" on="1"/>
        <pt x="302" y="207" on="1"/>
        <pt x="165" y="207" on="1"/>
        <pt x="140" y="0" on="1"/>
        <pt x="91" y="0" on="1"/>
      </contour>
      <contour>
        <pt x="308" y="259" on="1"/>
        <pt x="327" y="412" on="1"/>
        <pt x="190" y="412" on="1"/>
        <pt x="171" y="259" on="1"/>
      </contour>
    </TTGlyph>
    <TTGlyph name="numbersign.lat" xMin="35" yMin="0" xMax="462" yMax="650">
      <contour>
        <pt x="116" y="207" on="1"/>
        <pt x="35" y="207" on="1"/>
        <pt x="35" y="259" on="1"/>
        <pt x="122" y="259" on="1"/>
        <pt x="141" y="412" on="1"/>
        <pt x="55" y="412" on="1"/>
        <pt x="55" y="464" on="1"/>
        <pt x="147" y="464" on="1"/>
        <pt x="171" y="650" on="1"/>
        <pt x="219" y="650" on="1"/>
        <pt x="196" y="464" on="1"/>
        <pt x="333" y="464" on="1"/>
        <pt x="357" y="650" on="1"/>
        <pt x="405" y="650" on="1"/>
        <pt x="382" y="464" on="1"/>
        <pt x="462" y="464" on="1"/>
        <pt x="462" y="412" on="1"/>
        <pt x="376" y="412" on="1"/>
        <pt x="357" y="259" on="1"/>
        <pt x="442" y="259" on="1"/>
        <pt x="442" y="207" on="1"/>
        <pt x="351" y="207" on="1"/>
        <pt x="326" y="0" on="1"/>
        <pt x="277" y="0" on="1"/>
        <pt x="302" y="207" on="1"/>
        <pt x="165" y="207" on="1"/>
        <pt x="140" y="0" on="1"/>
        <pt x="91" y="0" on="1"/>
      </contour>
      <contour>
        <pt x="308" y="259" on="1"/>
        <pt x="327" y="412" on="1"/>
        <pt x="190" y="412" on="1"/>
        <pt x="171" y="259" on="1"/>
      </contour>
    </TTGlyph>
    <TTGlyph name="o" xMin="47" yMin="-12" xMax="493" yMax="497">
      <contour>
        <pt x="210" y="-12" on="0"/>
        <pt x="108" y="49" on="0"/>
        <pt x="47" y="164" on="0"/>
        <pt x="47" y="242" on="1"/>
        <pt x="47" y="320" on="0"/>
        <pt x="108" y="436" on="0"/>
        <pt x="210" y="497" on="0"/>
        <pt x="270" y="497" on="1"/>
        <pt x="330" y="497" on="0"/>
        <pt x="432" y="436" on="0"/>
        <pt x="493" y="320" on="0"/>
        <pt x="493" y="242" on="1"/>
        <pt x="493" y="164" on="0"/>
        <pt x="432" y="49" on="0"/>
        <pt x="330" y="-12" on="0"/>
        <pt x="270" y="-12" on="1"/>
      </contour>
      <contour>
        <pt x="313" y="49" on="0"/>
        <pt x="380" y="97" on="0"/>
        <pt x="418" y="185" on="0"/>
        <pt x="418" y="242" on="1"/>
        <pt x="418" y="299" on="0"/>
        <pt x="380" y="387" on="0"/>
        <pt x="313" y="436" on="0"/>
        <pt x="270" y="436" on="1"/>
        <pt x="227" y="436" on="0"/>
        <pt x="160" y="387" on="0"/>
        <pt x="123" y="299" on="0"/>
        <pt x="123" y="242" on="1"/>
        <pt x="123" y="155" on="0"/>
        <pt x="205" y="49" on="0"/>
        <pt x="270" y="49" on="1"/>
      </contour>
    </TTGlyph>
    <TTGlyph name="o.sups" xMin="30" yMin="389" xMax="332" yMax="726">
      <contour>
        <pt x="140" y="389" on="0"/>
        <pt x="71" y="430" on="0"/>
        <pt x="30" y="507" on="0"/>
        <pt x="30" y="558" on="1"/>
        <pt x="30" y="610" on="0"/>
        <pt x="71" y="686" on="0"/>
        <pt x="139" y="726" on="0"/>
        <pt x="181" y="726" on="1"/>
        <pt x="223" y="726" on="0"/>
        <pt x="291" y="686" on="0"/>
        <pt x="332" y="610" on="0"/>
        <pt x="332" y="558" on="1"/>
        <pt x="332" y="507" on="0"/>
        <pt x="291" y="430" on="0"/>
        <pt x="222" y="389" on="0"/>
        <pt x="181" y="389" on="1"/>
      </contour>
      <contour>
        <pt x="224" y="436" on="0"/>
        <pt x="274" y="503" on="0"/>
        <pt x="274" y="558" on="1"/>
        <pt x="274" y="613" on="0"/>
        <pt x="224" y="680" on="0"/>
        <pt x="181" y="680" on="1"/>
        <pt x="138" y="680" on="0"/>
        <pt x="88" y="613" on="0"/>
        <pt x="88" y="558" on="1"/>
        <pt x="88" y="503" on="0"/>
        <pt x="139" y="436" on="0"/>
        <pt x="181" y="436" on="1"/>
      </contour>
    </TTGlyph>
    <TTGlyph name="oacute" xMin="47" yMin="-12" xMax="493" yMax="774">
      <component glyphName="o" x="0" y="0" flags="0x0"/>
      <component glyphName="acutecomb" x="270" y="0" flags="0x0"/>
    </TTGlyph>
    <TTGlyph name="obreve" xMin="47" yMin="-12" xMax="493" yMax="728">
      <component glyphName="o" x="0" y="0" flags="0x0"/>
      <component glyphName="uni0306" x="270" y="0" flags="0x0"/>
    </TTGlyph>
    <TTGlyph name="ocircumflex" xMin="47" yMin="-12" xMax="493" yMax="739">
      <component glyphName="o" x="0" y="0" flags="0x0"/>
      <component glyphName="uni0302" x="270" y="0" flags="0x0"/>
    </TTGlyph>
    <TTGlyph name="odieresis" xMin="47" yMin="-12" xMax="493" yMax="683">
      <component glyphName="o" x="0" y="0" flags="0x0"/>
      <component glyphName="uni0308" x="270" y="0" flags="0x0"/>
    </TTGlyph>
    <TTGlyph name="oe" xMin="47" yMin="-12" xMax="804" yMax="497">
      <contour>
        <pt x="205" y="-12" on="0"/>
        <pt x="106" y="49" on="0"/>
        <pt x="47" y="164" on="0"/>
        <pt x="47" y="242" on="1"/>
        <pt x="47" y="320" on="0"/>
        <pt x="106" y="436" on="0"/>
        <pt x="206" y="497" on="0"/>
        <pt x="265" y="497" on="1"/>
        <pt x="323" y="497" on="0"/>
        <pt x="418" y="431" on="0"/>
        <pt x="444" y="369" on="1"/>
        <pt x="472" y="429" on="0"/>
        <pt x="563" y="497" on="0"/>
        <pt x="617" y="497" on="1"/>
        <pt x="705" y="497" on="0"/>
        <pt x="804" y="374" on="0"/>
        <pt x="804" y="269" on="1"/>
        <pt x="804" y="242" on="0"/>
        <pt x="800" y="226" on="1"/>
        <pt x="477" y="226" on="1"/>
        <pt x="478" y="174" on="0"/>
        <pt x="521" y="93" on="0"/>
        <pt x="592" y="48" on="0"/>
        <pt x="635" y="48" on="1"/>
        <pt x="669" y="48" on="0"/>
        <pt x="727" y="69" on="0"/>
        <pt x="757" y="89" on="1"/>
        <pt x="784" y="38" on="1"/>
        <pt x="708" y="-12" on="0"/>
        <pt x="626" y="-12" on="1"/>
        <pt x="568" y="-12" on="0"/>
        <pt x="472" y="55" on="0"/>
        <pt x="445" y="114" on="1"/>
        <pt x="417" y="52" on="0"/>
        <pt x="325" y="-12" on="0"/>
        <pt x="264" y="-12" on="1"/>
      </contour>
      <contour>
        <pt x="739" y="275" on="1"/>
        <pt x="739" y="354" on="0"/>
        <pt x="673" y="438" on="0"/>
        <pt x="615" y="438" on="1"/>
        <pt x="562" y="438" on="0"/>
        <pt x="484" y="348" on="0"/>
        <pt x="477" y="275" on="1"/>
      </contour>
      <contour>
        <pt x="329" y="49" on="0"/>
        <pt x="409" y="155" on="0"/>
        <pt x="409" y="242" on="1"/>
        <pt x="409" y="299" on="0"/>
        <pt x="373" y="387" on="0"/>
        <pt x="307" y="436" on="0"/>
        <pt x="265" y="436" on="1"/>
        <pt x="224" y="436" on="0"/>
        <pt x="159" y="387" on="0"/>
        <pt x="122" y="299" on="0"/>
        <pt x="122" y="242" on="1"/>
        <pt x="122" y="185" on="0"/>
        <pt x="159" y="97" on="0"/>
        <pt x="224" y="49" on="0"/>
        <pt x="265" y="49" on="1"/>
      </contour>
    </TTGlyph>
    <TTGlyph name="ograve" xMin="47" yMin="-12" xMax="493" yMax="774">
      <component glyphName="o" x="0" y="0" flags="0x0"/>
      <component glyphName="gravecomb" x="270" y="0" flags="0x0"/>
    </TTGlyph>
    <TTGlyph name="omacron" xMin="47" yMin="-12" xMax="493" yMax="654">
      <component glyphName="o" x="0" y="0" flags="0x0"/>
      <component glyphName="uni0304" x="270" y="0" flags="0x0"/>
    </TTGlyph>
    <TTGlyph name="one" xMin="80" yMin="0" xMax="433" yMax="638">
      <contour>
        <pt x="80" y="61" on="1"/>
        <pt x="227" y="61" on="1"/>
        <pt x="227" y="546" on="1"/>
        <pt x="111" y="546" on="1"/>
        <pt x="111" y="593" on="1"/>
        <pt x="192" y="607" on="0"/>
        <pt x="244" y="638" on="1"/>
        <pt x="300" y="638" on="1"/>
        <pt x="300" y="61" on="1"/>
        <pt x="433" y="61" on="1"/>
        <pt x="433" y="0" on="1"/>
        <pt x="80" y="0" on="1"/>
      </contour>
    </TTGlyph>
    <TTGlyph name="one.heb" xMin="80" yMin="0" xMax="433" yMax="638">
      <contour>
        <pt x="80" y="61" on="1"/>
        <pt x="227" y="61" on="1"/>
        <pt x="227" y="546" on="1"/>
        <pt x="111" y="546" on="1"/>
        <pt x="111" y="593" on="1"/>
        <pt x="192" y="607" on="0"/>
        <pt x="244" y="638" on="1"/>
        <pt x="300" y="638" on="1"/>
        <pt x="300" y="61" on="1"/>
        <pt x="433" y="61" on="1"/>
        <pt x="433" y="0" on="1"/>
        <pt x="80" y="0" on="1"/>
      </contour>
    </TTGlyph>
    <TTGlyph name="one.lat" xMin="80" yMin="0" xMax="433" yMax="638">
      <contour>
        <pt x="80" y="61" on="1"/>
        <pt x="227" y="61" on="1"/>
        <pt x="227" y="546" on="1"/>
        <pt x="111" y="546" on="1"/>
        <pt x="111" y="593" on="1"/>
        <pt x="192" y="607" on="0"/>
        <pt x="244" y="638" on="1"/>
        <pt x="300" y="638" on="1"/>
        <pt x="300" y="61" on="1"/>
        <pt x="433" y="61" on="1"/>
        <pt x="433" y="0" on="1"/>
        <pt x="80" y="0" on="1"/>
      </contour>
    </TTGlyph>
    <TTGlyph name="one.pnumlat" xMin="52" yMin="0" xMax="241" yMax="638">
      <contour>
        <pt x="168" y="546" on="1"/>
        <pt x="52" y="546" on="1"/>
        <pt x="52" y="593" on="1"/>
        <pt x="133" y="607" on="0"/>
        <pt x="185" y="638" on="1"/>
        <pt x="241" y="638" on="1"/>
        <pt x="241" y="0" on="1"/>
        <pt x="168" y="0" on="1"/>
      </contour>
    </TTGlyph>
    <TTGlyph name="onehalf" xMin="169" yMin="-12" xMax="583" yMax="669">
      <contour>
        <pt x="532" y="669" on="1"/>
        <pt x="583" y="669" on="1"/>
        <pt x="220" y="-12" on="1"/>
        <pt x="169" y="-12" on="1"/>
      </contour>
    </TTGlyph>
</ttFont>
